<svg width="58" height="58" viewBox="0 0 58 58" fill="none" xmlns="http://www.w3.org/2000/svg">
<path d="M29 58C45.0163 58 58 45.0163 58 29C58 12.9837 45.0163 0 29 0C12.9837 0 0 12.9837 0 29C0 45.0163 12.9837 58 29 58Z" fill="white"/>
<path d="M29 57C44.464 57 57 44.464 57 29C57 13.536 44.464 1 29 1C13.536 1 1 13.536 1 29C1 44.464 13.536 57 29 57Z" stroke="#222D35" stroke-width="2"/>
<path d="M36.745 28.62C36.751 29.1207 36.5608 29.6039 36.215 29.966L25.092 41.691C24.9291 41.8683 24.7312 42.0098 24.5108 42.1066C24.2904 42.2034 24.0522 42.2534 23.8115 42.2534C23.5708 42.2534 23.3326 42.2034 23.1122 42.1066C22.8918 42.0098 22.6939 41.8683 22.531 41.691C22.1901 41.3256 22.0005 40.8444 22.0005 40.3445C22.0005 39.8447 22.1901 39.3635 22.531 38.998L32.372 28.62L22.531 18.259C22.1909 17.8898 22.002 17.4061 22.002 16.904C22.002 16.402 22.1909 15.9183 22.531 15.549C22.6961 15.3755 22.8947 15.2372 23.1148 15.1428C23.3349 15.0484 23.572 14.9997 23.8115 14.9997C24.051 14.9997 24.2881 15.0484 24.5082 15.1428C24.7283 15.2372 24.9269 15.3755 25.092 15.549L36.215 27.274C36.5554 27.6396 36.7448 28.1205 36.745 28.62Z" fill="#222D35"/>
</svg>
