<?xml version="1.0" encoding="utf-8"?>
<svg width="47px" height="26px" viewBox="0 0 47 26" version="1.1" xmlns:xlink="http://www.w3.org/1999/xlink" xmlns="http://www.w3.org/2000/svg">
  <desc>Created with Lunacy</desc>
  <g id="svg">
    <path d="M0 0L47 0L47 26L0 26L0 0Z" id="Background" fill="none" stroke="none" />
    <path d="M10.215 0.013C8.59504 0.01563 7.042 0.65952 5.89538 1.80389C4.74876 2.94827 4.10183 4.50004 4.09602 6.12001C4.09259 7.05512 4.31719 7.97696 4.75037 8.80569C5.18356 9.6344 5.81226 10.3451 6.58202 10.876C4.64336 11.6115 2.97487 12.9203 1.79895 14.6281C0.623025 16.3359 -0.00449191 18.3615 2.42059e-05 20.435C0.0112815 20.7046 0.127247 20.9591 0.323258 21.1445C0.51927 21.3298 0.77986 21.4315 1.04962 21.4277C1.31938 21.4239 1.57703 21.315 1.76777 21.1242C1.95852 20.9334 2.06731 20.6758 2.07102 20.406C2.0602 19.3367 2.26099 18.2758 2.66185 17.2843C3.0627 16.2929 3.6557 15.3906 4.40669 14.6293C5.15769 13.868 6.05185 13.2627 7.03771 12.8484C8.02357 12.434 9.08164 12.2188 10.151 12.215C11.4693 12.206 12.7703 12.515 13.9437 13.1157C15.1172 13.7165 16.1285 14.5913 16.892 15.666C15.7484 16.623 14.8298 17.8204 14.2019 19.1729C13.5739 20.5254 13.252 21.9998 13.259 23.491C13.2632 23.7658 13.3765 24.0276 13.5738 24.2189C13.771 24.4102 14.0362 24.5152 14.311 24.511C14.5858 24.5068 14.8476 24.3935 15.0389 24.1963C15.2302 23.999 15.3352 23.7338 15.331 23.459C15.3258 22.3896 15.5313 21.3298 15.9357 20.3398C16.3402 19.3499 16.9356 18.4493 17.6881 17.6895C18.4406 16.9297 19.3353 16.3255 20.3213 15.9115C21.3073 15.4975 22.3651 15.2817 23.4345 15.2765C24.5039 15.2713 25.5638 15.4768 26.5537 15.8812C27.5436 16.2857 28.4442 16.8811 29.204 17.6336C29.9639 18.3861 30.568 19.2808 30.982 20.2668C31.3961 21.2528 31.6118 22.3107 31.617 23.38C31.6364 23.6512 31.751 23.9068 31.9406 24.1016C32.1301 24.2965 32.3825 24.4181 32.653 24.445C32.934 24.4301 33.1985 24.3075 33.3914 24.1026C33.5844 23.8977 33.6909 23.6264 33.689 23.345C33.6767 21.8833 33.3487 20.4415 32.7273 19.1183C32.106 17.7952 31.206 16.622 30.089 15.679C31.082 14.2632 32.5005 13.2008 34.1385 12.6462C35.7764 12.0917 37.5486 12.0738 39.1974 12.5951C40.8463 13.1165 42.2859 14.15 43.3073 15.5455C44.3287 16.9409 44.8785 18.6257 44.877 20.355C44.877 20.6298 44.9862 20.8933 45.1804 21.0876C45.3747 21.2819 45.6382 21.391 45.913 21.391C46.1878 21.391 46.4513 21.2819 46.6456 21.0876C46.8398 20.8933 46.949 20.6298 46.949 20.355C46.9424 18.6164 46.4909 16.9085 45.6374 15.3938C44.7839 13.8791 43.5568 12.6082 42.073 11.702C41.546 11.3783 40.9915 11.1016 40.416 10.875C41.174 10.3358 41.7911 9.6223 42.2154 8.79456C42.6398 7.96681 42.8588 7.04915 42.854 6.119C42.854 4.49614 42.2093 2.93976 41.0618 1.79222C39.9143 0.64469 38.3579 0 36.735 0C35.1121 0 33.5557 0.64469 32.4082 1.79222C31.2607 2.93976 30.616 4.49614 30.616 6.119C30.6142 7.04811 30.8363 7.96398 31.2634 8.78906C31.6906 9.6141 32.3103 10.3242 33.07 10.859C31.1845 11.5819 29.5583 12.8519 28.4 14.506C28.0042 14.288 27.5943 14.0966 27.173 13.933C27.926 13.3901 28.5385 12.6754 28.9598 11.8482C29.381 11.021 29.5988 10.1053 29.595 9.177C29.595 7.55414 28.9503 5.99775 27.8028 4.85022C26.6553 3.70268 25.0989 3.058 23.476 3.058C21.8531 3.058 20.2968 3.70268 19.1492 4.85022C18.0017 5.99775 17.357 7.55414 17.357 9.177C17.3571 10.1097 17.5816 11.0288 18.0114 11.8565C18.4413 12.6843 19.064 13.3965 19.827 13.933C19.3948 14.0951 18.9741 14.2866 18.568 14.506C17.3995 12.8506 15.7627 11.5823 13.868 10.864C14.6329 10.3332 15.2574 9.6244 15.6877 8.79869C16.118 7.97299 16.3411 7.05509 16.338 6.12401C16.3322 4.50404 15.6853 2.95226 14.5386 1.80789C13.392 0.66352 11.839 0.01963 10.219 0.017L10.215 0.013ZM12.4751 2.73915C11.8065 2.29075 11.02 2.05059 10.215 2.04901C9.67916 2.04637 9.14808 2.14982 8.6524 2.35342C8.15672 2.55703 7.70625 2.85675 7.32696 3.23529C6.94768 3.61383 6.64709 4.06371 6.44251 4.55899C6.23794 5.05427 6.13343 5.58514 6.13502 6.121C6.13502 6.92603 6.37364 7.713 6.82072 8.38246C7.26781 9.0519 7.90329 9.5738 8.64689 9.8823C9.39048 10.1907 10.2088 10.2718 10.9985 10.1153C11.7881 9.9589 12.5137 9.5718 13.0835 9.00316C13.6533 8.43448 14.0418 7.70967 14.1998 6.9203C14.3578 6.13094 14.2783 5.31245 13.9713 4.56825C13.6644 3.82405 13.1437 3.18755 12.4751 2.73915ZM36.732 2.04901C37.537 2.05059 38.3235 2.29075 38.9921 2.73915C39.6607 3.18755 40.1814 3.82405 40.4883 4.56825C40.7953 5.31245 40.8748 6.13094 40.7168 6.9203C40.5588 7.70967 40.1703 8.43448 39.6005 9.00316C39.0307 9.5718 38.3051 9.9589 37.5155 10.1153C36.7258 10.2718 35.9075 10.1907 35.1639 9.8823C34.4203 9.5738 33.7848 9.0519 33.3377 8.38246C32.8906 7.713 32.652 6.92603 32.652 6.121C32.6504 5.58514 32.7549 5.05427 32.9595 4.55899C33.1641 4.06371 33.4647 3.61383 33.8439 3.23529C34.2232 2.85675 34.6737 2.55703 35.1694 2.35342C35.6651 2.14982 36.1961 2.04637 36.732 2.04901ZM26.3523 6.29866C25.5887 5.53501 24.553 5.106 23.473 5.106C22.9371 5.10336 22.4061 5.20683 21.9104 5.41043C21.4147 5.61403 20.9642 5.91374 20.5849 6.29228C20.2057 6.67082 19.9051 7.1207 19.7005 7.61598C19.4959 8.11126 19.3914 8.64215 19.393 9.178C19.377 9.7178 19.4717 10.2551 19.6712 10.7569C19.8707 11.2586 20.1708 11.7143 20.553 12.0957C20.9352 12.4772 21.3914 12.7764 21.8936 12.9749C22.3958 13.1734 22.9333 13.267 23.473 13.25C24.553 13.25 25.5887 12.821 26.3523 12.0573C27.116 11.2937 27.545 10.258 27.545 9.178C27.545 8.09805 27.116 7.06231 26.3523 6.29866Z" transform="translate(0.0009765641 0.987)" id="Shape" fill="#EFBC3F" fill-rule="evenodd" stroke="none" />
  </g>
</svg>