<?xml version="1.0" encoding="utf-8"?>
<svg width="43px" height="45px" viewBox="0 0 43 45" version="1.1" xmlns:xlink="http://www.w3.org/1999/xlink" xmlns="http://www.w3.org/2000/svg">
  <desc>Created with Lunacy</desc>
  <g id="svg">
    <path d="M0 0L43 0L43 44L0 44L0 0Z" transform="translate(0 0.0003660207)" id="Background" fill="none" stroke="none" />
    <path d="M29.3549 38.6384C27.1607 39.9324 24.7112 40.7336 22.1764 40.9863C19.6416 41.2391 17.0821 40.9374 14.6756 40.1022C12.269 39.2669 10.073 37.9182 8.23974 36.1494C6.40654 34.3807 4.98006 32.2343 4.05926 29.8591C3.13846 27.484 2.74537 24.937 2.90729 22.3948C3.0692 19.8525 3.78222 17.376 4.9969 15.1368C6.21158 12.8977 7.89883 10.9496 9.94162 9.42772C11.9844 7.90582 14.3338 6.84654 16.8269 6.32336L16.8269 8.35937C16.8269 8.95937 17.2479 9.19136 17.7589 8.88536L20.0079 7.53436C20.5209 7.22836 21.3569 6.72436 21.8699 6.41836L24.1189 5.07036C24.2318 5.02665 24.3288 4.94982 24.3972 4.84996C24.4656 4.75011 24.5022 4.6319 24.5022 4.51086C24.5022 4.38982 24.4656 4.27162 24.3972 4.17176C24.3288 4.07191 24.2318 3.99508 24.1189 3.95136L21.8699 2.60336C21.3569 2.29736 20.5209 1.79336 20.0079 1.48736L17.7619 0.134359C17.2509 -0.171641 16.8299 0.0623597 16.8299 0.66036L16.8299 3.39236C13.8867 3.92049 11.0953 5.08793 8.65242 6.81234C6.20956 8.53675 4.17479 10.7762 2.69163 13.3726C1.20847 15.969 0.313031 18.8592 0.0684776 21.8394C-0.176077 24.8195 0.236213 27.817 1.27626 30.6205C2.3163 33.424 3.95877 35.9651 6.08783 38.0647C8.21688 40.1643 10.7807 41.7712 13.5984 42.772C16.4161 43.7729 19.4191 44.1434 22.3955 43.8573C25.372 43.5712 28.2494 42.6356 30.8249 41.1164C30.9876 41.0201 31.1296 40.8927 31.243 40.7414C31.3564 40.5902 31.4389 40.4181 31.4858 40.235C31.5327 40.0519 31.5431 39.8613 31.5163 39.6742C31.4896 39.4871 31.4262 39.307 31.3299 39.1444C31.2336 38.9817 31.1062 38.8397 30.9549 38.7263C30.8037 38.6129 30.6316 38.5304 30.4485 38.4835C30.2654 38.4366 30.0748 38.4262 29.8877 38.453C29.7006 38.4797 29.5205 38.5431 29.3579 38.6394L29.3549 38.6384L29.3549 38.6384Z" transform="translate(0.01013168 0)" id="Shape" fill="#EFBC3F" stroke="none" />
    <path d="M0.0921516 3.45012C0.15115 3.59022 0.237152 3.71732 0.345352 3.82412C0.453453 3.93092 0.58165 4.01532 0.72245 4.07252C0.863251 4.12973 1.01395 4.15862 1.16595 4.15753C1.31795 4.15642 1.46815 4.12542 1.60815 4.06612L5.96415 2.22312C6.10415 2.16403 6.23115 2.07792 6.33785 1.96982C6.44455 1.86162 6.52895 1.73352 6.58615 1.59272C6.64335 1.45192 6.67225 1.30132 6.67125 1.14932C6.67015 0.997424 6.63925 0.847124 6.58015 0.707125C6.52105 0.567124 6.43495 0.440125 6.32685 0.333425C6.21865 0.226725 6.09055 0.142324 5.94975 0.085125C5.80895 0.0279245 5.65835 -0.000975609 5.50635 2.47955e-05C5.35445 0.00112438 5.20415 0.0320244 5.06415 0.0911245L0.703152 1.93412C0.42115 2.05422 0.198353 2.28133 0.0837517 2.56563C-0.0307503 2.84992 -0.0277481 3.16803 0.0921516 3.45012L0.0921516 3.45012L0.0921516 3.45012Z" transform="translate(34.46285 14.10024)" id="Shape" fill="#EFBC3F" stroke="none" />
    <path d="M1.96084 5.32023L5.30384 1.97824C5.52134 1.76129 5.64374 1.46685 5.64404 1.15966C5.64444 0.852481 5.52284 0.557711 5.30584 0.340241C5.08894 0.122761 4.79444 0.000370979 4.48724 9.53674e-07C4.18004 -0.000379086 3.88534 0.121291 3.66784 0.338241L0.324842 3.68323C0.114042 3.90143 -0.00255775 4.19373 4.19617e-05 4.49713C0.00264168 4.80043 0.124342 5.09063 0.338842 5.30523C0.553442 5.51973 0.843643 5.64143 1.14704 5.64403C1.45034 5.64663 1.74264 5.53003 1.96084 5.31923L1.96084 5.32023L1.96084 5.32023Z" transform="translate(30.94916 7.359135)" id="Shape" fill="#EFBC3F" stroke="none" />
    <path d="M0.705091 6.5791C0.845192 6.63879 0.995693 6.6702 1.14789 6.67151C1.30019 6.67284 1.45119 6.64405 1.59229 6.5868C1.73329 6.52955 1.86169 6.44498 1.96999 6.33793C2.07819 6.2309 2.16429 6.10351 2.22309 5.9631L4.06609 1.6071C4.12519 1.46711 4.15619 1.31685 4.15719 1.16491C4.15819 1.01296 4.12929 0.862296 4.07209 0.721516C4.01489 0.580746 3.93049 0.452616 3.82379 0.344456C3.71709 0.236286 3.59009 0.150186 3.45009 0.0910962C3.31009 0.031996 3.15989 0.00105619 3.00789 2.59876e-05C2.85599 -0.000993967 2.70529 0.0279162 2.56449 0.0851161C2.42379 0.142326 2.29569 0.226696 2.18749 0.333416C2.07929 0.440126 1.99319 0.567106 1.93409 0.707096L0.0910931 5.0631C-0.0281067 5.3456 -0.030407 5.66384 0.084692 5.94804C0.199793 6.23224 0.422892 6.45918 0.705091 6.5791L0.705091 6.5791L0.705091 6.5791Z" transform="translate(25.69591 2.81628)" id="Shape" fill="#EFBC3F" stroke="none" />
    <path d="M1.96084 0.324841C1.74264 0.11404 1.45034 -0.00255966 1.14704 4.19617e-05C0.843643 0.00263977 0.553442 0.12434 0.338842 0.33884C0.124342 0.553341 0.00264168 0.84354 4.19617e-05 1.14694C-0.00255775 1.45034 0.114042 1.74264 0.324842 1.96084L3.66784 5.30584C3.88604 5.51664 4.17834 5.63324 4.48174 5.63064C4.78504 5.62794 5.07524 5.50634 5.28984 5.29184C5.50434 5.07724 5.62604 4.78704 5.62864 4.48364C5.63124 4.18024 5.51464 3.88804 5.30384 3.66984L1.96084 0.324841L1.96084 0.324841Z" transform="translate(30.94916 34.01553)" id="Shape" fill="#EFBC3F" stroke="none" />
    <path d="M5.96308 1.93411L1.60708 0.091114C1.32438 -0.028286 1.00578 -0.030386 0.721478 0.0851135C0.43718 0.200615 0.21048 0.424414 0.0910797 0.707113C-0.0282211 0.989815 -0.0304222 1.30841 0.0850792 1.59271C0.20068 1.87701 0.424381 2.10382 0.707081 2.22311L5.06308 4.06611C5.34578 4.18542 5.66438 4.18761 5.94868 4.07211C6.23298 3.95651 6.45978 3.73281 6.57908 3.45011C6.69838 3.16741 6.70058 2.84881 6.58508 2.56451C6.46958 2.28021 6.24578 2.05341 5.96308 1.93411L5.96308 1.93411L5.96308 1.93411Z" transform="translate(34.46392 28.76025)" id="Shape" fill="#EFBC3F" stroke="none" />
    <path d="M5.8865 0L1.1575 0C0.850502 0 0.556099 0.122 0.3391 0.3391C0.122002 0.556101 0 0.8505 0 1.1575C0 1.4645 0.122002 1.7589 0.3391 1.976C0.556099 2.1931 0.850502 2.315 1.1575 2.315L5.8885 2.315C6.1955 2.315 6.4899 2.1931 6.707 1.976C6.9241 1.7589 7.046 1.4645 7.046 1.1575C7.046 0.8505 6.9241 0.556101 6.707 0.3391C6.4899 0.122 6.1955 0 5.8885 0L5.8865 0L5.8865 0Z" transform="translate(35.7575 22.35437)" id="Shape" fill="#EFBC3F" stroke="none" />
    <path d="M8.78795 12.3912C9.74345 12.3912 10.6597 12.0117 11.3353 11.3361C12.0109 10.6605 12.3905 9.7442 12.3905 8.7887C12.3905 7.8333 12.0109 6.917 11.3353 6.2414C10.6597 5.5658 9.74345 5.1862 8.78795 5.1862C8.52185 5.1858 8.25645 5.2157 7.99705 5.2752L2.82105 0.600204C2.68255 0.425104 2.50855 0.281404 2.31045 0.178404C2.11245 0.0754042 1.89475 0.0155039 1.67195 0.00260353C1.44905 -0.0101957 1.22595 0.0243044 1.01745 0.103904C0.808847 0.183504 0.619448 0.306304 0.461747 0.464304C0.304148 0.622404 0.181647 0.812004 0.102548 1.0207C0.023447 1.2295 -0.0105524 1.4526 0.00284767 1.6755C0.0161476 1.8983 0.0765476 2.1158 0.179947 2.3136C0.283447 2.5114 0.427648 2.6851 0.603047 2.8232L5.27795 7.9962C5.15695 8.5236 5.15675 9.0715 5.27725 9.599C5.39775 10.1265 5.63595 10.6199 5.97395 11.0424C6.31195 11.465 6.74105 11.8057 7.22915 12.039C7.71735 12.2724 8.25195 12.3925 8.79305 12.3902L8.78795 12.3912L8.78795 12.3912Z" transform="translate(11.65405 14.72216)" id="Shape" fill="#EFBC3F" stroke="none" />
  </g>
</svg>