<?xml version="1.0" encoding="utf-8"?>
<svg width="44px" height="44px" viewBox="0 0 44 44" version="1.1" xmlns:xlink="http://www.w3.org/1999/xlink" xmlns="http://www.w3.org/2000/svg">
  <desc>Created with Lunacy</desc>
  <g id="svg">
    <path d="M0 0L44 0L44 44L0 44L0 0Z" id="Background" fill="none" stroke="none" />
    <path d="M5.964 43.952L37.988 43.952C39.5691 43.9499 41.0849 43.3209 42.2029 42.2029C43.3209 41.0848 43.9499 39.5691 43.952 37.988L43.952 5.964C43.9499 4.3829 43.3209 2.86716 42.2029 1.74915C41.0849 0.631145 39.5691 0.0021166 37.988 0L5.964 0C4.3829 0.0021166 2.86716 0.631145 1.74915 1.74915C0.631144 2.86716 0.0021166 4.3829 0 5.964L0 37.988C0.0021166 39.5691 0.631144 41.0848 1.74915 42.2029C2.86716 43.3209 4.3829 43.9499 5.964 43.952ZM3.23698 3.23798C3.96025 2.51471 4.94114 2.10827 5.964 2.108L37.988 2.107C39.0109 2.10727 39.9918 2.51371 40.7151 3.23698C41.4383 3.96025 41.8448 4.94114 41.845 5.964L41.845 37.988C41.8448 39.0109 41.4383 39.9917 40.7151 40.715C39.9918 41.4383 39.0109 41.8447 37.988 41.845L5.964 41.845C4.94114 41.8447 3.96025 41.4383 3.23698 40.715C2.51371 39.9917 2.10726 39.0109 2.107 37.988L2.107 5.965C2.10726 4.94214 2.51371 3.96125 3.23698 3.23798Z" transform="translate(0.0010376 0)" id="Shape" fill="#EFBC3F" fill-rule="evenodd" stroke="none" />
    <path d="M0 0L41.845 0L41.845 2.10698L0 2.10698L0 0L0 0Z" transform="translate(1.05402 8.49902)" id="Shape" fill="#EFBC3F" stroke="none" />
    <path d="M3.698 1.849C3.698 2.2147 3.5896 2.5722 3.3864 2.8763C3.1832 3.1804 2.8945 3.4174 2.5566 3.5573C2.2187 3.6972 1.847 3.7339 1.4883 3.6625C1.1296 3.5912 0.800201 3.4151 0.541599 3.1565C0.283001 2.8979 0.106899 2.5684 0.0354996 2.2098C-0.0358009 1.8511 0.000801086 1.4793 0.1408 1.1415C0.280701 0.8036 0.5177 0.514797 0.8218 0.311699C1.1258 0.108498 1.4833 0 1.849 0C2.3394 0 2.8097 0.194897 3.1565 0.541599C3.5032 0.888397 3.698 1.3587 3.698 1.849" transform="translate(34.007 34.5959)" id="Shape" fill="#EFBC3F" stroke="none" />
    <path d="M3.698 1.849C3.698 2.2147 3.5896 2.5722 3.3864 2.8763C3.1832 3.1804 2.8945 3.4174 2.5566 3.5573C2.2187 3.6972 1.847 3.7339 1.4883 3.6625C1.1296 3.5912 0.8002 3.4151 0.541599 3.1565C0.282999 2.8979 0.106899 2.5684 0.0354996 2.2098C-0.0358009 1.8511 0.000799179 1.4793 0.140799 1.1415C0.280699 0.8036 0.5177 0.514797 0.8218 0.311699C1.1258 0.108498 1.4833 0 1.849 0C2.3394 0 2.8097 0.194897 3.1565 0.541599C3.5032 0.888397 3.698 1.3587 3.698 1.849L3.698 1.849Z" transform="translate(27.447 34.5959)" id="Shape" fill="#EFBC3F" stroke="none" />
    <path d="M3.698 1.849C3.698 2.2147 3.5896 2.5722 3.3864 2.8763C3.1832 3.1804 2.8945 3.4174 2.5566 3.5573C2.2187 3.6972 1.847 3.7339 1.4883 3.6625C1.1296 3.5912 0.8002 3.4151 0.541601 3.1565C0.283001 2.8979 0.106901 2.5684 0.0354996 2.2098C-0.035799 1.8511 0.000801086 1.4793 0.1408 1.1415C0.280701 0.8036 0.5177 0.514797 0.8218 0.311699C1.1258 0.108498 1.4833 0 1.849 0C2.3394 0 2.8097 0.194897 3.1564 0.541599C3.5032 0.888397 3.698 1.3587 3.698 1.849" transform="translate(20.893 34.5959)" id="Shape" fill="#EFBC3F" stroke="none" />
  </g>
</svg>