<svg xmlns="http://www.w3.org/2000/svg" viewBox="0 0 666 631" width="666" height="631">
	<defs>
		<linearGradient id="grd1" gradientUnits="userSpaceOnUse"  x1="323.878" y1="95.225" x2="390.764" y2="95.225">
			<stop offset="0" stop-color="#ffbe67"  />
			<stop offset="1" stop-color="#b68156"  />
		</linearGradient>
		<linearGradient id="grd2" gradientUnits="userSpaceOnUse"  x1="378.545" y1="451.27" x2="387.172" y2="451.27">
			<stop offset="0" stop-color="#ffffff"  />
			<stop offset="1" stop-color="#adffff"  />
		</linearGradient>
		<linearGradient id="grd3" gradientUnits="userSpaceOnUse"  x1="375.927" y1="182.873" x2="386.628" y2="182.873">
			<stop offset="0" stop-color="#ffffff"  />
			<stop offset="1" stop-color="#adffff"  />
		</linearGradient>
		<linearGradient id="grd4" gradientUnits="userSpaceOnUse"  x1="299.29" y1="287.443" x2="386.725" y2="287.443">
			<stop offset="0" stop-color="#002e7c"  />
			<stop offset="0.045" stop-color="#143d7a"  />
			<stop offset="1" stop-color="#006269"  />
		</linearGradient>
		<linearGradient id="grd5" gradientUnits="userSpaceOnUse"  x1="338.336" y1="298.224" x2="386.376" y2="298.224">
			<stop offset="0" stop-color="#002e7c"  />
			<stop offset="0.045" stop-color="#143d7a"  />
			<stop offset="1" stop-color="#006269"  />
		</linearGradient>
		<linearGradient id="grd6" gradientUnits="userSpaceOnUse"  x1="365.008" y1="449.991" x2="385.932" y2="449.991">
			<stop offset="0" stop-color="#9a2600"  />
			<stop offset="1" stop-color="#ff3c49"  />
		</linearGradient>
		<linearGradient id="grd7" gradientUnits="userSpaceOnUse"  x1="360.855" y1="475.822" x2="385.284" y2="475.822">
			<stop offset="0" stop-color="#ffffff"  />
			<stop offset="1" stop-color="#adffff"  />
		</linearGradient>
		<linearGradient id="grd8" gradientUnits="userSpaceOnUse"  x1="368.667" y1="378.24" x2="384.352" y2="378.24">
			<stop offset="0" stop-color="#ffbe67"  />
			<stop offset="1" stop-color="#b68156"  />
		</linearGradient>
		<linearGradient id="grd9" gradientUnits="userSpaceOnUse"  x1="369.794" y1="420.644" x2="385.762" y2="420.644">
			<stop offset="0" stop-color="#ffffff"  />
			<stop offset="1" stop-color="#adffff"  />
		</linearGradient>
		<linearGradient id="grd10" gradientUnits="userSpaceOnUse"  x1="371.545" y1="219.704" x2="381.771" y2="219.704">
			<stop offset="0" stop-color="#ffffff"  />
			<stop offset="1" stop-color="#adffff"  />
		</linearGradient>
		<linearGradient id="grd11" gradientUnits="userSpaceOnUse"  x1="327.845" y1="102.846" x2="380.957" y2="102.846">
			<stop offset="0" stop-color="#d18b4f"  />
			<stop offset="1" stop-color="#9a6444"  />
		</linearGradient>
		<linearGradient id="grd12" gradientUnits="userSpaceOnUse"  x1="301.351" y1="186.976" x2="377.88" y2="186.976">
			<stop offset="0" stop-color="#9a2600"  />
			<stop offset="1" stop-color="#ff3c49"  />
		</linearGradient>
		<linearGradient id="grd13" gradientUnits="userSpaceOnUse"  x1="356.007" y1="375.398" x2="376.751" y2="375.398">
			<stop offset="0" stop-color="#d18b4f"  />
			<stop offset="1" stop-color="#9a6444"  />
		</linearGradient>
		<linearGradient id="grd14" gradientUnits="userSpaceOnUse"  x1="366.06" y1="121.194" x2="372.029" y2="121.194">
			<stop offset="0" stop-color="#002e7c"  />
			<stop offset="0.045" stop-color="#143d7a"  />
			<stop offset="1" stop-color="#006269"  />
		</linearGradient>
		<linearGradient id="grd15" gradientUnits="userSpaceOnUse"  x1="359.91" y1="454.094" x2="370.32" y2="454.094">
			<stop offset="0" stop-color="#ffffff"  />
			<stop offset="1" stop-color="#adffff"  />
		</linearGradient>
		<linearGradient id="grd16" gradientUnits="userSpaceOnUse"  x1="337.218" y1="119.65" x2="370.539" y2="119.65">
			<stop offset="0" stop-color="#ffbe67"  />
			<stop offset="1" stop-color="#b68156"  />
		</linearGradient>
		<linearGradient id="grd17" gradientUnits="userSpaceOnUse"  x1="302.699" y1="185.831" x2="365.678" y2="185.831">
			<stop offset="0" stop-color="#f9712d"  />
			<stop offset="1" stop-color="#ff3c49"  />
		</linearGradient>
		<linearGradient id="grd18" gradientUnits="userSpaceOnUse"  x1="354.524" y1="95.673" x2="362.919" y2="95.673">
			<stop offset="0" stop-color="#002e7c"  />
			<stop offset="1" stop-color="#006269"  />
		</linearGradient>
		<linearGradient id="grd19" gradientUnits="userSpaceOnUse"  x1="338.353" y1="135.645" x2="358.825" y2="135.645">
			<stop offset="0" stop-color="#d18b4f"  />
			<stop offset="1" stop-color="#9a6444"  />
		</linearGradient>
		<linearGradient id="grd20" gradientUnits="userSpaceOnUse"  x1="295.517" y1="30.952" x2="340.895" y2="30.952">
			<stop offset="0" stop-color="#f9712d"  />
			<stop offset="1" stop-color="#ff3c49"  />
		</linearGradient>
		<linearGradient id="grd21" gradientUnits="userSpaceOnUse"  x1="289.167" y1="97.208" x2="336.835" y2="97.208">
			<stop offset="0" stop-color="#ffbe67"  />
			<stop offset="1" stop-color="#b68156"  />
		</linearGradient>
		<linearGradient id="grd22" gradientUnits="userSpaceOnUse"  x1="314.282" y1="146.939" x2="332.843" y2="146.939">
			<stop offset="0" stop-color="#ffffff"  />
			<stop offset="1" stop-color="#adffff"  />
		</linearGradient>
		<linearGradient id="grd23" gradientUnits="userSpaceOnUse"  x1="310.823" y1="372.721" x2="327.026" y2="372.721">
			<stop offset="0" stop-color="#ffbe67"  />
			<stop offset="1" stop-color="#b68156"  />
		</linearGradient>
		<linearGradient id="grd24" gradientUnits="userSpaceOnUse"  x1="292.408" y1="444.4" x2="322.968" y2="444.4">
			<stop offset="0" stop-color="#9a2600"  />
			<stop offset="1" stop-color="#ff3c49"  />
		</linearGradient>
		<linearGradient id="grd25" gradientUnits="userSpaceOnUse"  x1="303.518" y1="416.844" x2="320.219" y2="416.844">
			<stop offset="0" stop-color="#ffffff"  />
			<stop offset="1" stop-color="#adffff"  />
		</linearGradient>
		<linearGradient id="grd26" gradientUnits="userSpaceOnUse"  x1="309.01" y1="444.054" x2="318.779" y2="444.054">
			<stop offset="0" stop-color="#ffffff"  />
			<stop offset="1" stop-color="#adffff"  />
		</linearGradient>
		<linearGradient id="grd27" gradientUnits="userSpaceOnUse"  x1="280.356" y1="109.483" x2="317.916" y2="109.483">
			<stop offset="0" stop-color="#d18b4f"  />
			<stop offset="1" stop-color="#9a6444"  />
		</linearGradient>
		<linearGradient id="grd28" gradientUnits="userSpaceOnUse"  x1="300.97" y1="199.617" x2="314.613" y2="199.617">
			<stop offset="0" stop-color="#ffffff"  />
			<stop offset="1" stop-color="#adffff"  />
		</linearGradient>
		<linearGradient id="grd29" gradientUnits="userSpaceOnUse"  x1="293.862" y1="469.122" x2="313.907" y2="469.122">
			<stop offset="0" stop-color="#ffffff"  />
			<stop offset="1" stop-color="#adffff"  />
		</linearGradient>
		<linearGradient id="grd30" gradientUnits="userSpaceOnUse"  x1="299.337" y1="373.095" x2="315.118" y2="373.095">
			<stop offset="0" stop-color="#d18b4f"  />
			<stop offset="1" stop-color="#9a6444"  />
		</linearGradient>
		<linearGradient id="grd31" gradientUnits="userSpaceOnUse"  x1="294.95" y1="267.181" x2="310.281" y2="267.181">
			<stop offset="0" stop-color="#002e7c"  />
			<stop offset="0.045" stop-color="#143d7a"  />
			<stop offset="1" stop-color="#006269"  />
		</linearGradient>
		<linearGradient id="grd32" gradientUnits="userSpaceOnUse"  x1="295.416" y1="316.798" x2="302.545" y2="316.798">
			<stop offset="0" stop-color="#002e7c"  />
			<stop offset="0.045" stop-color="#143d7a"  />
			<stop offset="1" stop-color="#006269"  />
		</linearGradient>
		<linearGradient id="grd33" gradientUnits="userSpaceOnUse"  x1="364.417" y1="532.565" x2="388.872" y2="532.565">
			<stop offset="0" stop-color="#ffffff"  />
			<stop offset="1" stop-color="#adffff"  />
		</linearGradient>
		<linearGradient id="grd34" gradientUnits="userSpaceOnUse"  x1="353.64" y1="513.895" x2="387.786" y2="513.895">
			<stop offset="0" stop-color="#9a2600"  />
			<stop offset="1" stop-color="#ff3c49"  />
		</linearGradient>
		<linearGradient id="grd35" gradientUnits="userSpaceOnUse"  x1="355.173" y1="507.813" x2="379.058" y2="507.813">
			<stop offset="0" stop-color="#002e7c"  />
			<stop offset="0.045" stop-color="#143d7a"  />
			<stop offset="1" stop-color="#006269"  />
		</linearGradient>
		<linearGradient id="grd36" gradientUnits="userSpaceOnUse"  x1="340.691" y1="487.939" x2="374.255" y2="487.939">
			<stop offset="0" stop-color="#ffffff"  />
			<stop offset="1" stop-color="#adffff"  />
		</linearGradient>
		<linearGradient id="grd37" gradientUnits="userSpaceOnUse"  x1="316.818" y1="440.178" x2="356.849" y2="440.178">
			<stop offset="0" stop-color="#f68d71"  />
			<stop offset="1" stop-color="#f6b27d"  />
		</linearGradient>
		<linearGradient id="grd38" gradientUnits="userSpaceOnUse"  x1="301.001" y1="444.011" x2="351.095" y2="444.011">
			<stop offset="0" stop-color="#f6b27d"  />
			<stop offset="1" stop-color="#f6e3d1"  />
		</linearGradient>
		<linearGradient id="grd39" gradientUnits="userSpaceOnUse"  x1="182.14" y1="367.449" x2="325.035" y2="367.449">
			<stop offset="0" stop-color="#00bf7c"  />
			<stop offset="1" stop-color="#00c5b8"  />
		</linearGradient>
		<linearGradient id="grd40" gradientUnits="userSpaceOnUse"  x1="212.74" y1="273.582" x2="288.133" y2="273.582">
			<stop offset="0" stop-color="#9a2600"  />
			<stop offset="1" stop-color="#ff3c49"  />
		</linearGradient>
		<linearGradient id="grd41" gradientUnits="userSpaceOnUse"  x1="208.478" y1="381.933" x2="250.874" y2="381.933">
			<stop offset="0" stop-color="#00697c"  />
			<stop offset="1" stop-color="#00c5b8"  />
		</linearGradient>
		<linearGradient id="grd42" gradientUnits="userSpaceOnUse"  x1="192.466" y1="272.602" x2="244.221" y2="272.602">
			<stop offset="0" stop-color="#ff3c49"  />
			<stop offset="1" stop-color="#f9712d"  />
		</linearGradient>
		<linearGradient id="grd43" gradientUnits="userSpaceOnUse"  x1="218.38" y1="399.892" x2="227.131" y2="399.892">
			<stop offset="0" stop-color="#002e7c"  />
			<stop offset="1" stop-color="#00c5b8"  />
		</linearGradient>
		<linearGradient id="grd44" gradientUnits="userSpaceOnUse"  x1="161.544" y1="438.314" x2="222.48" y2="438.314">
			<stop offset="0" stop-color="#f68d71"  />
			<stop offset="1" stop-color="#f6b27d"  />
		</linearGradient>
		<linearGradient id="grd45" gradientUnits="userSpaceOnUse"  x1="171.867" y1="229.628" x2="221.089" y2="229.628">
			<stop offset="0" stop-color="#9a2600"  />
			<stop offset="1" stop-color="#ff3c49"  />
		</linearGradient>
		<linearGradient id="grd46" gradientUnits="userSpaceOnUse"  x1="131.136" y1="291.36" x2="212.286" y2="291.36">
			<stop offset="0" stop-color="#f68d71"  />
			<stop offset="1" stop-color="#f6b27d"  />
		</linearGradient>
		<linearGradient id="grd47" gradientUnits="userSpaceOnUse"  x1="148.676" y1="283.417" x2="207.57" y2="283.417">
			<stop offset="0" stop-color="#f6b27d"  />
			<stop offset="1" stop-color="#f6e3d1"  />
		</linearGradient>
		<linearGradient id="grd48" gradientUnits="userSpaceOnUse"  x1="196.609" y1="205.734" x2="205.949" y2="205.734">
			<stop offset="0" stop-color="#f68d71"  />
			<stop offset="1" stop-color="#f6b27d"  />
		</linearGradient>
		<linearGradient id="grd49" gradientUnits="userSpaceOnUse"  x1="150.692" y1="187.344" x2="200.917" y2="187.344">
			<stop offset="0" stop-color="#002e7c"  />
			<stop offset="1" stop-color="#006269"  />
		</linearGradient>
		<linearGradient id="grd50" gradientUnits="userSpaceOnUse"  x1="161.135" y1="203.279" x2="198.647" y2="203.279">
			<stop offset="0" stop-color="#f6b27d"  />
			<stop offset="1" stop-color="#f6e3d1"  />
		</linearGradient>
		<linearGradient id="grd51" gradientUnits="userSpaceOnUse"  x1="152.273" y1="435.7" x2="202.173" y2="435.7">
			<stop offset="0" stop-color="#f6b27d"  />
			<stop offset="1" stop-color="#f6e3d1"  />
		</linearGradient>
		<linearGradient id="grd52" gradientUnits="userSpaceOnUse"  x1="175.481" y1="247.236" x2="190.002" y2="247.236">
			<stop offset="0" stop-color="#9a2600"  />
			<stop offset="1" stop-color="#ff3c49"  />
		</linearGradient>
		<linearGradient id="grd53" gradientUnits="userSpaceOnUse"  x1="62.765" y1="246.874" x2="188.236" y2="246.874">
			<stop offset="0" stop-color="#f6b27d"  />
			<stop offset="1" stop-color="#f6e3d1"  />
		</linearGradient>
		<linearGradient id="grd54" gradientUnits="userSpaceOnUse"  x1="155.871" y1="509.688" x2="172.677" y2="509.688">
			<stop offset="0" stop-color="#ffffff"  />
			<stop offset="1" stop-color="#adffff"  />
		</linearGradient>
		<linearGradient id="grd55" gradientUnits="userSpaceOnUse"  x1="116.246" y1="519.825" x2="166.143" y2="519.825">
			<stop offset="0" stop-color="#9a2600"  />
			<stop offset="1" stop-color="#ff3c49"  />
		</linearGradient>
		<linearGradient id="grd56" gradientUnits="userSpaceOnUse"  x1="151.884" y1="499.719" x2="161.544" y2="499.719">
			<stop offset="0" stop-color="#ffffff"  />
			<stop offset="1" stop-color="#adffff"  />
		</linearGradient>
		<linearGradient id="grd57" gradientUnits="userSpaceOnUse"  x1="109.666" y1="519.953" x2="154.315" y2="519.953">
			<stop offset="0" stop-color="#ffffff"  />
			<stop offset="1" stop-color="#adffff"  />
		</linearGradient>
		<linearGradient id="grd58" gradientUnits="userSpaceOnUse"  x1="119.471" y1="499.248" x2="152.938" y2="499.248">
			<stop offset="0" stop-color="#002e7c"  />
			<stop offset="0.045" stop-color="#143d7a"  />
			<stop offset="1" stop-color="#006269"  />
		</linearGradient>
		<linearGradient id="grd59" gradientUnits="userSpaceOnUse"  x1="141.887" y1="292.398" x2="148.435" y2="292.398">
			<stop offset="0" stop-color="#f9712d"  />
			<stop offset="1" stop-color="#ff3c49"  />
		</linearGradient>
		<linearGradient id="grd60" gradientUnits="userSpaceOnUse"  x1="138.303" y1="289.515" x2="148.287" y2="289.515">
			<stop offset="0" stop-color="#002e7c"  />
			<stop offset="0.045" stop-color="#143d7a"  />
			<stop offset="1" stop-color="#006269"  />
		</linearGradient>
		<linearGradient id="grd61" gradientUnits="userSpaceOnUse"  x1="142.339" y1="295.418" x2="142.743" y2="295.418">
			<stop offset="0" stop-color="#f9712d"  />
			<stop offset="1" stop-color="#ff3c49"  />
		</linearGradient>
		<linearGradient id="grd62" gradientUnits="userSpaceOnUse"  x1="107.592" y1="269.872" x2="139.13" y2="269.872">
			<stop offset="0" stop-color="#002e7c"  />
			<stop offset="0.045" stop-color="#143d7a"  />
			<stop offset="1" stop-color="#006269"  />
		</linearGradient>
		<linearGradient id="grd63" gradientUnits="userSpaceOnUse"  x1="88.114" y1="225.273" x2="122.923" y2="225.273">
			<stop offset="0" stop-color="#002e7c"  />
			<stop offset="0.045" stop-color="#143d7a"  />
			<stop offset="1" stop-color="#006269"  />
		</linearGradient>
		<linearGradient id="grd64" gradientUnits="userSpaceOnUse"  x1="84.359" y1="260.946" x2="190.233" y2="260.946">
			<stop offset="0" stop-color="#f68d71"  />
			<stop offset="1" stop-color="#f6b27d"  />
		</linearGradient>
		<linearGradient id="grd65" gradientUnits="userSpaceOnUse"  x1="415.141" y1="384.385" x2="440.973" y2="384.385">
			<stop offset="0" stop-color="#545656"  />
			<stop offset="1" stop-color="#717776"  />
		</linearGradient>
		<linearGradient id="grd66" gradientUnits="userSpaceOnUse"  x1="483.37" y1="391.528" x2="531.904" y2="391.528">
			<stop offset="0" stop-color="#002e7c"  />
			<stop offset="0.045" stop-color="#143d7a"  />
			<stop offset="1" stop-color="#006269"  />
		</linearGradient>
		<linearGradient id="grd67" gradientUnits="userSpaceOnUse"  x1="431.85" y1="502.755" x2="490.062" y2="502.755">
			<stop offset="0" stop-color="#f68d71"  />
			<stop offset="1" stop-color="#f6b27d"  />
		</linearGradient>
		<linearGradient id="grd68" gradientUnits="userSpaceOnUse"  x1="462.182" y1="557.509" x2="482.177" y2="557.509">
			<stop offset="0" stop-color="#ffffff"  />
			<stop offset="1" stop-color="#adffff"  />
		</linearGradient>
		<linearGradient id="grd69" gradientUnits="userSpaceOnUse"  x1="432.413" y1="548.495" x2="481.527" y2="548.495">
			<stop offset="0" stop-color="#002e7c"  />
			<stop offset="0.045" stop-color="#143d7a"  />
			<stop offset="1" stop-color="#006269"  />
		</linearGradient>
		<linearGradient id="grd70" gradientUnits="userSpaceOnUse"  x1="437.838" y1="390.927" x2="478.056" y2="390.927">
			<stop offset="0" stop-color="#f6b27d"  />
			<stop offset="1" stop-color="#f6e3d1"  />
		</linearGradient>
		<linearGradient id="grd71" gradientUnits="userSpaceOnUse"  x1="460.851" y1="403.854" x2="475.014" y2="403.854">
			<stop offset="0" stop-color="#f6b27d"  />
			<stop offset="1" stop-color="#f6e3d1"  />
		</linearGradient>
		<linearGradient id="grd72" gradientUnits="userSpaceOnUse"  x1="433.829" y1="358.991" x2="472.973" y2="358.991">
			<stop offset="0" stop-color="#002e7c"  />
			<stop offset="1" stop-color="#006269"  />
		</linearGradient>
		<linearGradient id="grd73" gradientUnits="userSpaceOnUse"  x1="436.626" y1="514.422" x2="474.72" y2="514.422">
			<stop offset="0" stop-color="#f6b27d"  />
			<stop offset="1" stop-color="#f6e3d1"  />
		</linearGradient>
		<linearGradient id="grd74" gradientUnits="userSpaceOnUse"  x1="451.123" y1="390.172" x2="465.474" y2="390.172">
			<stop offset="0" stop-color="#f68d71"  />
			<stop offset="1" stop-color="#f6b27d"  />
		</linearGradient>
		<linearGradient id="grd75" gradientUnits="userSpaceOnUse"  x1="458.445" y1="396.637" x2="464.536" y2="396.637">
			<stop offset="0" stop-color="#f6b27d"  />
			<stop offset="1" stop-color="#f6e3d1"  />
		</linearGradient>
		<linearGradient id="grd76" gradientUnits="userSpaceOnUse"  x1="396.36" y1="427.1" x2="461.364" y2="427.1">
			<stop offset="0" stop-color="#f9712d"  />
			<stop offset="1" stop-color="#ff3c49"  />
		</linearGradient>
		<linearGradient id="grd77" gradientUnits="userSpaceOnUse"  x1="430.14" y1="555.928" x2="448.875" y2="555.928">
			<stop offset="0" stop-color="#ffffff"  />
			<stop offset="1" stop-color="#adffff"  />
		</linearGradient>
		<linearGradient id="grd78" gradientUnits="userSpaceOnUse"  x1="374.905" y1="508.113" x2="448.5" y2="508.113">
			<stop offset="0" stop-color="#f6b27d"  />
			<stop offset="1" stop-color="#f6e3d1"  />
		</linearGradient>
		<linearGradient id="grd79" gradientUnits="userSpaceOnUse"  x1="411.157" y1="349.115" x2="443.399" y2="349.115">
			<stop offset="0" stop-color="#002e7c"  />
			<stop offset="1" stop-color="#006269"  />
		</linearGradient>
		<linearGradient id="grd80" gradientUnits="userSpaceOnUse"  x1="393.62" y1="417.337" x2="436.129" y2="417.337">
			<stop offset="0" stop-color="#f6b27d"  />
			<stop offset="1" stop-color="#f6e3d1"  />
		</linearGradient>
		<linearGradient id="grd81" gradientUnits="userSpaceOnUse"  x1="398.259" y1="574.997" x2="433.761" y2="574.997">
			<stop offset="0" stop-color="#ffffff"  />
			<stop offset="1" stop-color="#adffff"  />
		</linearGradient>
		<linearGradient id="grd82" gradientUnits="userSpaceOnUse"  x1="364.986" y1="446.153" x2="433.219" y2="446.153">
			<stop offset="0" stop-color="#9a2600"  />
			<stop offset="1" stop-color="#ff3c49"  />
		</linearGradient>
		<linearGradient id="grd83" gradientUnits="userSpaceOnUse"  x1="379.46" y1="562.125" x2="429.683" y2="562.125">
			<stop offset="0" stop-color="#002e7c"  />
			<stop offset="0.045" stop-color="#143d7a"  />
			<stop offset="1" stop-color="#006269"  />
		</linearGradient>
		<linearGradient id="grd84" gradientUnits="userSpaceOnUse"  x1="368.985" y1="492.354" x2="427.295" y2="492.354">
			<stop offset="0" stop-color="#f68d71"  />
			<stop offset="1" stop-color="#f6b27d"  />
		</linearGradient>
		<linearGradient id="grd85" gradientUnits="userSpaceOnUse"  x1="408.751" y1="421.704" x2="423.18" y2="421.704">
			<stop offset="0" stop-color="#f68d71"  />
			<stop offset="1" stop-color="#f6b27d"  />
		</linearGradient>
		<linearGradient id="grd86" gradientUnits="userSpaceOnUse"  x1="376.82" y1="414.783" x2="421.515" y2="414.783">
			<stop offset="0" stop-color="#f6b27d"  />
			<stop offset="1" stop-color="#f6e3d1"  />
		</linearGradient>
		<linearGradient id="grd87" gradientUnits="userSpaceOnUse"  x1="404.144" y1="383.261" x2="418.376" y2="383.261">
			<stop offset="0" stop-color="#f68d71"  />
			<stop offset="1" stop-color="#f6b27d"  />
		</linearGradient>
		<linearGradient id="grd88" gradientUnits="userSpaceOnUse"  x1="375.936" y1="422.065" x2="407.915" y2="422.065">
			<stop offset="0" stop-color="#f68d71"  />
			<stop offset="1" stop-color="#f6b27d"  />
		</linearGradient>
		<linearGradient id="grd89" gradientUnits="userSpaceOnUse"  x1="376.981" y1="570.602" x2="388.126" y2="570.602">
			<stop offset="0" stop-color="#ffffff"  />
			<stop offset="1" stop-color="#adffff"  />
		</linearGradient>
		<linearGradient id="grd90" gradientUnits="userSpaceOnUse"  x1="359.424" y1="483.602" x2="387.188" y2="483.602">
			<stop offset="0" stop-color="#00bf7c"  />
			<stop offset="1" stop-color="#00c5b8"  />
		</linearGradient>
		<linearGradient id="grd91" gradientUnits="userSpaceOnUse"  x1="320.877" y1="384.73" x2="379.067" y2="384.73">
			<stop offset="0" stop-color="#002e7c"  />
			<stop offset="0.045" stop-color="#143d7a"  />
			<stop offset="1" stop-color="#006269"  />
		</linearGradient>
		<linearGradient id="grd92" gradientUnits="userSpaceOnUse"  x1="298.521" y1="382.243" x2="353.959" y2="382.243">
			<stop offset="0" stop-color="#545656"  />
			<stop offset="1" stop-color="#717776"  />
		</linearGradient>
		<linearGradient id="grd93" gradientUnits="userSpaceOnUse"  x1="535.443" y1="390.079" x2="540.967" y2="390.079">
			<stop offset="0" stop-color="#545656"  />
			<stop offset="1" stop-color="#717776"  />
		</linearGradient>
		<linearGradient id="grd94" gradientUnits="userSpaceOnUse"  x1="471.865" y1="388.077" x2="506.022" y2="388.077">
			<stop offset="0" stop-color="#545656"  />
			<stop offset="1" stop-color="#717776"  />
		</linearGradient>
		<linearGradient id="grd95" gradientUnits="userSpaceOnUse"  x1="383.63" y1="383.625" x2="410.039" y2="383.625">
			<stop offset="0" stop-color="#545656"  />
			<stop offset="1" stop-color="#717776"  />
		</linearGradient>
		<linearGradient id="grd96" gradientUnits="userSpaceOnUse"  x1="509.615" y1="391.523" x2="535.938" y2="391.523">
			<stop offset="0" stop-color="#15366a"  />
			<stop offset="1" stop-color="#717776"  />
		</linearGradient>
		<linearGradient id="grd97" gradientUnits="userSpaceOnUse"  x1="352.326" y1="384.725" x2="383.921" y2="384.725">
			<stop offset="0" stop-color="#15366a"  />
			<stop offset="1" stop-color="#717776"  />
		</linearGradient>
		<linearGradient id="grd98" gradientUnits="userSpaceOnUse"  x1="296.646" y1="381.748" x2="301.125" y2="381.748">
			<stop offset="0" stop-color="#15366a"  />
			<stop offset="1" stop-color="#717776"  />
		</linearGradient>
		<linearGradient id="grd99" gradientUnits="userSpaceOnUse"  x1="404.46" y1="402.91" x2="436.28" y2="402.91">
			<stop offset="0" stop-color="#f68d71"  />
			<stop offset="1" stop-color="#f6b27d"  />
		</linearGradient>
	</defs>
	<style>
		tspan { white-space:pre }
		.shp0 { opacity: 0.502;fill: #9ffbea } 
		.shp1 { fill: #eaeaea } 
		.shp2 { fill: url(#grd1) } 
		.shp3 { fill: url(#grd2) } 
		.shp4 { fill: url(#grd3) } 
		.shp5 { fill: url(#grd4) } 
		.shp6 { fill: url(#grd5) } 
		.shp7 { fill: url(#grd6) } 
		.shp8 { fill: url(#grd7) } 
		.shp9 { fill: url(#grd8) } 
		.shp10 { fill: url(#grd9) } 
		.shp11 { fill: url(#grd10) } 
		.shp12 { fill: url(#grd11) } 
		.shp13 { fill: url(#grd12) } 
		.shp14 { fill: url(#grd13) } 
		.shp15 { fill: url(#grd14) } 
		.shp16 { fill: url(#grd15) } 
		.shp17 { fill: url(#grd16) } 
		.shp18 { fill: url(#grd17) } 
		.shp19 { fill: url(#grd18) } 
		.shp20 { fill: url(#grd19) } 
		.shp21 { fill: url(#grd20) } 
		.shp22 { fill: url(#grd21) } 
		.shp23 { fill: url(#grd22) } 
		.shp24 { fill: url(#grd23) } 
		.shp25 { fill: url(#grd24) } 
		.shp26 { fill: url(#grd25) } 
		.shp27 { fill: url(#grd26) } 
		.shp28 { fill: url(#grd27) } 
		.shp29 { fill: url(#grd28) } 
		.shp30 { fill: url(#grd29) } 
		.shp31 { fill: url(#grd30) } 
		.shp32 { fill: url(#grd31) } 
		.shp33 { fill: url(#grd32) } 
		.shp34 { fill: url(#grd33) } 
		.shp35 { fill: url(#grd34) } 
		.shp36 { fill: url(#grd35) } 
		.shp37 { fill: url(#grd36) } 
		.shp38 { fill: url(#grd37) } 
		.shp39 { fill: url(#grd38) } 
		.shp40 { fill: url(#grd39) } 
		.shp41 { fill: url(#grd40) } 
		.shp42 { fill: url(#grd41) } 
		.shp43 { fill: url(#grd42) } 
		.shp44 { fill: url(#grd43) } 
		.shp45 { fill: url(#grd44) } 
		.shp46 { fill: url(#grd45) } 
		.shp47 { fill: url(#grd46) } 
		.shp48 { fill: url(#grd47) } 
		.shp49 { fill: url(#grd48) } 
		.shp50 { fill: url(#grd49) } 
		.shp51 { fill: url(#grd50) } 
		.shp52 { fill: url(#grd51) } 
		.shp53 { fill: url(#grd52) } 
		.shp54 { fill: url(#grd53) } 
		.shp55 { fill: url(#grd54) } 
		.shp56 { fill: url(#grd55) } 
		.shp57 { fill: url(#grd56) } 
		.shp58 { fill: url(#grd57) } 
		.shp59 { fill: url(#grd58) } 
		.shp60 { fill: url(#grd59) } 
		.shp61 { fill: url(#grd60) } 
		.shp62 { fill: url(#grd61) } 
		.shp63 { fill: url(#grd62) } 
		.shp64 { fill: url(#grd63) } 
		.shp65 { fill: url(#grd64) } 
		.shp66 { fill: url(#grd65) } 
		.shp67 { fill: url(#grd66) } 
		.shp68 { fill: url(#grd67) } 
		.shp69 { fill: url(#grd68) } 
		.shp70 { fill: url(#grd69) } 
		.shp71 { fill: url(#grd70) } 
		.shp72 { fill: url(#grd71) } 
		.shp73 { fill: url(#grd72) } 
		.shp74 { fill: url(#grd73) } 
		.shp75 { fill: url(#grd74) } 
		.shp76 { fill: url(#grd75) } 
		.shp77 { fill: url(#grd76) } 
		.shp78 { fill: url(#grd77) } 
		.shp79 { fill: url(#grd78) } 
		.shp80 { fill: url(#grd79) } 
		.shp81 { fill: url(#grd80) } 
		.shp82 { fill: url(#grd81) } 
		.shp83 { fill: url(#grd82) } 
		.shp84 { fill: url(#grd83) } 
		.shp85 { fill: url(#grd84) } 
		.shp86 { fill: url(#grd85) } 
		.shp87 { fill: url(#grd86) } 
		.shp88 { fill: url(#grd87) } 
		.shp89 { fill: url(#grd88) } 
		.shp90 { fill: url(#grd89) } 
		.shp91 { fill: url(#grd90) } 
		.shp92 { fill: url(#grd91) } 
		.shp93 { fill: url(#grd92) } 
		.shp94 { fill: url(#grd93) } 
		.shp95 { fill: url(#grd94) } 
		.shp96 { fill: url(#grd95) } 
		.shp97 { fill: url(#grd96) } 
		.shp98 { fill: url(#grd97) } 
		.shp99 { fill: url(#grd98) } 
		.shp100 { fill: url(#grd99) } 
	</style>
	<path id="Path 14" class="shp0" d="M588.92 378.5C588.22 420.86 577.41 467.47 542.67 491.75C521.36 506.66 494.45 510.64 468.57 513.1C338.34 525.44 199.2 506.68 94.73 428C76.41 414.2 58.21 396.58 55.62 373.8C53.74 357.34 60.5 341.11 68.59 326.63C84.46 298.24 105.85 273.32 128.16 249.64C182.43 192.11 243.12 140.64 308.75 96.53C333.35 79.98 358.81 64.4 385.5 51.53C388.61 49.41 391.75 47.35 394.98 45.39C406.23 38.6 427.03 29.29 444.95 33.79C466.78 39.28 480.93 59.82 492.34 79.23C546.18 170.74 590.65 272.33 588.92 378.5Z" />
	<path id="Path 16" class="shp1" d="M541.24 564.71C541.24 577.69 439.52 588.21 314.03 588.21C188.54 588.21 86.81 577.69 86.81 564.71C86.81 551.73 188.54 541.2 314.03 541.2C439.52 541.2 541.24 551.73 541.24 564.71Z" />
	<path id="Path 17" class="shp2" d="M337.34 23.78C334.71 22.16 331.88 20.9 328.95 20.03C332.48 25.04 336.48 29.73 340.9 33.98C335.73 30.33 330.19 26.53 323.88 26.1C327.44 29.66 331.28 32.97 335.34 35.99L335.43 35.89C342.52 37.68 347.85 43.62 351.36 50.03C351.8 50.84 352.21 51.64 352.61 52.46C355.42 58.19 357.43 64.31 360.44 69.96C365.79 79.99 374.19 88.38 378.04 99.1C380.89 107 381.03 115.59 380.99 124C380.98 132.3 380.8 140.62 379.9 148.88C379.12 155.84 377.84 162.83 378.55 169.79C380.24 172.04 382.8 173.73 385.55 173.73C384.42 163.36 389.95 153.35 391.21 142.94C392.25 134.28 390.32 125.54 388.4 117.03C386.79 109.91 385.19 102.82 383.57 95.72C382.94 92.92 382.31 90.09 381.2 87.43C378.67 81.29 373.86 76.42 369.6 71.32C364.43 65.13 359.94 58.38 356.24 51.21C354 46.91 352.06 42.48 350.4 37.92C348.77 33.4 347.39 28.73 344.81 24.67C343.58 22.74 342.03 20.98 340.24 19.58C338.22 18.03 335.9 16.96 333.4 16.72C334.71 19.07 336.02 21.42 337.34 23.78Z" />
	<path id="Path 18" class="shp3" d="M385.93 427.58L385.44 427.79C387.13 430.69 386.56 434.37 385.49 437.54C384.43 440.74 382.9 443.84 382.72 447.2C382.56 450.7 383.92 454.11 384.09 457.61C384.36 463.2 381.65 468.39 378.54 473.18C380.13 473.56 381.72 474.02 383.29 474.48C383.95 474.67 384.62 474.86 385.28 475.04C387.54 472.72 387.94 469.09 387.96 465.8C388.03 458.46 387.11 451.13 387.54 443.79C387.86 438.25 388.83 432.17 385.92 427.5C385.92 427.53 385.93 427.55 385.93 427.58Z" />
	<path id="Path 19" class="shp4" d="M376.21 166.3C377.28 169.34 377.2 172.83 376.75 176.09C376.16 180.49 375.03 184.91 375.7 189.3C376.21 192.62 377.74 195.78 377.86 199.14C377.86 199.29 377.88 199.45 377.88 199.6L381.6 199.55C381.56 197.07 381.63 194.57 382.33 192.2C383.22 189.14 385.04 186.46 386.03 183.44C387.02 180.44 387.16 177.15 386.39 174.08L385.81 173.74L385.54 173.74C382.79 173.74 380.24 172.05 378.54 169.8C378.32 169.49 378.12 169.18 377.93 168.87C377.4 168.01 376.98 167.1 376.64 166.15L376.21 166.3Z" />
	<path id="Path 20" class="shp5" d="M332.67 238.55C325.3 240.22 317.64 241.94 310.22 241.26C310.97 246.26 310.67 251.43 309.3 256.31C307.15 264.03 302.46 270.87 300.41 278.64C299.05 283.79 298.9 289.08 299.27 294.4C299.71 300.88 300.92 307.43 301.63 313.92C302.51 322.31 302.53 330.77 302.55 339.2C306.67 339.59 310.89 338.98 315.12 338.43C319.09 337.9 323.08 337.42 327.03 337.88C327.08 337.88 327.11 337.9 327.16 337.9C329.62 338.19 332.67 338.62 334.02 336.55C335.04 334.98 334.39 332.94 333.95 331.13C333.18 328.01 333.15 324.72 333.82 321.57C334.46 318.52 335.78 315.66 336.51 312.62C337.67 307.81 337.36 302.77 338.08 297.88C338.15 297.37 338.23 296.85 338.34 296.34C339.09 292.34 340.47 288.48 341.83 284.64C344.8 276.33 347.75 268.03 350.94 259.82C352.22 256.56 354.15 252.81 357.63 252.47C359.03 259.61 356.01 266.81 355.62 274.08C355.52 275.82 356.23 278.19 357.95 277.99C358.53 277.9 359.01 277.53 359.47 277.19C361.72 275.41 364.11 273.79 366.59 272.31C367.06 272.03 367.61 271.74 368.16 271.86C369.5 272.19 369.11 274.22 368.39 275.41C365.21 280.75 362 286.09 358.81 291.43C358.48 291.98 358.14 292.64 358.38 293.22C358.67 293.96 359.63 294.09 360.41 294.09C362.1 294.07 363.79 293.84 365.43 293.39C366.6 293.07 367.78 292.62 369.01 292.71C370.22 292.8 371.5 293.61 371.62 294.84C371.71 295.56 371.36 296.24 371.04 296.87C369.59 299.77 368.12 302.67 366.67 305.57C366.26 306.39 365.85 307.36 366.23 308.18C366.81 309.41 368.62 309.36 369.66 310.21C370.75 311.08 370.78 312.79 370.17 314.04C369.57 315.3 368.48 316.22 367.49 317.19C365.68 318.96 364.13 320.98 362.89 323.18C361.98 324.77 361.31 326.91 362.54 328.26C363.65 329.44 365.53 329.2 367.15 329.29C370.34 329.47 373.34 331.49 374.73 334.37C375.22 335.36 375.54 336.5 376.38 337.24C377.79 338.5 380.03 338.07 381.7 337.17C383.25 336.33 384.67 335.14 386.37 334.71C387.2 331.4 387.16 327.89 386.22 324.61C385.54 322.19 384.4 319.92 383.63 317.52C381.16 309.91 382.52 301.63 381.62 293.68C381 288.31 379.35 283.07 379.01 277.68C378.6 271.04 380.18 264.48 380.71 257.86C381.26 251.24 380.58 244.06 376.35 238.92L375.68 238.87C375.51 238.96 375.36 239.02 375.19 239.07C374.03 239.52 372.8 239.79 371.55 239.86C370.85 239.91 370.17 239.89 369.47 239.83C366.4 239.52 363.58 238.1 360.65 237.2C357.49 236.22 354.24 235.83 350.96 235.83C344.87 235.83 338.66 237.17 332.67 238.55Z" />
	<path id="Path 21" class="shp6" d="M350.94 259.82C347.75 268.03 344.8 276.33 341.83 284.64C340.47 288.48 339.09 292.34 338.34 296.34C339.17 306.31 347.21 315.26 347.05 325.43C347.02 328.38 346.46 331.83 348.62 333.81C350.35 335.38 353.04 335.22 355.07 336.36C355.4 336.55 355.7 336.76 355.99 336.98C356.8 337.61 357.48 338.36 358.19 339.06C360.79 341.53 364.13 343.17 367.66 343.79C369.61 344.14 371.6 344.18 373.56 343.87C374.98 343.65 376.35 343.26 377.68 342.7C381.12 341.26 384.12 338.75 386.12 335.62C386.22 335.31 386.29 335.02 386.37 334.71C384.67 335.14 383.25 336.33 381.7 337.17C380.03 338.07 377.79 338.5 376.38 337.24C375.54 336.5 375.22 335.36 374.73 334.37C373.34 331.49 370.34 329.47 367.15 329.29C365.53 329.2 363.65 329.44 362.54 328.26C361.31 326.91 361.98 324.77 362.89 323.18C364.13 320.98 365.68 318.96 367.49 317.19C368.48 316.22 369.57 315.3 370.17 314.04C370.78 312.79 370.75 311.08 369.66 310.21C368.62 309.36 366.81 309.41 366.23 308.18C365.85 307.36 366.26 306.39 366.67 305.57C368.12 302.67 369.59 299.77 371.04 296.87C371.36 296.24 371.71 295.56 371.62 294.84C371.5 293.61 370.22 292.8 369.01 292.71C367.78 292.62 366.6 293.07 365.43 293.39C363.79 293.84 362.1 294.07 360.41 294.09C359.63 294.09 358.67 293.96 358.38 293.22C358.14 292.64 358.48 291.98 358.81 291.43C362 286.09 365.21 280.75 368.39 275.41C369.11 274.22 369.5 272.19 368.16 271.86C367.61 271.74 367.06 272.03 366.59 272.31C364.11 273.79 361.72 275.41 359.47 277.19C359.01 277.53 358.53 277.9 357.95 277.99C356.23 278.19 355.52 275.82 355.62 274.08C356.01 266.81 359.03 259.61 357.63 252.47C354.15 252.81 352.22 256.56 350.94 259.82Z" />
	<path id="Path 22" class="shp7" d="M367.95 432.82C368.55 435.14 370.01 437.31 370.75 439.63C372.52 445.15 370.14 451.07 367.75 456.36C365.36 461.65 362.89 467.48 364.51 473.06L364.57 473.25C366.84 472.38 369.37 472.07 371.81 472.16C374.08 472.24 376.33 472.64 378.54 473.18C381.65 468.39 384.36 463.2 384.09 457.61C383.92 454.11 382.56 450.7 382.72 447.2C382.9 443.84 384.43 440.74 385.49 437.54C386.56 434.37 387.13 430.69 385.44 427.79L385.93 427.58C385.93 427.55 385.92 427.53 385.92 427.5C385.85 427.29 385.8 427.09 385.76 426.88C381.09 429.29 375.25 429.32 370.58 426.95L369.79 426.73C368.6 428.43 368.16 430.59 367.95 432.82Z" />
	<path id="Path 23" class="shp8" d="M364.57 473.25C363.23 473.75 361.96 474.44 360.85 475.37C361.31 476.05 361.9 476.65 362.54 477.16C364.97 479.07 368.19 479.73 371.26 479.6C374.35 479.48 377.35 478.59 380.29 477.65C381.87 477.16 383.51 476.6 384.79 475.52C384.98 475.37 385.15 475.21 385.28 475.04C384.62 474.86 383.95 474.67 383.29 474.48C381.72 474.02 380.13 473.56 378.54 473.18C376.33 472.64 374.08 472.24 371.81 472.16C371.54 472.15 371.28 472.15 371.02 472.15C368.83 472.15 366.6 472.47 364.57 473.25Z" />
	<path id="Path 24" class="shp9" d="M373.56 343.87C371.6 344.18 369.61 344.14 367.66 343.79C365.7 356.7 371.24 369.5 374.33 382.26C376.82 392.56 377.73 403.24 376.98 413.82C379.17 413.87 381.38 413.71 383.56 413.37C382.61 401.57 383.73 389.51 384.31 377.6C384.47 374.58 384.57 371.54 384.23 368.52C383.89 365.45 383.07 362.45 382.25 359.46C380.73 353.87 379.19 348.29 377.68 342.7C376.35 343.26 374.98 343.65 373.56 343.87Z" />
	<path id="Path 25" class="shp10" d="M371.09 425.47L370.9 425.47C370.48 425.86 370.12 426.27 369.79 426.73L370.58 426.95C375.25 429.32 381.09 429.29 385.76 426.88C384.6 422.43 383.92 417.93 383.56 413.37C381.38 413.71 379.17 413.87 376.98 413.82C374.73 413.8 372.51 413.58 370.31 413.17C370.83 417.24 371.09 421.36 371.09 425.47Z" />
	<path id="Path 26" class="shp11" d="M377.88 199.6C377.88 207.96 369.44 215.11 370.66 223.45C371.01 225.82 372.13 228 372.9 230.29C373.68 232.56 374.08 235.15 373 237.3C372.57 238.17 371.89 238.97 371.55 239.86C372.8 239.79 374.03 239.52 375.19 239.07C375.36 239.02 375.51 238.96 375.68 238.87C376.16 238.67 376.62 238.38 376.96 237.98C377.61 237.25 377.78 236.21 377.81 235.22C377.97 231.62 376.86 227.9 377.95 224.46C378.66 222.14 380.34 220.19 381.14 217.89C381.89 215.74 381.86 213.42 381.8 211.17C381.74 207.81 381.68 204.44 381.62 201.1C381.6 200.59 381.6 200.06 381.6 199.55L377.88 199.6Z" />
	<path id="Path 27" class="shp12" d="M335.33 36C336.66 36.99 338.01 37.94 339.4 38.86C335.74 37.36 331.78 36.65 327.84 36.75C328.83 39.15 330.92 40.76 333.05 42.35C334.36 43.32 335.73 44.31 336.83 45.47C337.07 45.72 337.29 45.96 337.52 46.23C340.59 50.05 341.01 55.89 345.06 58.64C346.08 59.34 347.28 59.76 348.23 60.53C350.11 62 350.89 64.44 351.57 66.71C354.05 75.01 356.57 83.34 359.59 91.48C360.63 94.31 361.72 97.11 362.92 99.87C363.28 100.77 363.67 101.66 364.06 102.55C365.97 106.83 368.1 111.06 369.73 115.46C370.31 117.05 370.83 118.65 371.26 120.29C371.59 121.5 371.84 122.75 372.03 123.99C372.73 128.75 372.42 133.68 370.43 137.96C371.04 139.52 371.4 141.22 371.72 142.88C372.81 148.47 373.9 154.07 374.98 159.66C375.41 161.85 375.85 164.08 376.64 166.15C376.98 167.1 377.4 168.01 377.93 168.87C378.12 169.18 378.32 169.49 378.54 169.8C377.83 162.84 379.11 155.84 379.89 148.88C380.8 140.63 380.97 132.3 380.98 124.01C381.02 115.6 380.88 107 378.03 99.1C374.18 88.39 365.78 79.99 360.43 69.96C357.43 64.32 355.41 58.19 352.6 52.46C352.21 51.64 351.8 50.84 351.35 50.04C347.84 43.62 342.52 37.69 335.42 35.9L335.33 36Z" />
	<path id="Path 28" class="shp13" d="M366.47 133.17C366.13 133.44 365.78 133.72 365.43 133.99L365.62 134.24C367.68 139.6 366.31 145.61 364.93 151.18C363.33 157.68 361.66 164.32 357.8 169.8C354.92 173.89 350.94 177.1 346.78 179.88C342.45 182.78 337.65 185.46 335.09 190C333.1 193.54 332.76 197.74 332.09 201.75C329.79 215.57 322.4 229.13 310.17 235.95C307.88 237.23 305.28 238.29 302.7 237.9C302.65 237.9 302.6 237.9 302.55 237.88L301.35 238.39C301.81 238.96 302.48 239.4 303.19 239.71C303.69 239.95 304.2 240.12 304.69 240.25C306.52 240.76 308.36 241.09 310.22 241.26C317.64 241.94 325.3 240.22 332.67 238.55C341.88 236.43 351.61 234.4 360.65 237.2C363.58 238.1 366.4 239.52 369.47 239.83C370.17 239.89 370.85 239.91 371.55 239.86C371.89 238.97 372.57 238.17 373 237.3C374.08 235.15 373.68 232.56 372.9 230.29C372.13 228 371.01 225.82 370.66 223.45C369.44 215.11 377.88 207.96 377.88 199.6C377.88 199.45 377.86 199.29 377.86 199.14C377.74 195.78 376.21 192.62 375.7 189.3C375.03 184.91 376.16 180.49 376.75 176.09C377.2 172.83 377.28 169.34 376.21 166.3L376.64 166.15C375.85 164.08 375.41 161.85 374.98 159.66C373.9 154.07 372.81 148.47 371.72 142.88C371.4 141.22 371.04 139.52 370.43 137.96C370.03 136.96 369.54 136 368.84 135.15L368.92 135.05C368.34 134.47 367.69 133.95 367.01 133.51L366.6 133.07C366.55 133.1 366.52 133.14 366.47 133.17Z" />
	<path id="Path 29" class="shp14" d="M356.91 349.52C357.89 353.41 359.78 357.03 360.8 360.9C362.94 368.95 361.19 377.6 363.07 385.72C363.74 388.5 364.79 391.18 365.75 393.87C367.93 400.12 369.45 406.6 370.31 413.17C372.51 413.58 374.73 413.8 376.98 413.82C377.73 403.24 376.82 392.56 374.33 382.26C371.24 369.5 365.7 356.7 367.66 343.79C364.13 343.17 360.79 341.53 358.19 339.06C357.48 338.36 356.8 337.61 355.99 336.98C355.89 341.18 355.89 345.44 356.91 349.52Z" />
	<path id="Path 30" class="shp15" d="M366.42 120C366.11 120.63 365.8 121.33 365.99 122.01C366.2 122.81 366.98 123.31 367.76 123.57C368.55 123.82 369.4 123.91 370.14 124.27C370.32 124.37 370.51 124.49 370.56 124.69C370.63 124.88 370.53 125.1 370.44 125.29C370.24 125.7 370.03 126.09 369.83 126.5L370.68 126.93C371.24 126 371.69 125.02 372.03 123.99C371.84 122.75 371.59 121.5 371.26 120.29C370.83 118.65 370.31 117.05 369.73 115.46C368.39 116.79 367.29 118.35 366.42 120Z" />
	<path id="Path 31" class="shp16" d="M367.66 438.43C367.41 442.46 366.36 446.4 365.34 450.29C363.67 456.6 362.02 462.9 360.34 469.21C360.04 470.4 359.71 471.61 359.85 472.84C359.95 473.75 360.33 474.6 360.85 475.37C361.96 474.44 363.23 473.75 364.57 473.25L364.51 473.06C362.89 467.48 365.36 461.65 367.75 456.36C370.14 451.07 372.52 445.15 370.75 439.63C370.01 437.31 368.55 435.14 367.95 432.82C367.76 434.68 367.76 436.62 367.66 438.43Z" />
	<path id="Path 32" class="shp17" d="M340.83 107.32C337.91 113.18 337.06 119.85 337.14 126.38C337.16 127.46 337.21 128.58 337.72 129.52C338.59 131.14 340.5 131.75 342.4 131.89C342.75 131.92 343.11 131.92 343.45 131.92C348.83 131.82 353.91 129.67 358.82 127.44C355.29 133.49 350.91 139.06 345.86 143.93C346.81 143.88 347.79 143.73 348.69 143.51C354.99 142.01 360.34 138.05 365.43 133.99C365.78 133.72 366.13 133.44 366.47 133.17C366.57 132.95 366.69 132.74 366.79 132.52C367.8 130.51 368.81 128.5 369.83 126.5C370.03 126.09 370.24 125.7 370.44 125.29C370.53 125.1 370.63 124.88 370.56 124.69C370.51 124.49 370.32 124.37 370.14 124.27C369.4 123.91 368.55 123.82 367.76 123.57C366.98 123.31 366.2 122.81 365.99 122.01C365.8 121.33 366.11 120.63 366.42 120C367.29 118.35 368.39 116.79 369.73 115.46C368.1 111.06 365.97 106.83 364.06 102.55C363.67 101.66 363.28 100.77 362.92 99.87C362.05 99.31 361.01 98.95 360 98.68C358.4 98.25 356.73 97.91 355.43 96.88C354.97 96.51 354.54 96 354.51 95.4L354.51 95.37C348.52 97 343.62 101.75 340.83 107.32Z" />
	<path id="Path 33" class="shp18" d="M348.69 143.51C347.79 143.73 346.81 143.88 345.86 143.93C343.74 144.07 341.65 143.69 340.01 142.4C339.34 141.87 338.78 141.21 338.35 140.47C337.72 139.41 337.33 138.2 337.14 136.97L337.23 136.79C337.02 136.67 336.8 136.6 336.58 136.55C335.37 136.28 334.05 136.51 332.95 135.95L332.84 135.9C329.6 145.66 319.64 152.17 315.07 161.23C314.32 162.72 313.72 164.27 313.31 165.92C311.06 175.07 315.54 184.83 313.5 194.02C312.42 198.8 309.61 203.3 309.97 208.18C310.17 211.01 311.43 213.69 311.64 216.52C312.17 224.22 305.02 230.15 302.75 237.51L302.7 237.9C305.28 238.29 307.88 237.23 310.17 235.95C322.4 229.13 329.79 215.57 332.09 201.75C332.76 197.74 333.1 193.54 335.09 190C337.65 185.46 342.45 182.78 346.78 179.88C350.94 177.1 354.92 173.89 357.8 169.8C361.66 164.32 363.33 157.68 364.93 151.18C366.31 145.61 367.68 139.6 365.62 134.24L365.43 133.99C360.34 138.05 354.99 142.01 348.69 143.51Z" />
	<path id="Path 34" class="shp19" d="M355.47 93.66C354.95 94.1 354.49 94.7 354.51 95.37L354.51 95.4C354.54 96 354.97 96.51 355.43 96.88C356.73 97.91 358.4 98.25 360 98.68C361.01 98.95 362.05 99.31 362.92 99.87C361.72 97.11 360.63 94.31 359.59 91.48C358.16 92.14 356.64 92.65 355.47 93.66Z" />
	<path id="Path 35" class="shp20" d="M343.45 131.92C343.11 131.92 342.75 131.92 342.4 131.89C341.59 134.98 340.21 137.91 338.35 140.47C338.78 141.21 339.34 141.87 340.01 142.4C341.65 143.69 343.74 144.07 345.86 143.93C350.91 139.06 355.29 133.49 358.82 127.44C353.91 129.67 348.83 131.82 343.45 131.92Z" />
	<path id="Path 36" class="shp21" d="M295.52 30.88C295.52 38.15 298.72 44.65 303.81 49.07L304.15 49.05C304.15 49.27 304.17 49.49 304.17 49.7C305.63 51.28 307.1 52.89 308.57 54.47C308.82 54.75 309.1 55.04 309.47 55.11C309.79 55.16 310.14 55.02 310.44 54.83C310.46 54.83 310.46 54.82 310.48 54.82C312.34 53.77 313.8 52.09 315.78 51.28C319.11 49.94 323.17 51.35 326.31 49.63C327.28 49.1 328.07 48.3 328.82 47.5C330.35 45.88 331.75 44.17 333.05 42.35C330.92 40.76 328.83 39.15 327.84 36.75C331.78 36.65 335.74 37.36 339.4 38.86C338.01 37.94 336.66 36.99 335.33 36C331.27 32.98 327.44 29.67 323.87 26.1C330.18 26.53 335.73 30.33 340.89 33.98C336.48 29.74 332.47 25.05 328.94 20.03C331.87 20.9 334.7 22.16 337.33 23.78C336.02 21.43 334.7 19.08 333.39 16.72C335.9 16.96 338.22 18.03 340.23 19.59L340.57 19.14C336.46 11.79 328.59 6.83 319.57 6.83C306.28 6.83 295.52 17.59 295.52 30.88Z" />
	<path id="Path 37" class="shp22" d="M328.82 47.5C328.07 48.3 327.28 49.1 326.31 49.63C323.17 51.35 319.11 49.94 315.78 51.28C313.8 52.09 312.34 53.77 310.48 54.82C310.46 54.82 310.46 54.83 310.44 54.83C304.83 70.9 299.2 86.97 292.04 102.4C290.6 105.5 289.07 108.69 288.86 112.1C288.51 117.78 291.87 123.1 296.03 126.99C300.17 130.88 305.16 133.78 309.44 137.54C313.72 141.29 317.42 146.29 317.66 151.97L317.92 152.07C320.3 145.9 322.66 139.65 326.43 134.26C326.65 133.95 326.89 133.63 327.16 133.36C323.08 129.48 318.73 125.9 314.11 122.66C309.16 119.18 303.86 116.03 299.97 111.38C299.24 110.52 298.55 109.53 298.42 108.4C298.33 107.53 298.57 106.68 298.83 105.84C301.68 96.27 304.76 86.79 308.09 77.38C309.97 72.03 312.13 66.43 316.59 62.92C319.06 60.97 322.08 59.83 324.76 58.16C329.58 55.11 333.1 50.4 336.49 45.81L336.83 45.47C335.73 44.31 334.36 43.32 333.05 42.35C331.75 44.17 330.35 45.88 328.82 47.5Z" />
	<path id="Path 38" class="shp23" d="M328.36 132.67C327.9 132.74 327.5 133.02 327.16 133.36C326.89 133.63 326.65 133.95 326.43 134.26C322.66 139.65 320.3 145.9 317.92 152.07C316.76 155.04 315.6 157.99 314.28 160.84L315.07 161.23C319.64 152.17 329.6 145.66 332.84 135.9C331.27 135 330.36 132.64 328.69 132.64C328.58 132.64 328.47 132.65 328.36 132.67Z" />
	<path id="Path 39" class="shp24" d="M315.12 338.43C314.09 347.91 310.82 357.08 310.2 366.6C309.32 380.14 313.85 394.08 310.19 407.15L310.14 407.76C313.11 407.98 316.11 407.85 319.04 407.35C319.4 399.93 320.17 392.47 320 385.07C319.84 378.43 318.92 371.83 318.48 365.21C318.26 361.9 318.15 358.56 318.72 355.28C319.83 348.9 323.36 343.26 327.03 337.88C325.91 337.75 324.79 337.7 323.66 337.7C320.82 337.7 317.97 338.05 315.12 338.43Z" />
	<path id="Path 40" class="shp25" d="M307.97 420.79C306.49 420.95 305.09 421.42 303.7 422.02C302.89 422.4 302.08 422.79 301.28 423.2C300.43 423.63 299.52 424.1 299.08 424.94C298.74 425.59 298.72 426.37 298.71 427.12C298.67 431.17 298.64 435.21 298.61 439.25L298.66 439.25C298.4 442.46 297.22 445.6 295.96 448.58C294.44 452.13 292.79 455.7 292.29 459.54C291.92 462.45 292.34 465.61 293.86 468.05C294.63 467.21 295.72 466.68 296.85 466.45C298.19 466.15 299.61 466.22 300.99 466.31C304.76 466.51 308.53 466.72 312.3 466.92C312.85 466.96 313.39 466.97 313.91 466.87C315.08 465.75 316.17 464.53 316.86 463.08C318.5 459.6 317.54 455.53 317.63 451.67C317.69 448.94 318.31 446.21 319.47 443.7C320.89 440.62 323.14 437.68 323.05 434.29C323 431.88 321.82 429.82 320.2 428.01C319.04 426.7 317.64 425.54 316.28 424.46L315.97 424.85C317.95 426.29 319.03 429.1 318.89 431.66C318.73 435.02 317.1 438.12 315.89 441.27C314.23 445.6 313.33 450.24 313.26 454.88C313.22 456.64 313.31 458.43 312.85 460.11C312.37 461.82 311.23 463.46 309.54 463.94C310.26 461.36 310.48 458.65 310.19 456C309.81 452.66 308.65 449.37 308.86 446.01C309.23 439.59 314.5 434.3 315.12 427.89C315.24 426.64 315.15 425.31 314.67 424.17C314.55 423.88 314.42 423.61 314.25 423.35C313.12 421.57 310.93 420.75 308.8 420.75C308.52 420.75 308.24 420.77 307.97 420.79Z" />
	<path id="Path 41" class="shp26" d="M303.81 405.68C304.22 410.95 304.11 416.27 303.52 421.54L303.7 422.02C305.09 421.42 306.49 420.95 307.97 420.79C310.34 420.55 312.97 421.34 314.25 423.35C314.42 423.61 314.55 423.88 314.67 424.17C315.15 424.32 315.58 424.56 315.97 424.85L316.28 424.46C317.64 425.54 319.04 426.7 320.2 428.01L320.22 427.99C318.72 421.22 318.7 414.29 319.04 407.35C316.11 407.85 313.11 407.98 310.14 407.76C309.4 407.69 308.67 407.62 307.94 407.52C306.44 407.32 304.8 406.92 303.93 405.68L303.81 405.68Z" />
	<path id="Path 42" class="shp27" d="M315.12 427.89C314.5 434.3 309.23 439.59 308.86 446.01C308.65 449.37 309.81 452.66 310.19 456C310.48 458.65 310.26 461.36 309.54 463.94C311.23 463.46 312.37 461.82 312.85 460.11C313.31 458.43 313.22 456.64 313.26 454.88C313.33 450.24 314.23 445.6 315.89 441.27C317.1 438.12 318.73 435.02 318.89 431.66C319.03 429.1 317.95 426.29 315.97 424.85C315.58 424.56 315.15 424.32 314.67 424.17C315.15 425.31 315.24 426.64 315.12 427.89Z" />
	<path id="Path 43" class="shp28" d="M300.33 63.75C296.8 71.72 292.94 79.53 288.73 87.16C286.1 91.97 283.3 96.71 281.41 101.85C280.11 105.38 279.26 109.25 280.23 112.87C280.73 114.66 281.65 116.3 282.57 117.92C285.06 122.35 287.55 126.79 290.06 131.22C291.41 133.63 292.79 136.07 294.61 138.15C298.93 143.08 305.67 146.01 308.33 152C310.7 157.31 309.11 163.42 309.39 169.27C311.32 166.64 312.88 163.79 314.28 160.84C315.6 157.99 316.76 155.04 317.92 152.07L317.66 151.97C317.42 146.29 313.72 141.29 309.44 137.54C305.16 133.78 300.17 130.88 296.03 126.99C291.87 123.1 288.51 117.78 288.86 112.1C289.07 108.69 290.6 105.5 292.04 102.4C299.2 86.97 304.83 70.9 310.44 54.83C310.14 55.02 309.79 55.16 309.47 55.11C309.1 55.04 308.82 54.75 308.57 54.47C307.1 52.89 305.63 51.28 304.17 49.7C304.22 54.56 302.31 59.27 300.33 63.75Z" />
	<path id="Path 44" class="shp29" d="M309.39 169.27L309.39 169.39C307.27 172.05 306.09 175.49 306.23 178.89C306.37 182.46 307.83 185.92 307.53 189.47C307.24 192.71 305.51 195.61 304.52 198.7C301.01 209.73 306.95 222.56 301.93 233C301.27 234.37 300.4 235.83 300.79 237.3C300.89 237.71 301.1 238.07 301.35 238.39L302.55 237.88C302.6 237.9 302.65 237.9 302.7 237.9L302.75 237.51C305.02 230.15 312.17 224.22 311.64 216.52C311.43 213.69 310.17 211.01 309.97 208.18C309.61 203.3 312.42 198.8 313.5 194.02C315.54 184.83 311.06 175.07 313.31 165.92C313.72 164.27 314.32 162.72 315.07 161.23L314.28 160.84C312.88 163.79 311.32 166.64 309.39 169.27Z" />
	<path id="Path 45" class="shp30" d="M296.85 466.45C295.72 466.68 294.63 467.21 293.86 468.05C294.34 468.83 294.92 469.53 295.62 470.13C298.18 472.35 301.91 472.88 305.19 472.07C308.48 471.27 311.37 469.28 313.82 466.96C313.85 466.92 313.87 466.9 313.91 466.87C313.39 466.97 312.85 466.96 312.3 466.92C308.53 466.72 304.76 466.51 300.99 466.31C300.37 466.27 299.73 466.23 299.1 466.23C298.34 466.23 297.59 466.29 296.85 466.45Z" />
	<path id="Path 46" class="shp31" d="M302.55 339.2C302 339.15 301.47 339.08 300.92 338.99C300.14 348.89 299.58 358.8 299.29 368.73C299.13 373.91 299.03 379.15 299.94 384.25C300.43 387.02 301.18 389.73 301.83 392.46C302.84 396.81 303.5 401.23 303.81 405.68L303.93 405.68C304.8 406.92 306.44 407.32 307.94 407.52C308.67 407.62 309.4 407.69 310.14 407.76L310.19 407.15C313.85 394.08 309.32 380.14 310.2 366.6C310.82 357.08 314.09 347.91 315.12 338.43C310.89 338.98 306.67 339.59 302.55 339.2Z" />
	<path id="Path 47" class="shp32" d="M299.7 259.36C297.77 266 295.07 272.55 294.8 279.47C294.59 284.56 295.71 289.59 296.05 294.66L299.27 294.4C298.9 289.08 299.05 283.79 300.41 278.64C302.46 270.87 307.15 264.03 309.3 256.31C310.67 251.43 310.97 246.26 310.22 241.26C308.36 241.09 306.52 240.76 304.69 240.25C304.2 240.12 303.69 239.95 303.19 239.71C302.73 246.36 301.56 252.96 299.7 259.36Z" />
	<path id="Path 48" class="shp33" d="M296.05 294.66C296.66 304.05 294.58 313.47 295.09 322.89C295.29 326.76 295.92 330.63 295.6 334.49C295.53 335.1 295.46 335.73 295.65 336.31C296.03 337.51 297.34 338.11 298.54 338.45C299.34 338.67 300.12 338.86 300.92 338.99C301.47 339.08 302 339.15 302.55 339.2C302.53 330.77 302.51 322.31 301.63 313.92C300.92 307.43 299.71 300.88 299.27 294.4L296.05 294.66Z" />
	<path id="Path 49" class="shp34" d="M385.63 529.22C382.42 533.39 377.5 536.23 372.28 536.89C369.8 537.21 367.11 537 365.11 535.5C364.87 535.3 364.63 535.11 364.42 534.88C365.34 536.16 366.35 537.38 367.55 538.41C369.54 540.15 372.12 541.36 374.74 541.18C376.82 541.04 378.73 540.05 380.57 539.08C382.45 538.11 384.35 537.1 385.94 535.69C387.51 534.28 388.76 532.38 388.97 530.28C389.13 528.61 388.65 526.97 388.17 525.37C388.05 524.95 387.92 524.51 387.79 524.09C387.72 525.94 386.77 527.73 385.63 529.22Z" />
	<path id="Path 50" class="shp35" d="M368.24 491.07C370.14 497.9 372.88 504.48 376.41 510.62C378.03 513.45 379.91 516.54 379.39 519.78C378.81 523.49 375.37 525.95 372.23 527.98C371.81 528.25 371.39 528.51 370.9 528.58C369.47 528.74 368.57 527.12 368.08 525.76C364.5 515.92 360.33 506.29 355.63 496.94L355.33 496.99C355.34 497.17 355.37 497.33 355.41 497.51C355.81 500.17 355.37 503.05 353.72 505.16L353.64 505.19C356.12 513.18 358.69 521.14 361.37 529.08C361.74 530.18 362.15 531.32 362.68 532.37C363.22 533.19 363.77 534.02 364.37 534.82C364.37 534.83 364.38 534.87 364.42 534.88C364.63 535.11 364.87 535.3 365.11 535.5C367.11 537 369.8 537.21 372.28 536.89C377.5 536.23 382.42 533.39 385.63 529.22C386.77 527.73 387.72 525.94 387.79 524.09C387.82 523.73 387.8 523.38 387.74 523.02C387.45 521.15 386.18 519.62 385.03 518.12C381.48 513.54 378.57 508.45 376.39 503.07C375.63 501.15 374.95 499.19 374.25 497.25L373.82 497.41C371.71 495.55 369.51 493.57 368.52 490.96L368.24 491.07Z" />
	<path id="Path 51" class="shp36" d="M365.02 487.23C362.68 487.53 360.66 488.92 358.73 490.28C357.14 491.4 355.42 492.73 355.15 494.64C355.03 495.42 355.16 496.21 355.33 496.99L355.63 496.94C360.33 506.29 364.5 515.92 368.08 525.76C368.57 527.12 369.47 528.74 370.9 528.58C371.39 528.51 371.81 528.25 372.23 527.98C375.37 525.95 378.81 523.49 379.39 519.78C379.91 516.54 378.03 513.45 376.41 510.62C372.88 504.48 370.14 497.9 368.24 491.07L368.52 490.96C368.45 490.85 368.42 490.73 368.37 490.61C367.93 489.34 367.63 487.77 366.36 487.31C366.12 487.22 365.86 487.19 365.6 487.19C365.41 487.19 365.21 487.21 365.02 487.23Z" />
	<path id="Path 52" class="shp37" d="M351.09 474.19C348 475.86 344.74 477.12 341.24 477.46L340.69 477.85C341.57 479.13 342.46 480.41 343.33 481.71C345.28 484.58 347.19 487.49 348.66 490.64C350.2 493.91 351.24 497.38 352.3 500.83C352.73 502.29 353.18 503.73 353.64 505.19L353.72 505.16C355.37 503.05 355.81 500.17 355.41 497.51C355.37 497.33 355.34 497.17 355.33 496.99C355.16 496.21 355.03 495.42 355.15 494.64C355.42 492.73 357.14 491.4 358.73 490.28C360.66 488.92 362.68 487.53 365.02 487.23C365.47 487.17 365.94 487.15 366.36 487.31C367.63 487.77 367.93 489.34 368.37 490.61C368.42 490.73 368.45 490.85 368.52 490.96C369.51 493.57 371.71 495.55 373.82 497.41L374.25 497.25C372.76 493.08 371.19 488.97 368.57 485.45C366.67 482.89 364.26 480.75 362.16 478.35C360.09 475.97 358.36 473.41 356.85 470.69C354.98 471.94 353.07 473.13 351.09 474.19Z" />
	<path id="Path 53" class="shp38" d="M316.82 410.17L317.18 410.79C322.31 414.48 325.76 420.11 328.26 425.92C330.76 431.74 332.43 437.88 334.86 443.74C337.04 448.97 339.82 453.95 342.59 458.91C345.36 463.88 348.13 468.84 350.88 473.8L351.09 474.19C353.07 473.13 354.98 471.94 356.85 470.69C349.07 456.6 347.74 438.71 338.76 425.02C336.35 421.34 333.43 418.03 330.51 414.73C328 411.87 325.47 409.02 322.94 406.17C320.98 407.61 318.94 408.96 316.82 410.17Z" />
	<path id="Path 54" class="shp39" d="M301 416.8C304.84 422.37 310.32 426.73 314.31 432.24C318.57 438.1 321 445.02 324.16 451.51C328.72 460.85 334.78 469.31 340.69 477.85L341.24 477.46C344.74 477.12 348 475.86 351.09 474.19L350.88 473.8C348.13 468.84 345.36 463.88 342.59 458.91C339.82 453.95 337.04 448.97 334.86 443.74C332.43 437.88 330.76 431.74 328.26 425.92C325.76 420.11 322.31 414.48 317.18 410.79L316.82 410.17C311.87 413.06 306.53 415.29 301 416.8Z" />
	<path id="Path 55" class="shp40" d="M287.95 318.07C286.69 319.4 284.58 319.32 282.75 319.24C272.15 318.75 261.42 321.67 252.53 327.45C249.71 329.29 247.05 331.39 244.12 333.03C236.35 337.34 227.13 338 218.27 337.88C217.12 337.86 215.85 337.78 214.78 337.39C209.87 340.87 207.49 347.1 204.26 352.31C201.33 357.05 197.47 361.18 192.95 364.42C188.14 367.87 181.88 371.5 182.01 377.43C182.03 377.99 182.11 378.59 182.47 379.01C182.89 379.53 183.53 379.67 184.23 379.62C184.82 379.61 185.43 379.46 185.98 379.33C191.51 377.94 196.99 379.36 202.17 381.94C206.05 383.84 209.76 386.4 213.19 388.89C215.37 390.45 217.55 392.07 219.6 393.84L220.44 392.89C218.59 386.41 214.23 380.69 208.48 377.18C211.3 377.47 215.03 377.19 215.79 374.47C216.05 373.56 215.88 372.61 215.69 371.7C214.72 367.13 213.19 362.69 211.17 358.49C218.06 359.69 223.87 364.1 229.85 367.74C236.56 371.84 243.76 375.07 250.87 378.44C255.19 380.48 259.48 382.56 263.63 384.92C274.62 391.16 284.97 399.88 289.25 411.78C289.83 413.41 290.37 415.2 291.67 416.36C293.76 418.23 296.95 417.82 299.66 417.16C300.11 417.04 300.55 416.93 301 416.8C306.53 415.29 311.87 413.06 316.82 410.17C318.94 408.96 320.98 407.61 322.94 406.17C323.11 406.04 323.25 405.93 323.41 405.81C324.08 405.29 324.78 404.74 325.08 403.97C325.46 402.96 325.12 401.83 324.76 400.8C319.09 384.79 309.75 369.86 307.34 353.04C306.93 350.19 306.71 347.24 305.39 344.66C304.02 341.94 301.54 339.92 300.06 337.26C298.03 333.61 298.07 329.24 296.95 325.22C295.85 321.21 292.67 317.05 288.52 317.42L288.44 317.37C288.33 317.62 288.17 317.84 287.95 318.07Z" />
	<path id="Path 56" class="shp41" d="M215.38 209.55C226.9 216.92 236.52 227.27 243.06 239.27C245.04 242.91 246.66 247.67 244.13 250.93C242.32 253.26 239.12 253.83 236.35 254.8C233.57 255.77 230.62 258.01 230.99 260.92C231.17 262.3 232.06 263.45 232.93 264.54C234.41 266.37 235.88 268.22 237.34 270.05C239.11 272.24 240.95 274.75 240.68 277.54C240.24 281.83 235.33 283.89 232.43 287.07C230.15 289.6 229.04 293.16 229.53 296.53C230.23 301.36 233.91 306.21 231.86 310.63C230.29 314.07 225.87 315.45 224.2 318.85C223 321.3 223.52 324.24 222.79 326.89C221.54 331.39 217.15 333.97 212.74 335.86C212.74 335.88 212.76 335.91 212.77 335.93C213.26 336.66 213.97 337.11 214.78 337.39C215.85 337.78 217.12 337.86 218.27 337.88C227.13 338 236.35 337.34 244.12 333.03C247.05 331.39 249.71 329.29 252.53 327.45C261.42 321.67 272.15 318.75 282.75 319.24C284.58 319.32 286.69 319.4 287.95 318.07C288.17 317.84 288.33 317.62 288.44 317.37C289.51 315.36 288.12 312.58 286.66 310.6C281.52 303.65 275.73 296.87 273.19 288.61C272.3 285.75 271.83 282.77 270.92 279.92C267.61 269.61 259.01 261.96 253.76 252.5C249.04 244.01 247.07 234.04 241.25 226.26C235.02 217.91 225.2 213.13 215.5 209.39L215.38 209.55Z" />
	<path id="Path 57" class="shp42" d="M215.69 371.7C215.88 372.61 216.05 373.56 215.79 374.47C215.03 377.19 211.3 377.47 208.48 377.18C214.23 380.69 218.59 386.41 220.44 392.89L219.6 393.84C220.6 394.7 221.57 395.6 222.48 396.56C224.39 398.55 226 400.77 227.13 403.3C224.18 403.66 221.17 403.32 218.38 402.33C218.1 402.67 217.8 402.99 217.5 403.33C219.58 403.9 221.67 404.45 223.74 405.02C225.46 405.49 227.28 405.96 228.98 405.44C231.57 404.66 232.98 401.97 234.25 399.57C238.46 391.62 244.13 384.39 250.87 378.44C243.76 375.07 236.56 371.84 229.85 367.74C223.87 364.1 218.06 359.69 211.17 358.49C213.19 362.69 214.72 367.13 215.69 371.7Z" />
	<path id="Path 58" class="shp43" d="M214.93 209.47C214.99 209.54 215.06 209.6 215.12 209.68C216.09 210.86 216.22 212.5 216.37 214.01C216.87 218.93 218.14 223.76 220.13 228.29C221.43 231.28 223.03 234.82 221.28 237.57C219.74 240.04 216.42 240.41 213.6 241.07C209.13 242.11 205.07 244.39 201.01 246.53C198.25 247.98 195.43 249.39 192.46 250.28L192.53 250.49C194.14 258.19 196.84 265.67 200.49 272.64C200.55 272.76 200.6 272.87 200.67 272.98C202.9 277.2 205.5 281.23 207.23 285.67C207.36 286 207.47 286.3 207.57 286.63C209.16 290.97 210.03 295.56 212.19 299.64C212.22 299.71 212.25 299.76 212.29 299.82C213.37 301.83 214.75 303.76 215.17 306.01C215.67 308.73 214.7 311.54 214.83 314.31C215.03 318.12 217.3 321.89 216.16 325.53C215.59 327.37 214.23 328.83 213.26 330.48C212.3 332.12 211.73 334.26 212.74 335.86C217.15 333.97 221.54 331.39 222.79 326.89C223.52 324.24 223 321.3 224.2 318.85C225.87 315.45 230.29 314.07 231.86 310.63C233.91 306.21 230.23 301.36 229.53 296.53C229.04 293.16 230.15 289.6 232.43 287.07C235.33 283.89 240.24 281.83 240.68 277.54C240.95 274.75 239.11 272.24 237.34 270.05C235.88 268.22 234.41 266.37 232.93 264.54C232.06 263.45 231.17 262.3 230.99 260.92C230.62 258.01 233.57 255.77 236.35 254.8C239.12 253.83 242.32 253.26 244.13 250.93C246.66 247.67 245.04 242.91 243.06 239.27C236.52 227.27 226.9 216.92 215.38 209.55C215.27 209.49 215.17 209.41 215.06 209.34L214.93 209.47Z" />
	<path id="Path 59" class="shp44" d="M218.38 402.33C221.17 403.32 224.18 403.66 227.13 403.3C226 400.77 224.39 398.55 222.48 396.56C221.3 398.62 219.9 400.53 218.38 402.33Z" />
	<path id="Path 60" class="shp45" d="M177.43 408.78C170.77 417.45 166.92 428.26 166.61 439.18C166.47 444.19 167.04 449.2 167.18 454.21C167.56 467.22 165.05 480.02 161.54 492.62C164.7 493.75 168.03 494.45 171.36 494.64L172.68 494.69C173.68 490.8 174.8 486.96 176.32 483.25C180 474.38 186.05 466.41 187.93 456.99C189.24 450.45 188.41 443.67 188.46 436.99C188.49 434.21 188.67 431.35 189.79 428.79C191.1 425.78 193.6 423.43 196.11 421.3C203.23 415.34 211.38 410.14 217.5 403.33C217.8 402.99 218.1 402.67 218.38 402.33C219.9 400.53 221.3 398.62 222.48 396.56C221.57 395.6 220.6 394.7 219.6 393.84C217.55 392.07 215.37 390.45 213.19 388.89C209.76 386.4 206.05 383.84 202.17 381.94C195.59 392.1 184.86 399.12 177.43 408.78Z" />
	<path id="Path 61" class="shp46" d="M205.95 209.76C203.24 210.88 200.55 212 197.84 213.13C197.81 213.3 197.77 213.44 197.72 213.6C197.73 213.46 197.73 213.31 197.75 213.18C193.65 214.88 189.56 216.58 185.46 218.3C182.03 219.73 178.53 221.2 175.42 223.21C174.17 224.02 172.97 224.91 171.87 225.92C172.16 226.13 172.47 226.34 172.76 226.55C175.97 228.79 179.29 230.89 183.02 231.96C184.2 232.3 185.42 232.55 186.5 233.11C187.17 233.46 187.73 233.91 188.24 234.45C189.97 236.31 190.68 239.16 190.39 241.75C190.31 242.42 190.18 243.07 190 243.7C189.32 246.27 187.93 248.67 186.52 250.96L186.52 251.28C187.07 251.28 187.62 251.25 188.15 251.19C189.63 251.02 191.06 250.72 192.46 250.28C195.43 249.39 198.25 247.98 201.01 246.53C205.07 244.39 209.13 242.11 213.6 241.07C216.42 240.41 219.74 240.04 221.28 237.57C223.03 234.82 221.43 231.28 220.13 228.29C218.14 223.76 216.87 218.93 216.37 214.01C216.22 212.5 216.09 210.86 215.12 209.68C215.06 209.6 214.99 209.54 214.93 209.47C214 208.5 212.87 207.97 211.44 207.97C209.96 207.97 208.17 208.53 205.95 209.76Z" />
	<path id="Path 62" class="shp47" d="M139.13 276.5C137.2 276.53 135.34 277.07 133.76 278.19C133.2 278.59 132.71 279.08 132.29 279.61C130.25 282.12 129.7 285.9 131.55 288.53C132.81 290.34 134.87 291.38 136.85 292.35C137.31 291.67 137.8 290.97 138.3 290.31C139.58 288.56 140.93 286.87 142.34 285.22C142.69 284.8 143.08 284.36 143.6 284.23C144.18 284.09 144.78 284.31 145.3 284.6C146.54 285.3 147.49 286.42 148.08 287.71C148.69 287.99 149.1 288.62 149.28 289.29C149.47 289.98 149.44 290.73 149.37 291.46C149.31 292.33 149.18 293.22 148.74 293.97C148.4 294.54 147.9 294.97 147.35 295.36C152.34 294.44 157.49 293.57 162.45 294.6C165.14 295.17 167.67 296.27 170.2 297.31C182.34 302.3 195.17 306.12 208.3 306.22C209.06 306.22 209.92 306.19 210.46 305.64C210.83 305.28 210.97 304.75 211.1 304.25C211.49 302.77 211.9 301.28 212.29 299.82C212.25 299.76 212.22 299.71 212.19 299.64C210.03 295.56 209.16 290.97 207.57 286.63C206.81 289.71 205.61 293.22 202.61 294.18C201.07 294.67 199.4 294.34 197.83 294C181.22 290.45 164.8 286.05 148.68 280.8L148.94 280C147.49 279.48 146.26 278.56 144.92 277.85C143.23 276.97 141.31 276.5 139.41 276.5C139.32 276.5 139.22 276.5 139.13 276.5Z" />
	<path id="Path 63" class="shp48" d="M200.2 272.79C199.74 275.48 199.29 278.15 198.85 280.83C198.75 281.38 198.64 281.98 198.22 282.35C197.73 282.82 196.96 282.82 196.27 282.79C181.95 282.08 167.64 281.36 153.31 280.65C151.82 280.58 150.33 280.5 148.94 280L148.68 280.8C164.8 286.05 181.22 290.45 197.83 294C199.4 294.34 201.07 294.67 202.61 294.18C205.61 293.22 206.81 289.71 207.57 286.63C207.47 286.3 207.36 286 207.23 285.67C205.5 281.23 202.9 277.2 200.67 272.98C200.6 272.87 200.55 272.76 200.49 272.64L200.2 272.79Z" />
	<path id="Path 64" class="shp49" d="M197.1 203.16C198.02 206.41 198.79 209.91 197.84 213.13C200.55 212 203.24 210.88 205.95 209.76C204.2 207.15 202.35 204.36 200.89 202.35C200.23 201.45 199.64 200.69 199.17 200.2C198.72 199.71 198.27 199.21 197.72 198.84C197.46 198.68 197.2 198.53 196.92 198.42L196.5 198.34C196.18 199.91 196.66 201.59 197.1 203.16Z" />
	<path id="Path 65" class="shp50" d="M180.08 174.27C177.74 175.1 175.25 175.52 172.78 175.5C170.62 175.48 168.4 175.18 166.36 175.89C163.93 176.75 162.24 178.94 160.13 180.43C158.22 181.8 155.95 182.62 153.73 183.36C152.71 183.7 151.61 184.11 151.02 185C150.49 185.82 150.52 186.93 150.74 187.9C151.27 190.2 152.83 192.26 154.9 193.39C156.81 194.45 159.13 194.72 161.22 194.15L161.22 194.14C161.43 192.42 162 190.78 163 189.39C164.41 187.45 166.54 186.15 168.69 185.08C171.15 183.83 173.99 182.79 176.62 183.67C180.78 185.05 182.14 190.38 185.73 192.91C186.91 193.73 188.7 194.15 189.68 193.1C190.2 192.52 190.31 191.71 190.47 190.94C190.76 189.44 191.3 187.96 192.03 186.6C192.56 185.61 193.31 184.61 194.41 184.45C195.38 184.3 196.32 184.84 197.03 185.5C199.55 187.85 200.11 192 198.35 194.95C197.81 195.82 197.1 196.6 196.73 197.56C196.63 197.82 196.55 198.08 196.5 198.34L196.92 198.42C197.2 198.53 197.46 198.68 197.72 198.84C198.27 199.21 198.72 199.71 199.17 200.2C199.64 200.69 200.23 201.45 200.89 202.35L200.97 202.29C201.2 197.14 200.97 191.95 200.29 186.83C200.03 184.9 199.71 182.94 198.79 181.22C197.88 179.54 196.45 178.19 195.06 176.88C192.79 174.76 190.25 172.49 187.13 172.34C187.03 172.34 186.92 172.33 186.81 172.33C184.48 172.33 182.3 173.48 180.08 174.27Z" />
	<path id="Path 66" class="shp51" d="M168.69 185.08C166.54 186.15 164.41 187.45 163 189.39C162 190.78 161.43 192.42 161.22 194.14L161.22 194.15C161.1 195 161.09 195.87 161.14 196.73C161.3 199.29 162.09 201.79 163.05 204.17C165.85 211.16 170.02 217.57 175.25 222.95L175.42 223.21C178.53 221.2 182.03 219.73 185.46 218.3C189.56 216.58 193.65 214.88 197.75 213.18C197.78 213.17 197.81 213.15 197.84 213.13C198.79 209.91 198.02 206.41 197.1 203.16C196.66 201.59 196.18 199.91 196.5 198.34C196.55 198.08 196.63 197.82 196.73 197.56C197.1 196.6 197.81 195.82 198.35 194.95C200.11 192 199.55 187.85 197.03 185.5C196.32 184.84 195.38 184.3 194.41 184.45C193.31 184.61 192.56 185.61 192.03 186.6C191.3 187.96 190.76 189.44 190.47 190.94C190.31 191.71 190.2 192.52 189.68 193.1C188.7 194.15 186.91 193.73 185.73 192.91C182.14 190.38 180.78 185.05 176.62 183.67C175.94 183.44 175.24 183.34 174.55 183.34C172.55 183.34 170.52 184.15 168.69 185.08Z" />
	<path id="Path 67" class="shp52" d="M185.98 379.33C185.43 379.46 184.82 379.61 184.23 379.62C182.13 385.28 178.74 390.45 174.44 394.68C171.93 397.13 169.08 399.31 167.35 402.36C164.9 406.61 165.01 411.79 164.49 416.69C163.16 429.12 157.36 440.62 154.9 452.89C153.55 459.65 153.25 466.57 152.94 473.46C152.71 478.38 152.48 483.33 152.27 488.25C152.53 488.14 152.97 488.22 153.25 488.4C155.81 490.17 158.61 491.58 161.54 492.62C165.05 480.02 167.56 467.22 167.18 454.21C167.04 449.2 166.47 444.19 166.61 439.18C166.92 428.26 170.77 417.45 177.43 408.78C184.86 399.12 195.59 392.1 202.17 381.94C198.38 380.05 194.43 378.79 190.42 378.79C188.95 378.79 187.47 378.96 185.98 379.33Z" />
	<path id="Path 68" class="shp53" d="M175.48 246.05L175.77 246.71C178.25 249.89 182.43 251.31 186.52 251.28L186.52 250.96C187.93 248.67 189.32 246.27 190 243.7L189.37 243.54C188.33 243.32 187.3 243.22 186.27 243.22C182.6 243.22 179 244.47 175.48 246.05Z" />
	<path id="Path 69" class="shp54" d="M148.14 237.02C144.02 237.47 139.84 237.41 135.79 238.24C131.48 239.13 127.46 241.02 123.36 242.56C123.21 242.61 123.07 242.68 122.92 242.73C122.06 243.05 121.19 243.36 120.32 243.65C116.68 244.87 112.99 245.89 109.29 246.91C104.43 248.25 99.28 249.6 94.43 248.2C94.14 248.12 93.85 248.03 93.57 247.91C92.11 247.39 90.75 246.65 89.44 245.77C88 244.83 86.64 243.76 85.29 242.69C86.46 246.4 87.98 250.02 89.8 253.47C86.07 250.2 82.12 247.18 77.95 244.47C76.51 243.52 74.63 242.6 73.14 243.49C75.15 248.28 78.89 252.09 82.55 255.8C77.93 253.47 73.32 251.14 68.7 248.8C68.27 250.6 69.72 252.25 71.06 253.55C73.79 256.18 76.51 258.8 79.23 261.43C73.88 259.89 68.34 259.05 62.76 258.93C64.64 260.88 67.42 261.59 70.01 262.29C74.89 263.63 79.68 265.27 84.35 267.2C87.61 266.81 90.75 265.43 93.22 263.26C94.45 262.17 95.52 260.92 96.67 259.76C97.04 259.37 97.43 258.98 97.85 258.62C101.11 255.76 105.37 254.31 109.62 253.42C123.59 250.5 138.66 252.82 151.84 247.33C154.53 246.21 157.09 244.78 159.7 243.47C168.5 239.1 178.01 236.15 187.75 234.78L188.24 234.45C187.73 233.91 187.17 233.46 186.5 233.11C185.42 232.55 184.2 232.3 183.02 231.96C179.29 230.89 175.97 228.79 172.76 226.55C165.79 232.3 157.12 236.01 148.14 237.02Z" />
	<path id="Path 70" class="shp55" d="M155.87 511.24C156.86 513.39 157.83 515.53 158.82 517.69C159.4 518.93 159.97 520.2 160.7 521.38C162.09 523.6 164.07 525.48 166.36 526.76L166.42 526.75C166.29 526.08 165.98 525.47 165.46 524.93L165.17 524.86C167.35 516.11 169.53 507.35 171.71 498.58C172.03 497.28 172.35 495.99 172.68 494.69L171.36 494.64C168.03 494.45 164.7 493.75 161.54 492.62C159.83 498.87 157.85 505.08 155.87 511.24Z" />
	<path id="Path 71" class="shp56" d="M116.25 492.47C118.21 493.31 119.55 495.53 120.64 497.51C123.9 503.39 127.7 508.97 131.98 514.14C136.26 519.29 141.01 524.04 145.06 529.34C149.13 534.64 152.55 540.65 153.65 547.23L154.31 547.44C154.45 547.29 154.56 547.13 154.67 546.99C157.8 542.56 160.93 538.14 164.04 533.73C165.46 531.7 166.88 528.96 166.42 526.75L166.36 526.76C164.07 525.48 162.09 523.6 160.7 521.38C159.97 520.2 159.4 518.93 158.82 517.69C157.83 515.53 156.86 513.39 155.87 511.24C154.9 509.1 153.93 506.94 152.94 504.8C152.81 504.87 152.66 504.92 152.53 504.96C149.11 506.15 145.34 505.89 141.87 504.88C138.4 503.88 135.18 502.19 131.97 500.51C127.69 498.25 123.38 495.97 119.47 493.13C118.47 492.74 117.43 492.42 116.36 492.21L116.25 492.47Z" />
	<path id="Path 72" class="shp57" d="M152.27 488.25C152.14 491.06 152.01 493.88 151.89 496.68C152.74 497.46 153.38 498.59 153.93 499.66C154.57 500.95 155.22 502.53 154.43 503.73C154.09 504.25 153.52 504.57 152.94 504.8C153.93 506.94 154.9 509.1 155.87 511.24C157.85 505.08 159.83 498.87 161.54 492.62C158.61 491.58 155.81 490.17 153.25 488.4C153.06 488.28 152.79 488.2 152.56 488.2C152.46 488.2 152.36 488.22 152.27 488.25Z" />
	<path id="Path 73" class="shp58" d="M109.08 497.82C107.43 504.4 109.88 511.46 113.96 516.87C118.05 522.29 123.62 526.35 129.11 530.34C137.01 536.06 144.9 541.8 152.81 547.52C152.99 547.65 153.18 547.8 153.41 547.83C153.76 547.88 154.06 547.7 154.31 547.44L153.65 547.23C152.55 540.65 149.13 534.64 145.06 529.34C141.01 524.04 136.26 519.29 131.98 514.14C127.7 508.97 123.9 503.39 120.64 497.51C119.55 495.53 118.21 493.31 116.25 492.47C115.78 492.26 115.26 492.13 114.69 492.11C114.65 492.11 114.6 492.11 114.56 492.11C111.74 492.11 109.77 495.06 109.08 497.82Z" />
	<path id="Path 74" class="shp59" d="M131.97 500.51C135.18 502.19 138.4 503.88 141.87 504.88C145.34 505.89 149.11 506.15 152.53 504.96C152.66 504.92 152.81 504.87 152.94 504.8C152.79 504.48 152.65 504.15 152.5 503.83L151.58 503.57C151.67 501.27 151.79 498.98 151.89 496.68C151.38 496.21 150.81 495.87 150.15 495.73C148.94 495.45 147.67 495.9 146.49 496.29C139.75 498.45 132.29 498.24 125.69 495.73C123.6 494.93 121.58 493.91 119.47 493.13C123.38 495.97 127.69 498.25 131.97 500.51Z" />
	<path id="Path 75" fill-rule="evenodd" class="shp60" d="M146.93 288.08C147.32 288.08 147.7 288.13 148.08 288.25L148.29 288.15C149.26 290.63 148.98 293.58 147.05 295.41C147.15 295.4 147.25 295.38 147.35 295.36C147.12 295.54 146.88 295.69 146.63 295.85C145.81 296.4 144.85 296.98 143.86 296.82C143.02 296.68 142.34 295.98 142.05 295.17C142.01 295.07 141.98 294.99 141.97 294.89C141.95 294.88 141.95 294.86 141.95 294.85C141.76 294.15 141.81 293.37 141.97 292.64C142.26 291.26 142.99 289.95 144.09 289.08C144.9 288.46 145.92 288.08 146.93 288.08ZM142.63 295.78C142.72 295.78 142.76 295.64 142.75 295.5C142.74 295.24 142.58 294.99 142.34 295.51C142.47 295.71 142.56 295.78 142.63 295.78Z" />
	<path id="Path 76" class="shp61" d="M143.6 284.23C143.08 284.36 142.69 284.8 142.34 285.22C140.93 286.87 139.58 288.56 138.3 290.31C139.27 290.31 141.04 293.32 141.95 294.85C141.76 294.15 141.81 293.37 141.97 292.64C142.26 291.26 142.99 289.95 144.09 289.08C145.21 288.22 146.73 287.83 148.08 288.25L148.29 288.15C148.22 288.01 148.16 287.86 148.08 287.71C147.49 286.42 146.54 285.3 145.3 284.6C144.9 284.37 144.44 284.19 143.98 284.19C143.85 284.19 143.73 284.2 143.6 284.23Z" />
	<path id="Path 77" class="shp62" d="M142.34 295.51C142.64 295.99 142.76 295.74 142.75 295.5C142.74 295.35 142.69 295.2 142.6 295.2C142.53 295.2 142.44 295.29 142.34 295.51Z" />
	<path id="Path 78" class="shp63" d="M124.62 260.5C124.79 261.48 124.95 262.48 125.11 263.45C125.13 263.63 125.16 263.83 125.08 263.99C124.9 264.28 124.48 264.26 124.15 264.2C122.02 263.76 119.94 263.1 117.96 262.21L117.88 261.12C114.45 261.39 111.01 261.62 107.59 261.82L107.61 261.96C110.96 262.45 114.37 262.97 117.49 264.28C124.19 267.07 128.9 273.18 132.29 279.61C132.71 279.08 133.2 278.59 133.76 278.19C135.34 277.07 137.2 276.53 139.13 276.5L139.11 276.08C135.06 271.04 131.35 265.71 128.04 260.13C126.91 260.26 125.77 260.39 124.62 260.5Z" />
	<path id="Path 79" class="shp64" d="M96.47 205.73C94.09 207.74 92.36 210.41 90.96 213.21C86.02 223.23 85.45 235.33 89.44 245.77C90.75 246.65 92.11 247.39 93.57 247.91L93.72 247.51C91.95 243.68 91.35 239.4 91.16 235.17C90.77 226.6 92.2 217.47 97.69 210.9C99.24 209.03 101.34 207.33 103.75 207.35C105.87 207.35 107.77 208.71 109.23 210.25C112.06 213.28 113.77 217.17 115.16 221.07C117.79 228.35 119.52 235.95 120.32 243.65C121.19 243.36 122.06 243.05 122.92 242.73C122.11 233.26 121.09 223.7 117.62 214.85C116.51 211.98 115.11 209.18 113.04 206.89C110.96 204.62 108.14 202.91 105.08 202.66C104.83 202.64 104.58 202.63 104.33 202.63C101.47 202.63 98.66 203.88 96.47 205.73Z" />
	<path id="Path 80" class="shp65" d="M187.76 234.78C178.02 236.14 168.5 239.09 159.7 243.47C157.09 244.78 154.53 246.21 151.84 247.32C138.67 252.82 123.59 250.5 109.62 253.42C105.38 254.31 101.12 255.75 97.86 258.62C97.44 258.98 97.05 259.36 96.68 259.75C95.53 260.92 94.46 262.17 93.23 263.25C90.76 265.43 87.62 266.8 84.36 267.19C84.72 267.34 85.09 267.5 85.45 267.65C86.14 267.96 86.89 268.28 87.32 268.93C87.76 269.56 87.79 270.39 87.81 271.16C87.94 276.19 88.07 281.21 88.2 286.22C88.22 286.71 88.23 287.21 88.52 287.6C89.32 288.67 91.05 287.68 91.75 286.53C94.07 282.64 93.13 277.53 95.09 273.45C97.05 269.41 101.73 266.43 101.96 262.12C103.84 262.02 105.72 261.93 107.6 261.81C111.02 261.62 114.45 261.39 117.89 261.12C120.14 260.94 122.4 260.73 124.63 260.5C125.78 260.39 126.92 260.26 128.05 260.13C142.09 258.49 155.86 255.57 168.52 249.43C170.81 248.33 173.12 247.11 175.49 246.04C179.99 244.02 184.65 242.54 189.38 243.53L190.01 243.69C190.19 243.06 190.32 242.41 190.4 241.75C190.69 239.16 189.98 236.3 188.24 234.44L187.76 234.78Z" />
	<path id="Path 81" class="shp66" d="M417.43 384.21C418.45 385.93 421.84 385.34 421.42 387.44L431.08 387.52L435.02 387.54C435.06 387.72 435.14 387.88 435.16 388.04C435.4 387.98 435.66 387.84 435.84 387.7C436.2 387.44 436.56 387.16 436.9 386.9C437.22 386.64 437.52 386.4 437.84 386.16L438.26 385.86C439.02 385.28 439.82 384.68 440.38 383.88C440.86 383.18 441.16 382.32 441.04 381.48L415.14 380.73L417.43 384.21Z" />
	<path id="Path 82" class="shp67" d="M484 384.86L503.24 384.86C503.52 384.86 503.82 385.03 504.06 385.22C505.19 386.1 505.92 387.48 506.04 388.92C506.11 389.62 506.01 390.33 505.68 390.96C505.62 391.08 505.55 391.2 505.46 391.31L483.37 391.31L483.37 391.53C483.37 407.92 494.24 421.2 507.64 421.2C508.31 421.2 508.96 421.16 509.61 421.09C522.08 419.88 531.9 407.1 531.9 391.53C531.9 375.95 522.08 363.18 509.61 361.96C508.96 361.9 508.31 361.86 507.64 361.86C496.11 361.86 486.46 371.67 484 384.86Z" />
	<path id="Path 83" class="shp68" d="M431.85 468.02C436.06 468.55 440.14 469.56 443.79 471.72C445.6 472.8 447.32 474.23 448.16 476.18C448.98 478.12 448.82 480.34 448.35 482.39C447.56 485.68 445.99 488.7 444.23 491.6L444.53 491.77C448.91 492.3 453.23 491.07 457.52 489.67C463.27 487.81 468.99 485.66 474.72 487.06C459.09 502.4 452.95 524.97 439.54 542.23C441.42 542.85 443.47 542.86 445.31 542.16C448.74 540.87 450.99 537.59 454.16 535.78C454.4 535.65 454.68 535.53 454.93 535.56C461.07 522.02 468.66 509.17 477.55 497.26C481.56 491.91 485.86 486.7 489.05 480.8C490.81 477.56 492.14 473.35 489.95 470.39C488.15 467.97 484.78 467.49 481.77 467.22C466.57 465.8 451.35 464.41 436.13 462.99C435.04 464.92 433.57 466.64 431.85 468.02Z" />
	<path id="Path 84" class="shp69" d="M474.89 554.68C472.95 555.8 471.29 557.36 469.35 558.49C467.18 559.75 464.71 560.45 462.2 560.52L462.18 561.41C467.9 561.59 473.59 561.66 479.31 561.65C480.01 561.65 480.76 561.63 481.29 561.2C481.87 560.74 482.04 559.98 482.19 559.27C482.58 557.33 482.86 554.96 481.53 553.56L481.32 553.8C480.65 553.51 479.94 553.38 479.22 553.38C477.73 553.38 476.2 553.93 474.89 554.68Z" />
	<path id="Path 85" class="shp70" d="M454.93 535.56C454.68 535.53 454.4 535.65 454.16 535.78C450.99 537.59 448.74 540.87 445.31 542.16C443.47 542.86 441.42 542.85 439.54 542.23C438.49 541.89 437.48 541.35 436.63 540.63C435.91 540.06 435.3 539.38 434.82 538.61L434.58 538.75C434.6 542.91 433.86 547.08 432.41 550.98C433.55 550.93 434.71 551.27 435.76 551.79C438.14 552.98 439.99 554.99 441.97 556.8C443.94 558.59 446.21 560.28 448.87 560.57L448.86 560.88C453.29 561.12 457.75 561.29 462.18 561.41L462.2 560.52C464.71 560.45 467.18 559.75 469.35 558.49C471.29 557.36 472.95 555.8 474.89 554.68C476.84 553.56 479.26 552.91 481.32 553.8L481.53 553.56C481.42 553.46 481.32 553.35 481.2 553.27C480.76 552.91 480.21 552.69 479.67 552.5C475.49 550.98 471.07 550.23 466.94 548.63C462.79 547.04 458.79 544.4 456.96 540.36C456.38 539.06 456.04 537.68 455.61 536.33C455.53 536.06 455.41 535.73 455.14 535.6C455.09 535.57 455.04 535.56 454.99 535.56C454.97 535.56 454.95 535.56 454.93 535.56Z" />
	<path id="Path 86" class="shp71" d="M466.11 351.01C463.38 351.85 460.41 352.33 458.26 354.17C456.54 355.65 455.58 357.82 454.3 359.71C453.04 361.61 451.14 363.38 448.87 363.33C447.99 363.33 447.15 363.04 446.28 362.97C445.41 362.92 444.42 363.19 444 363.94C443.79 364.34 443.76 364.78 443.72 365.2C443.55 368.38 444 371.55 444.01 374.74C444.03 376.02 443.96 377.33 443.54 378.56C443.13 379.77 442.32 380.92 441.16 381.48L441.03 381.48C441.15 382.32 440.86 383.19 440.36 383.88C439.82 384.69 439.02 385.29 438.25 385.86C438.11 385.97 437.97 386.07 437.84 386.17L438.25 386.72C441.33 389.4 442.44 393.68 442.89 397.72C444.1 408.79 441.52 420 442.77 431.07C442.97 432.86 443.7 435.08 445.51 435.22C446.28 435.27 447.02 434.89 447.63 434.47C450.19 432.69 451.76 429.79 452.63 426.81C453.5 423.84 453.74 420.72 454.16 417.65C454.74 413.48 455.66 409.35 456.65 405.26L456.43 405.21L455.99 405.26C453.05 398.46 454.11 390.59 452.29 383.41C451.61 380.66 450.46 377.88 450.89 375.08C455.75 378.53 460 383.12 465.47 385.34C465.88 385.51 466.31 385.66 466.74 385.8C467.98 386.21 469.33 386.46 470.61 386.22C471.07 386.14 471.5 385.98 471.91 385.8L472.58 385.41L473.3 384.86C474.79 383.56 475.78 381.55 476.36 379.6C477.09 377.13 477.43 374.57 477.67 371.99C478.01 368.55 478.18 365.09 478.1 361.62C478.03 358.82 477.79 355.99 476.9 353.33C476 350.69 474.41 348.2 472.09 346.68C471.1 348.93 468.53 350.28 466.11 351.01Z" />
	<path id="Path 87" class="shp72" d="M463.12 389.28C463 391.75 463.04 396.27 464.31 398.4C464.42 398.57 464.53 398.76 464.53 398.97C464.53 399.15 464.43 399.31 464.35 399.48C463.41 401.15 462.21 402.69 460.85 404C462.25 409.88 461.93 416.16 461.06 422.37C464.98 416.64 468.92 410.91 472.84 405.18C474.43 402.89 476.09 400.19 475.37 397.5C474.99 396.02 473.94 394.8 473.17 393.47C472.78 392.79 472.45 392.06 472.23 391.31C471.67 389.53 471.55 387.62 471.91 385.8C471.5 385.98 471.07 386.14 470.61 386.22C469.33 386.46 467.98 386.21 466.74 385.8C466.31 385.66 465.88 385.51 465.47 385.34C464.69 386.65 463.9 387.96 463.12 389.28Z" />
	<path id="Path 88" class="shp73" d="M454.18 337.74C450.58 338.18 446.79 337.77 443.4 338.92C443.35 338.93 443.3 338.95 443.25 338.97L443.25 338.98C442.97 339.07 442.72 339.17 442.44 339.29C440.52 340.13 438.84 341.56 437.72 343.35C434.9 347.82 435.76 353.57 434.92 358.79C434.63 360.63 434.12 362.51 433.88 364.37C433.66 366.04 433.66 367.7 434.26 369.27C434.63 370.27 435.24 371.19 435.91 372.05C437.07 373.5 438.42 374.79 439.49 376.31C440.57 377.81 441.37 379.64 441.16 381.48C442.32 380.92 443.13 379.77 443.54 378.56C443.96 377.33 444.03 376.02 444.01 374.74C444 371.55 443.55 368.38 443.72 365.2C443.76 364.78 443.79 364.34 444 363.94C444.42 363.19 445.41 362.92 446.28 362.97C447.15 363.04 447.99 363.33 448.87 363.33C451.14 363.38 453.04 361.61 454.3 359.71C455.58 357.82 456.54 355.65 458.26 354.17C460.41 352.33 463.38 351.85 466.11 351.01C468.53 350.28 471.1 348.93 472.09 346.68C472.18 346.49 472.25 346.3 472.3 346.1L472.57 346.18C473.19 346.18 473.17 345.26 472.91 344.72C471.55 341.6 469.57 338.44 466.41 337.16C465.23 336.68 464 336.5 462.74 336.5C459.94 336.5 457.02 337.39 454.18 337.74Z" />
	<path id="Path 89" class="shp74" d="M457.52 489.67L457.59 489.89C450.99 495.85 449.78 505.5 447.7 514.13C445.45 523.45 441.71 532.41 436.68 540.56L436.63 540.63C437.48 541.35 438.49 541.89 439.54 542.23C452.95 524.97 459.09 502.4 474.72 487.06C473.44 486.75 472.15 486.61 470.87 486.61C466.42 486.61 461.98 488.23 457.52 489.67Z" />
	<path id="Path 90" class="shp75" d="M452.29 383.41C454.11 390.59 453.05 398.46 455.99 405.26L456.43 405.21C456.79 402.92 457.4 400.69 458.24 398.56C458.31 398.39 458.38 398.23 458.45 398.06C459.71 394.99 461.41 392.13 463.12 389.28C463.9 387.96 464.69 386.65 465.47 385.34C460 383.12 455.75 378.53 450.89 375.08C450.46 377.88 451.61 380.66 452.29 383.41Z" />
	<path id="Path 91" class="shp76" d="M458.45 398.06L458.84 398.23C459.74 400.09 460.39 402.02 460.85 404C462.21 402.69 463.41 401.15 464.35 399.48C464.43 399.31 464.53 399.15 464.53 398.97C464.53 398.76 464.42 398.57 464.31 398.4C463.04 396.27 463 391.75 463.12 389.28C461.41 392.13 459.71 394.99 458.45 398.06Z" />
	<path id="Path 92" class="shp77" d="M436.9 386.9C436.56 387.16 436.2 387.44 435.84 387.7C435.66 387.84 435.4 387.98 435.16 388.04C435.68 389.58 436.04 391.16 436.28 392.76C437.2 398.78 436.4 405.08 434.46 410.86C432.62 416.34 429.64 421.68 424.9 425.02C424.56 425.26 424.2 425.5 423.84 425.7C424.62 427.88 426.46 429.6 427.96 431.44C431.46 435.66 433.38 441.16 433.3 446.64C433.28 448.14 433.06 449.76 432.02 450.82C431.28 451.58 430.24 451.94 429.24 452.24C423.14 454.04 416.7 454.14 410.5 455.46C405.18 456.56 399.74 458.84 396.36 462.96C403.94 465.16 411.76 466.54 419.62 467.1C423.66 467.4 427.8 467.5 431.84 468.02C433.58 466.64 435.04 464.92 436.14 463C436.32 462.66 436.48 462.34 436.64 462.02C437.64 459.98 438.22 457.72 439.52 455.86C443.72 449.82 453.76 449.64 457 443.04C457.68 441.64 457.96 440.04 458.26 438.5L459.76 430.22C460.24 427.64 460.7 425.02 461.06 422.38C461.92 416.16 462.24 409.88 460.86 404C460.4 402.02 459.74 400.1 458.84 398.24L458.44 398.06C458.38 398.24 458.3 398.38 458.24 398.56C457.4 400.68 456.8 402.92 456.44 405.2L456.66 405.26C455.66 409.36 454.74 413.48 454.16 417.64C453.74 420.72 453.5 423.84 452.62 426.8C451.76 429.8 450.18 432.7 447.62 434.46C447.02 434.9 446.28 435.26 445.52 435.22C443.7 435.08 442.98 432.86 442.76 431.08C441.52 420 444.1 408.8 442.88 397.72C442.44 393.68 441.34 389.4 438.24 386.72L437.84 386.18C437.52 386.42 437.22 386.66 436.9 386.9Z" />
	<path id="Path 93" class="shp78" d="M432.41 550.98C431.9 552.38 431.29 553.75 430.59 555.06C430.31 555.57 430.02 556.1 430.09 556.68C430.2 557.5 431 558.05 431.73 558.4C434.96 559.98 438.62 560.26 442.21 560.5C444.42 560.64 446.64 560.78 448.86 560.88L448.87 560.57C446.21 560.28 443.94 558.59 441.97 556.8C439.99 554.99 438.14 552.98 435.76 551.79C434.78 551.31 433.71 550.98 432.64 550.98C432.57 550.98 432.49 550.98 432.41 550.98Z" />
	<path id="Path 94" class="shp79" d="M395.7 463.16C393.28 465.09 390.28 466.27 387.19 466.56C382.17 470.86 377.99 476.14 374.9 482.01L375.47 482.3C382.7 483.53 390.12 483.67 397.41 482.75C402.75 482.06 408.03 480.8 413.41 480.94C418.56 481.09 424 482.75 427.29 486.67C424.74 486.4 422.21 487.76 420.08 489.28C416.92 491.51 414.13 494.19 411.62 497.14L411.6 497.16C409.36 499.79 407.37 502.64 405.58 505.61C399.66 515.45 396.01 526.45 392.41 537.35L388.72 548.51C388.18 550.16 387.63 551.82 387.09 553.48L387.2 553.51C393.45 553.59 399.01 549.81 404.95 547.83C405.87 547.52 406.94 547.28 407.9 547.4C408.22 544.95 409.26 542.64 410.35 540.42C418.99 523.13 433.1 509.22 443.42 492.9C443.69 492.47 443.96 492.03 444.23 491.6C445.99 488.7 447.56 485.68 448.35 482.39C448.82 480.34 448.98 478.12 448.16 476.18C447.32 474.23 445.6 472.8 443.79 471.72C440.14 469.56 436.06 468.55 431.85 468.02C427.81 467.49 423.66 467.41 419.62 467.1C411.75 466.54 403.94 465.16 396.36 462.96C396.18 462.92 395.99 462.85 395.8 462.8L395.7 463.16Z" />
	<path id="Path 95" class="shp80" d="M426.44 330.9C425.2 331.04 423.93 331.03 422.65 331.02C419.9 331 417.17 330.98 414.94 332.47C413.14 333.7 412.04 335.76 411.43 337.86C410.63 340.69 410.64 343.85 412.03 346.42C412.67 347.63 413.58 348.66 414.23 349.85C416.61 354.29 415.03 359.92 416.84 364.61C417.21 365.6 417.76 366.53 418.58 367.2C419.84 368.24 421.58 368.48 423.22 368.43C424.86 368.38 426.48 368.07 428.11 368.19C429.15 368.28 430.26 368.53 431.24 368.12C432.65 367.54 433.21 365.89 433.47 364.39L433.88 364.37C434.12 362.51 434.63 360.63 434.92 358.79C435.76 353.57 434.9 347.82 437.72 343.35C438.84 341.56 440.52 340.13 442.44 339.29C442.72 339.17 442.97 339.07 443.25 338.98L443.25 338.97C443.3 338.95 443.35 338.93 443.4 338.92L443.38 338.85C442.95 337.09 441.73 335.66 440.53 334.31C439.05 332.62 437.44 330.87 435.3 330.2C434.58 329.98 433.85 329.89 433.11 329.89C430.92 329.89 428.66 330.66 426.44 330.9Z" />
	<path id="Path 96" class="shp81" d="M423.68 398.24C416.82 404.44 410.42 411.14 404.58 418.3L404.46 418.22L404.46 418.24C402.5 422.4 400.8 426.68 399.1 430.96C398.9 431.44 398.72 431.92 398.52 432.4C398.14 433.38 397.74 434.34 397.32 435.28C396.9 436.24 396.48 437.18 396 438.1C395.54 439 395.04 439.9 394.48 440.78C394.22 441.22 393.92 441.66 393.62 442.08C398.14 436.34 403.22 431.06 408.76 426.32C413.06 422.62 417.66 419.22 422.48 416.22C424.54 418.32 423.06 421.88 423.6 424.78C423.68 425.1 423.76 425.4 423.84 425.7C424.2 425.5 424.56 425.26 424.9 425.02C429.64 421.68 432.62 416.34 434.46 410.86C436.4 405.08 437.2 398.78 436.28 392.76C435.72 392.65 435.17 392.6 434.63 392.6C430.6 392.6 426.8 395.44 423.68 398.24Z" />
	<path id="Path 97" class="shp82" d="M424.56 573.83C422.25 574.13 419.91 573.62 417.59 573.33C411.11 572.51 404.42 573.42 398.4 575.91L398.26 576.88C400.66 577.24 403.09 577.58 405.49 577.94C409.95 578.59 414.41 579.24 418.9 579.35C423.22 579.47 427.69 579.05 431.51 577C432.62 576.42 433.78 575.5 433.79 574.24C433.83 572.53 431.9 571.59 430.31 570.98C430.11 570.89 429.89 570.81 429.68 570.72C428.71 572.51 426.63 573.57 424.56 573.83Z" />
	<path id="Path 98" class="shp83" d="M408.75 426.31C403.22 431.05 398.14 436.34 393.62 442.08C393.47 442.31 393.29 442.55 393.12 442.78C392.87 443.13 392.6 443.47 392.29 443.8C392.22 443.88 392.15 443.97 392.07 444.07C390.7 445.62 389.1 447.01 387.31 448.03C384.99 451.59 380.6 453.39 376.54 454.89C372.14 456.49 367.37 458.39 365.15 462.5C364.91 462.94 364.72 463.48 364.98 463.91C365.03 463.98 365.08 464.03 365.13 464.06L365.13 464.08C365.47 464.37 366.02 464.37 366.48 464.34C370.11 464.08 373.8 464.36 377.34 465.14C379.6 465.65 381.8 466.35 384.08 466.57C385.12 466.68 386.16 466.66 387.19 466.56C390.28 466.27 393.28 465.09 395.7 463.16L395.8 462.8C395.99 462.85 396.18 462.92 396.36 462.96C399.74 458.85 405.18 456.56 410.49 455.45C416.7 454.14 423.15 454.03 429.24 452.24C430.25 451.94 431.29 451.58 432.02 450.83C433.06 449.75 433.28 448.13 433.3 446.65C433.39 441.15 431.46 435.66 427.96 431.43C426.46 429.6 424.62 427.88 423.85 425.7C419.28 428.45 413.27 429.06 408.75 426.31Z" />
	<path id="Path 99" class="shp84" d="M404.95 547.83C399.01 549.81 393.45 553.59 387.2 553.51L387.09 553.48C387.63 551.82 388.18 550.16 388.72 548.51L387.41 548.07C383.38 549.33 381.46 553.88 380.76 558.03C380.31 560.61 380.11 563.28 379.46 565.79L379.63 565.83C381.03 565.86 382.17 566.87 383.11 567.91C384.49 569.46 385.65 571.2 386.54 573.08C386.97 573.95 387.38 574.9 388.13 575.41C391.5 575.91 394.88 576.4 398.26 576.88L398.4 575.91C404.42 573.42 411.11 572.51 417.59 573.33C419.91 573.62 422.25 574.13 424.56 573.83C426.63 573.57 428.71 572.51 429.68 570.72C424.5 568.64 419.74 565.67 414.99 562.72C412.16 560.95 408.95 558.54 409.14 555.2C409.26 552.74 411.17 549.91 409.45 548.15C409.02 547.71 408.48 547.49 407.9 547.4C407.73 547.38 407.55 547.37 407.37 547.37C406.56 547.37 405.7 547.57 404.95 547.83Z" />
	<path id="Path 100" class="shp85" d="M397.41 482.75C390.12 483.67 382.7 483.53 375.47 482.3L374.9 482.01C371.97 487.54 370.01 493.58 369.19 499.77C369.14 500.18 369.09 500.59 368.99 500.98C371.66 502.16 374.38 503.32 377.24 503.93C383.21 505.21 389.42 504.05 395.38 502.67C400.95 501.36 406.55 499.82 411.6 497.16L411.62 497.14C414.13 494.19 416.92 491.51 420.08 489.28C422.21 487.76 424.74 486.4 427.29 486.67C424 482.75 418.56 481.09 413.41 480.94C413.13 480.93 412.86 480.93 412.59 480.93C407.5 480.93 402.47 482.1 397.41 482.75Z" />
	<path id="Path 101" class="shp86" d="M408.75 426.31C413.27 429.06 419.28 428.45 423.85 425.7C423.76 425.41 423.68 425.1 423.61 424.78C423.06 421.88 424.55 418.33 422.48 416.21C417.66 419.22 413.07 422.61 408.75 426.31Z" />
	<path id="Path 102" class="shp87" d="M418.38 383.62C417.84 384.98 417.1 386.26 416.2 387.42L410.04 387.36L403.34 387.3C403.52 389.92 405.08 394.06 406.98 396.2C407.26 396.48 407.52 396.78 407.8 396.98L407.92 397C407.8 397.62 407.6 398.26 407.38 398.84C402.62 410.48 392.38 418.88 385.34 429.3C381.54 434.98 378.62 441.32 376.82 447.92C377.1 448.4 377.5 448.8 377.98 449.12C379.22 449.94 380.8 450 382.26 449.82C384.04 449.56 385.74 448.96 387.3 448.04C389.1 447 390.7 445.64 392.06 444.08C392.16 443.96 392.22 443.88 392.3 443.8C392.7 443.22 393.18 442.64 393.62 442.08C393.92 441.66 394.22 441.22 394.48 440.78C395.02 439.92 395.52 439.02 396 438.1C396.48 437.18 396.9 436.24 397.32 435.28C397.74 434.32 398.14 433.36 398.52 432.4C398.72 431.92 398.9 431.44 399.1 430.96C400.8 426.68 402.5 422.4 404.46 418.24L404.46 418.22C406.08 414.68 407.88 411.24 409.96 407.96C413.52 402.36 417.96 397.16 420.3 391.04L420.32 391.04C420.7 390.04 421.04 389 421.3 387.94C421.34 387.8 421.38 387.62 421.42 387.46L421.42 387.44C421.84 385.34 421.82 382.98 420.8 381.26C420.46 380.66 419.98 380.16 419.38 379.76C418.01 379.89 418.86 382.38 418.38 383.62Z" />
	<path id="Path 103" class="shp88" d="M408.8 379.31C407.94 379.4 407.07 379.49 406.19 379.59C405.72 379.64 405.23 379.7 404.84 379.96C404.59 380.13 404.42 380.36 404.29 380.62C404.1 381.04 404.07 381.5 404.14 381.92C404.27 382.65 404.72 383.27 405.19 383.83C406.49 385.37 408.18 386.59 410.04 387.36L416.2 387.42C417.1 386.25 417.83 384.98 418.38 383.63C418.26 381.73 416.65 380.13 414.83 379.53C413.86 379.21 412.84 379.1 411.82 379.1C410.81 379.1 409.79 379.21 408.8 379.31Z" />
	<path id="Path 104" class="shp89" d="M388.4 416.44C382.48 423.75 377.53 432.15 376 441.43C375.64 443.61 375.64 446.19 376.82 447.93C378.62 441.31 381.52 434.98 385.35 429.3C392.39 418.88 402.63 410.48 407.37 398.83C407.59 398.25 407.81 397.62 407.92 396.99L407.81 396.97C407.52 396.77 407.25 396.49 406.98 396.2C400.85 403.01 394.15 409.3 388.4 416.44Z" />
	<path id="Path 105" class="shp90" d="M377.6 570.14C377.31 570.57 376.99 571.01 376.95 571.52C376.92 572.04 377.22 572.53 377.58 572.89C378.69 574 380.35 574.29 381.9 574.51C383.98 574.82 386.05 575.11 388.13 575.41C387.38 574.9 386.97 573.95 386.54 573.08C385.65 571.2 384.49 569.46 383.11 567.91C382.17 566.87 381.03 565.86 379.63 565.83L379.46 565.79C379.07 567.34 378.5 568.81 377.6 570.14Z" />
	<path id="Path 106" class="shp91" d="M358.85 490.58C359.02 491.62 359.28 492.69 359.94 493.53C360.63 494.35 361.84 494.81 362.78 494.33C363.03 496.94 363.78 499.5 364.99 501.82C365.3 502.41 365.67 503.03 366.31 503.25C367.13 503.56 368.05 503.03 368.51 502.28C368.76 501.89 368.9 501.44 368.99 500.98C369.09 500.59 369.14 500.18 369.19 499.77C370.01 493.58 371.97 487.54 374.9 482.01C377.99 476.14 382.17 470.86 387.19 466.56C386.16 466.66 385.12 466.68 384.08 466.57C381.8 466.35 379.6 465.65 377.34 465.14C373.8 464.36 370.11 464.08 366.48 464.34C366.02 464.37 365.47 464.37 365.13 464.08C359.6 471.59 357.27 481.38 358.85 490.58Z" />
	<path id="Path 107" class="shp92" d="M321.34 378.17L352.15 379.02C352.71 379.45 353.17 380.03 353.48 380.68C353.79 381.34 353.92 382.06 354.01 382.79C354.16 384.21 353.97 385.85 353.1 386.94L320.88 386.7C321.71 405.45 334.41 420.34 349.95 420.34C350.75 420.34 351.53 420.31 352.32 420.21C367.3 418.74 379.07 403.42 379.07 384.72C379.07 366.04 367.3 350.72 352.32 349.25C351.53 349.15 350.75 349.12 349.95 349.12C335.69 349.12 323.83 361.64 321.34 378.17Z" />
	<path id="Path 108" class="shp93" d="M299.41 377.59C300.38 378.17 300.79 379.34 301.06 380.44C301.39 381.89 301.56 383.49 300.77 384.75C300.31 385.5 299.37 385.98 298.52 385.98L298.52 386.53L320.89 386.69L353.11 386.93C353.98 385.84 354.17 384.21 354.02 382.79C353.93 382.05 353.79 381.34 353.49 380.67C353.18 380.03 352.72 379.45 352.16 379.02L321.35 378.17L299.34 377.55C299.37 377.55 299.39 377.57 299.41 377.59Z" />
	<path id="Path 109" class="shp94" d="M535.72 385.65L535.44 385.69C535.77 387.58 535.94 389.53 535.94 391.52C535.94 392.53 535.89 393.52 535.8 394.49C537.03 394.54 538.28 394.52 539.52 394.47C539.74 394.47 539.98 394.46 540.17 394.3C540.29 394.22 540.36 394.06 540.42 393.93C541.53 391.47 541.52 388.54 540.37 386.11C540.32 386 540.25 385.88 540.17 385.79C540 385.65 539.76 385.65 539.55 385.65L535.72 385.65Z" />
	<path id="Path 110" class="shp95" d="M473.31 384.85C472.89 385.23 472.43 385.55 471.91 385.79C471.55 387.62 471.67 389.53 472.24 391.3L505.47 391.3C505.55 391.2 505.62 391.08 505.69 390.96C506.02 390.33 506.12 389.61 506.05 388.91C505.93 387.48 505.2 386.1 504.07 385.21C503.83 385.02 503.53 384.85 503.25 384.85L473.31 384.85Z" />
	<path id="Path 111" class="shp96" d="M383.92 384.72C383.92 385.54 383.9 386.35 383.84 387.17L403.35 387.31L410.04 387.36C408.18 386.59 406.49 385.36 405.19 383.83C404.73 383.27 404.29 382.64 404.15 381.92C404.07 381.49 404.12 381.03 404.31 380.62L403.33 380.44L383.63 379.89C383.82 381.46 383.92 383.08 383.92 384.72Z" />
	<path id="Path 112" class="shp97" d="M531.91 391.52C531.91 407.1 522.09 419.88 509.62 421.09C523.26 421.09 534.5 409.66 535.8 394.49C535.89 393.52 535.94 392.53 535.94 391.52C535.94 389.53 535.77 387.58 535.44 385.69C533.07 371.92 522.39 361.96 509.62 361.96C522.09 363.17 531.91 375.95 531.91 391.52Z" />
	<path id="Path 113" class="shp98" d="M379.08 384.72C379.08 403.41 367.3 418.73 352.33 420.2C369.03 420.2 382.74 405.92 383.84 387.17C383.9 386.35 383.92 385.54 383.92 384.72C383.92 383.08 383.82 381.46 383.63 379.89C381.57 362.3 368.31 349.25 352.33 349.25C367.3 350.72 379.08 366.04 379.08 384.72Z" />
	<path id="Path 114" class="shp99" d="M297.53 377.55C296.78 379.46 296.44 381.54 296.58 383.59C296.61 384.19 296.7 384.82 297.05 385.3C297.41 385.76 297.94 385.98 298.52 385.98C299.37 385.98 300.31 385.5 300.77 384.75C301.56 383.49 301.39 381.89 301.06 380.44C300.79 379.34 300.38 378.17 299.41 377.59C299.39 377.57 299.37 377.55 299.34 377.55L297.65 377.52C297.62 377.52 297.56 377.53 297.53 377.55Z" />
	<path id="Path 115" class="shp100" d="M420.32 391.04L420.3 391.04C417.96 397.16 413.52 402.36 409.96 407.96C407.88 411.24 406.08 414.68 404.46 418.22L404.58 418.3C410.42 411.14 416.82 404.44 423.68 398.24C427.22 395.06 431.64 391.82 436.28 392.76C436.04 391.16 435.68 389.58 435.16 388.04C435.14 387.88 435.06 387.72 435.02 387.54L431.08 387.52C428.14 387.7 423.98 388.48 420.32 391.04Z" />
</svg>