<?xml version="1.0" encoding="UTF-8"?>
<svg width="122px" height="122px" viewBox="0 0 122 122" version="1.1" xmlns="http://www.w3.org/2000/svg" xmlns:xlink="http://www.w3.org/1999/xlink">
    <!-- Generator: Sketch 61.2 (89653) - https://sketch.com -->
    <title>icon1</title>
    <desc>Created with Sketch.</desc>
    <g id="icon1" stroke="none" stroke-width="1" fill="none" fill-rule="evenodd">
        <g transform="translate(9.000000, 42.000000)" stroke="#699DB4" stroke-width="3">
            <path d="M98.5,14 L102.5,14 C103.328427,14 104,14.6715729 104,15.5 L104,23.5 C104,24.3284271 103.328427,25 102.5,25 L98.5,25" id="Path"></path>
            <path d="M5.5,25 L1.5,25 C0.671572875,25 0,24.3284271 0,23.5 L0,15.5 C0,14.6715729 0.671572875,14 1.5,14 L5.5,14" id="Path"></path>
            <path d="M75.5,24 L29.5,24 C28.6715729,24 28,23.3284271 28,22.5 L28,16.5 C28,15.6715729 28.6715729,15 29.5,15 L75.5,15" id="Path"></path>
            <path d="M15.5,33 L7.5,33 C6.67157288,33 6,32.3284271 6,31.5 L6,7.5 C6,6.67157288 6.67157288,6 7.5,6 L15.5,6" id="Path"></path>
            <rect id="Rectangle-Copy-14" x="15" y="0" width="13" height="39" rx="1.5"></rect>
            <path d="M88.5,6 L88.8388672,6 L88.8388672,6 L96.5,6 C97.3284271,6 98,6.67157288 98,7.5 L98,31.5 C98,32.3284271 97.3284271,33 96.5,33 L89.1513672,33 L89.1513672,33 L88.5,33" id="Path"></path>
            <rect id="Rectangle-Copy-9" x="76" y="0" width="13" height="39" rx="1.5"></rect>
        </g>
    </g>
</svg>