<?xml version="1.0" encoding="UTF-8"?>
<svg width="122px" height="122px" viewBox="0 0 122 122" version="1.1" xmlns="http://www.w3.org/2000/svg" xmlns:xlink="http://www.w3.org/1999/xlink">
    <!-- Generator: Sketch 61.2 (89653) - https://sketch.com -->
    <title>icon3 copy 2</title>
    <desc>Created with Sketch.</desc>
    <g id="icon3-copy-2" stroke="none" stroke-width="1" fill="none" fill-rule="evenodd">
        <g id="workout" transform="translate(27.000000, 21.000000)" fill="#699DB4" fill-rule="nonzero">
            <path d="M64.9270639,49.7386035 L64.2395933,49.7386035 C64.0943587,49.7386035 63.951917,49.7494467 63.8120024,49.769125 L63.8120024,46.7749349 C63.8120024,43.7326866 61.3531215,41.2576304 58.3305919,41.2576304 L56.6933772,41.2576304 C53.6708477,41.2576304 51.2119668,43.7326866 51.2119668,46.7749349 L51.2119668,53.001062 L49.9950282,53.001062 L48.530047,45.2702763 C47.9403305,42.1581498 44.4146666,41.6874755 41.9563177,41.6171956 L41.9563177,39.7472156 L43.313038,39.7472156 C44.0474571,39.7472156 44.6430255,39.1478956 44.6430255,38.4085514 L44.6430255,31.3386642 C44.6430255,30.5994538 44.0474571,30 43.313038,30 L23.0337876,30 C22.2993685,30 21.7038,30.5994538 21.7038,31.3386642 L21.7038,38.4085514 C21.7038,39.1478956 22.2993685,39.7472156 23.0337876,39.7472156 L24.3849219,39.7472156 L24.3849219,41.6051476 L23.3545805,41.6051476 C21.81512,41.6051476 20.8934387,42.2327134 20.3913684,42.7589423 C19.5328614,43.6589262 19.1317372,45.0202138 19.1991676,46.8055903 L19.1991676,53.0009281 L16.7732704,53.0009281 L16.7732704,46.774801 C16.7732704,43.7325527 14.3142565,41.2574965 11.2917269,41.2574965 L9.65451228,41.2574965 C6.63198268,41.2574965 4.17310179,43.7325527 4.17310179,46.774801 L4.17310179,49.7671171 C4.03784206,49.7486435 3.90032135,49.7383358 3.76027366,49.7383358 L3.07280312,49.7383358 C1.37839905,49.7383358 0,51.1258612 0,52.8313194 L0,63.426311 C0,65.1317692 1.37839905,66.5192946 3.07280312,66.5192946 L3.76027366,66.5192946 C3.90045435,66.5192946 4.03797505,66.5089869 4.17310179,66.4905133 L4.17310179,69.4829633 C4.17310179,72.5250776 6.63198268,75 9.65451228,75 L11.2917269,75 C14.3142565,75 16.7732704,72.5250776 16.7732704,69.4829633 L16.7732704,63.7382198 L19.1991676,63.7382198 L19.1991676,65.5415343 C19.1991676,67.6006675 20.9309443,69.2758719 23.0597223,69.2758719 L23.945627,69.2758719 C24.7819231,69.2758719 25.5571728,69.0171081 26.1901139,68.578294 C26.8762544,69.2733285 27.8430224,69.7070557 28.9123323,69.7070557 L29.7651203,69.7070557 C30.5014014,69.7070557 31.1891379,69.5014368 31.7699435,69.1464231 C32.461271,69.9318174 33.4901493,70.4307375 34.6372635,70.4307375 L35.4899185,70.4307375 C36.6976801,70.4307375 37.774571,69.8776015 38.4641695,69.01925 C39.0217003,69.3354425 39.6704682,69.5169653 40.3621947,69.5169653 L41.2149827,69.5169653 C43.2702124,69.5169653 44.9595625,67.8882126 44.9808423,65.8861065 L45.0037181,63.7382198 L51.2119668,63.7382198 L51.2119668,69.4829633 C51.2119668,72.5250776 53.6708477,75 56.6933772,75 L58.3305919,75 C61.3531215,75 63.8120024,72.5250776 63.8120024,69.4829633 L63.8120024,66.4891747 C63.951917,66.508853 64.0943587,66.5196962 64.2395933,66.5196962 L64.9270639,66.5196962 C66.621468,66.5196962 68,65.1321708 68,63.4267126 L68,52.831721 C68,51.1261289 66.621468,49.7386035 64.9270639,49.7386035 Z M4.17310186,63.4267126 C4.17323478,63.6521436 3.98411056,63.8423678 3.76027366,63.8423678 L3.07280312,63.8423678 C2.84896623,63.8423678 2.659975,63.6520098 2.659975,63.4267126 L2.659975,52.831721 C2.659975,52.6062899 2.84909923,52.4160658 3.07280312,52.4160658 L3.76027366,52.4160658 C3.98411056,52.4160658 4.17310186,52.6064238 4.17310186,52.831721 L4.17310186,63.4267126 Z M14.1134284,69.4833649 L14.1132954,69.4833649 C14.1132954,70.8732999 13.1152728,72.0308428 11.8031071,72.2740781 L11.8031071,65.6933388 C11.8031071,64.9541284 11.2075387,64.3546746 10.4731196,64.3546746 C9.73856749,64.3546746 9.14313208,64.9541284 9.14313208,65.6933388 L9.14313208,72.2740781 C7.83109941,72.0308428 6.83320979,70.8732999 6.83320979,69.4833649 L6.83320979,46.7749349 C6.83320979,45.2089655 8.09895889,43.9349588 9.65464527,43.9349588 L11.2918599,43.9349588 C12.8476793,43.9349588 14.1134284,45.2089655 14.1134284,46.7749349 L14.1134284,69.4833649 Z M19.1991676,61.061293 L16.7732704,61.061293 L16.7732704,55.6783904 L19.1991676,55.6783904 L19.1991676,61.061293 Z M24.3637751,37.0700211 L24.3637751,32.6774622 L41.9831835,32.6774622 L41.9831835,37.0700211 L24.3637751,37.0700211 L24.3637751,37.0700211 Z M43.7741447,53.0011959 C43.0451785,53.0011959 42.4521371,53.5918145 42.4442901,54.3254025 L42.358373,62.3998233 L42.358373,62.3999572 L42.358373,62.400091 L42.3216653,65.8577268 C42.3154144,66.3993503 41.819329,66.8400386 41.2151157,66.8400386 L40.3623277,66.8400386 C39.7627693,66.8400386 39.2563101,66.396673 39.2563101,65.8721843 C39.2563101,65.1328401 38.6607417,64.5335202 37.9263226,64.5335202 C37.1919035,64.5335202 36.5963351,65.1328401 36.5963351,65.8721843 L36.5963351,66.7859565 C36.5963351,67.310579 36.0897429,67.7538107 35.4901845,67.7538107 L34.6375295,67.7538107 C34.0379711,67.7538107 33.5315119,67.310579 33.5315119,66.7859565 L33.5315119,66.0625424 C33.5315119,65.3231982 32.9359435,64.7238782 32.2015244,64.7238782 C31.4669723,64.7238782 30.8715369,65.3231982 30.8715369,66.0625424 C30.8715369,66.587031 30.3649447,67.0301289 29.7655193,67.0301289 L28.9127313,67.0301289 C28.3131729,67.0301289 27.8067137,66.5868972 27.8067137,66.0625424 L27.8067137,65.5419359 C27.8067137,64.8025917 27.2111453,64.2032717 26.4767262,64.2032717 C25.7423071,64.2032717 25.1467387,64.8025917 25.1467387,65.5419359 C25.1467387,66.1148842 24.5969219,66.5989451 23.946159,66.5989451 L23.0602543,66.5989451 C22.4093584,66.5989451 21.8596746,66.1148842 21.8596746,65.5419359 L21.8596746,46.7794863 C21.8596746,46.7612805 21.8592756,46.7432085 21.8586106,46.7251365 C21.817647,45.7117678 21.9781765,44.9618481 22.3104073,44.6135276 C22.3884776,44.5317353 22.6260134,44.2826099 23.3551125,44.2826099 L25.7154414,44.2826099 C26.4498604,44.2826099 27.0454289,43.683156 27.0454289,42.9439457 L27.0454289,39.7473494 L39.2968747,39.7473494 L39.2968747,42.9439457 C39.2968747,43.683156 39.8924431,44.2826099 40.6268622,44.2826099 L40.7629199,44.2826099 C42.3430781,44.2791293 45.6349302,44.2795309 45.9175525,45.7718738 L47.2874396,53.0011959 L43.7741447,53.0011959 Z M51.2120998,61.061293 L45.0323128,61.061293 L45.0896353,55.6783904 L51.2120998,55.6783904 L51.2120998,61.061293 L51.2120998,61.061293 Z M61.1521603,69.4833649 L61.1521603,69.4833649 C61.1520274,70.8732999 60.1540047,72.0308428 58.8419721,72.2739442 L58.8419721,65.6933388 C58.8419721,64.9541284 58.2465367,64.3546746 57.5119846,64.3546746 C56.7775655,64.3546746 56.1819971,64.9541284 56.1819971,65.6933388 L56.1819971,72.2739442 C54.8699644,72.0308428 53.8720748,70.8732999 53.8720748,69.4833649 L53.8720748,46.7749349 C53.8720748,45.2089655 55.1378239,43.9349588 56.6935102,43.9349588 L58.3307249,43.9349588 C59.8864112,43.9349588 61.1521603,45.2089655 61.1521603,46.7749349 L61.1521603,69.4833649 Z M65.339892,63.4267126 C65.339892,63.6521436 65.1507678,63.8423678 64.9269309,63.8423678 L64.2394603,63.8423678 C64.0156234,63.8423678 63.8266322,63.6520098 63.8266322,63.4267126 C63.8266322,63.3627244 63.8206473,63.300075 63.8120024,63.2383625 L63.8120024,53.020071 C63.8206473,52.9583586 63.8266322,52.8957091 63.8266322,52.831721 C63.8266322,52.6062899 64.0157564,52.4160658 64.2394603,52.4160658 L64.9269309,52.4160658 C65.1507678,52.4160658 65.339892,52.6064238 65.339892,52.831721 L65.339892,63.4267126 Z" id="Shape"></path>
            <path d="M57.7431857,8 L57.7407005,8 C56.4940198,8 55.4827579,9.07361595 55.4814023,10.3991834 L55.4739467,17.7237901 L51.6381103,21.9253032 C50.7689583,22.8771466 50.7904216,24.3977423 51.6857815,25.3217245 C52.1247631,25.7747088 52.6922988,26 53.2589308,26 C53.8483817,26 54.4373807,25.7562147 54.880429,25.271046 L59.3533875,20.3718026 C59.7620945,19.9243425 59.9907355,19.3253272 59.9914133,18.7015732 L60,10.4044674 C60.0013542,9.07793923 58.9909961,8.0014411 57.7431857,8 Z" id="Path"></path>
            <path d="M56.5,0 C46.8505354,0 39,7.85058076 39,17.5001012 C39,27.1496216 46.850333,35 56.5,35 C66.1494646,35 74,27.1496216 74,17.5003035 C74,7.85058076 66.1494646,0 56.5,0 Z M56.5471782,32.16274 C48.5516381,32.16274 42.0472873,25.6581221 42.0472873,17.6629581 C42.0472873,9.66757598 48.5516381,3.16274001 56.5471782,3.16274001 C64.5425003,3.16274001 71.0472873,9.66757598 71.0472873,17.6629581 C71.0472873,25.6581221 64.5427184,32.16274 56.5471782,32.16274 Z" id="Shape"></path>
            <path d="M10.5,59 C9.67155,59 9,59.6638008 9,60.4823599 L9,60.5176401 C9,61.3361992 9.67155,62 10.5,62 C11.3283,62 12,61.3361992 12,60.5176401 L12,60.4823599 C12,59.6638008 11.32845,59 10.5,59 Z" id="Path"></path>
            <path d="M57.5,59 C56.6717,59 56,59.6638008 56,60.4823599 L56,60.5176401 C56,61.3361992 56.6717,62 57.5,62 C58.32845,62 59,61.3361992 59,60.5176401 L59,60.4823599 C59,59.6638008 58.3283,59 57.5,59 Z" id="Path"></path>
        </g>
    </g>
</svg>