<?xml version="1.0" encoding="UTF-8"?>
<svg width="122px" height="122px" viewBox="0 0 122 122" version="1.1" xmlns="http://www.w3.org/2000/svg" xmlns:xlink="http://www.w3.org/1999/xlink">
    <!-- Generator: Sketch 61.2 (89653) - https://sketch.com -->
    <title>icon4</title>
    <desc>Created with Sketch.</desc>
    <g id="icon4" stroke="none" stroke-width="1" fill="none" fill-rule="evenodd">
        <g id="calendar" transform="translate(22.000000, 22.000000)" fill="#FE9230" fill-rule="nonzero">
            <path d="M76.7,7.8 L72.8,7.8 L72.8,6.5 C72.8,5.78202983 72.2179702,5.2 71.5,5.2 L62.4,5.2 L62.4,3.9 C62.3999999,1.74608954 60.6539105,0 58.5,0 C56.3460895,0 54.6000001,1.74608954 54.6,3.9 L54.6,5.2 L52,5.2 L52,3.9 C52,1.74608948 50.2539105,0 48.1,0 C45.9460895,0 44.2,1.74608948 44.2,3.9 L44.2,5.2 L28.6,5.2 L28.6,3.9 C28.6,1.74608948 26.8539105,0 24.7,0 C22.5460895,0 20.8,1.74608948 20.8,3.9 L20.8,5.2 L18.2,5.2 L18.2,3.9 C18.2,1.74608948 16.4539105,0 14.3,0 C12.1460895,0 10.4,1.74608948 10.4,3.9 L10.4,5.2 L1.3,5.2 C0.582029825,5.2 0,5.78202983 0,6.5 L0,71.5 C0,72.2179702 0.582029825,72.8 1.3,72.8 L2.6,72.8 L2.6,76.7 C2.6,77.4179702 3.18202983,78 3.9,78 L76.7,78 C77.4179702,78 78,77.4179702 78,76.7 L78,9.1 C78,8.38202983 77.4179702,7.8 76.7,7.8 Z M2.6,70.2 L2.6,23.4 L70.2,23.4 L70.2,70.2 L2.6,70.2 Z M57.2,3.9 C57.2,3.18202983 57.7820298,2.6 58.5,2.6 C59.2179702,2.6 59.8,3.18202983 59.8,3.9 L59.8,5.2 L57.2,5.2 L57.2,3.9 Z M46.8,3.9 C46.8,3.18202983 47.3820298,2.6 48.1,2.6 C48.8179702,2.6 49.4,3.18202983 49.4,3.9 L49.4,5.2 L46.8,5.2 L46.8,3.9 Z M23.4,3.9 C23.4,3.18202983 23.9820298,2.6 24.7,2.6 C25.4179702,2.6 26,3.18202983 26,3.9 L26,5.2 L23.4,5.2 L23.4,3.9 Z M13,3.9 C13,3.18202983 13.5820298,2.6 14.3,2.6 C15.0179702,2.6 15.6,3.18202983 15.6,3.9 L15.6,5.2 L13,5.2 L13,3.9 Z M10.4,7.8 L10.4,9.1 C10.4025073,11.2528711 12.1471289,12.9974927 14.3,13 C15.0179702,13 15.6,12.4179702 15.6,11.7 C15.6,10.9820298 15.0179702,10.4 14.3,10.4 C13.5823639,10.399194 13.000806,9.81763606 13,9.1 L13,7.8 L20.8,7.8 L20.8,9.1 C20.8025073,11.2528711 22.5471289,12.9974927 24.7,13 C25.4179702,13 26,12.4179702 26,11.7 C26,10.9820298 25.4179702,10.4 24.7,10.4 C23.9823639,10.399194 23.400806,9.81763606 23.4,9.1 L23.4,7.8 L44.2,7.8 L44.2,9.1 C44.2025073,11.2528711 45.9471289,12.9974927 48.1,13 C48.8179702,13 49.4,12.4179702 49.4,11.7 C49.4,10.9820298 48.8179702,10.4 48.1,10.4 C47.3823639,10.399194 46.800806,9.81763606 46.8,9.1 L46.8,7.8 L54.6,7.8 L54.6,9.1 C54.6025073,11.2528711 56.3471289,12.9974927 58.5,13 C59.2179702,13 59.8,12.4179702 59.8,11.7 C59.8,10.9820298 59.2179702,10.4 58.5,10.4 C57.7823639,10.399194 57.200806,9.81763606 57.2,9.1 L57.2,7.8 L70.2,7.8 L70.2,20.8 L2.6,20.8 L2.6,7.8 L10.4,7.8 Z M75.4,75.4 L5.2,75.4 L5.2,72.8 L71.5,72.8 C72.2179702,72.8 72.8,72.2179702 72.8,71.5 L72.8,10.4 L75.4,10.4 L75.4,75.4 Z" id="Shape"></path>
            <path d="M18.9375009,57.4018401 C19.4345881,57.4018727 19.9271319,57.3081019 20.3887977,57.1255412 C20.9077863,59.0103257 22.7542197,60.2240606 24.7089372,59.9653425 C26.6636546,59.7066243 28.1236848,58.0552599 28.1250007,56.1016101 L28.1250007,50.90069 L43.8750003,50.90069 L43.8750003,56.1016101 C43.8763162,58.0552599 45.3363464,59.7066243 47.2910638,59.9653425 C49.2457812,60.2240606 51.0922147,59.0103257 51.6112032,57.1255412 C52.8235276,57.6030134 54.195918,57.4542067 55.2752816,56.7282495 C56.3546451,56.0022923 57.0006431,54.7935735 57.0000005,53.5011501 L57.0000005,40.4988499 C57.0006431,39.2064265 56.3546451,37.9977077 55.2752816,37.2717505 C54.195918,36.5457933 52.8235276,36.3969866 51.6112032,36.8744588 C51.0922147,34.9896743 49.2457812,33.7759394 47.2910638,34.0346575 C45.3363464,34.2933757 43.8763162,35.9447401 43.8750003,37.8983899 L43.8750003,43.09931 L28.1250007,43.09931 L28.1250007,37.8983899 C28.1236848,35.9447401 26.6636546,34.2933757 24.7089372,34.0346575 C22.7542197,33.7759394 20.9077863,34.9896743 20.3887977,36.8744588 C19.1764733,36.3969866 17.804083,36.5457933 16.7247194,37.2717505 C15.6453558,37.9977077 14.9993579,39.2064265 15.0000005,40.4988499 L15.0000005,53.5011501 C15.0025324,55.6544021 16.7639291,57.3993324 18.9375009,57.4018401 Z M53.0625001,39.1986199 C53.7870365,39.199426 54.3741863,39.7810869 54.3750001,40.4988499 L54.3750001,53.5011501 C54.3750001,54.2192473 53.7873738,54.8013801 53.0625001,54.8013801 C52.3376264,54.8013801 51.7500001,54.2192473 51.7500001,53.5011501 L51.7500001,40.4988499 C51.7508139,39.7810869 52.3379637,39.199426 53.0625001,39.1986199 L53.0625001,39.1986199 Z M46.5000002,37.8983899 C46.5000002,37.1802927 47.0876265,36.5981599 47.8125002,36.5981599 C48.5373739,36.5981599 49.1250002,37.1802927 49.1250002,37.8983899 L49.1250002,56.1016101 C49.1250002,56.8197073 48.5373739,57.4018401 47.8125002,57.4018401 C47.0876265,57.4018401 46.5000002,56.8197073 46.5000002,56.1016101 L46.5000002,37.8983899 Z M43.8750003,45.69977 L43.8750003,48.30023 L28.1250007,48.30023 L28.1250007,45.69977 L43.8750003,45.69977 Z M22.8750008,37.8983899 C22.8750008,37.1802927 23.462627,36.5981599 24.1875007,36.5981599 C24.9123745,36.5981599 25.5000007,37.1802927 25.5000007,37.8983899 L25.5000007,56.1016101 C25.5000007,56.8197073 24.9123745,57.4018401 24.1875007,57.4018401 C23.462627,57.4018401 22.8750008,56.8197073 22.8750008,56.1016101 L22.8750008,37.8983899 Z M17.6250009,40.4988499 C17.6250009,39.7807527 18.2126272,39.1986199 18.9375009,39.1986199 C19.6623746,39.1986199 20.2500008,39.7807527 20.2500008,40.4988499 L20.2500008,53.5011501 C20.2500008,54.2192473 19.6623746,54.8013801 18.9375009,54.8013801 C18.2126272,54.8013801 17.6250009,54.2192473 17.6250009,53.5011501 L17.6250009,40.4988499 Z" id="Shape"></path>
        </g>
    </g>
</svg>