<?xml version="1.0" encoding="UTF-8"?>
<svg width="122px" height="122px" viewBox="0 0 122 122" version="1.1" xmlns="http://www.w3.org/2000/svg" xmlns:xlink="http://www.w3.org/1999/xlink">
    <!-- Generator: Sketch 61.2 (89653) - https://sketch.com -->
    <title>icon2</title>
    <desc>Created with Sketch.</desc>
    <g id="icon2" stroke="none" stroke-width="1" fill="none" fill-rule="evenodd">
        <g transform="translate(38.000000, 28.000000)" stroke="#699DB4" stroke-width="3">
            <path d="M7.03707925,27.14302 L2.27026466,8.75673511 C1.30004665,5.01446564 3.54723836,1.19423972 7.28950783,0.224021713 C7.8632406,0.0752761818 8.45354191,3.19744231e-14 9.04624295,3.19744231e-14 L36.9537571,3.19744231e-14 C40.8197503,3.19744231e-14 43.9537571,3.13400675 43.9537571,7 C43.9537571,7.59270103 43.8784809,8.18300235 43.7297353,8.75673511 L38.9859152,27.0543273 L38.9859152,27.0543273" id="Path"></path>
            <path d="M13.0042348,22.6111344 L10.2972941,12.1700775 C9.7428838,10.0316378 11.0269933,7.84865157 13.165433,7.29424128 C13.4932803,7.20924384 13.8305954,7.16622887 14.1692817,7.16622887 L31.8307183,7.16622887 C34.0398573,7.16622887 35.8307183,8.95708988 35.8307183,11.1662289 C35.8307183,11.5049152 35.7877034,11.8422302 35.7027059,12.1700775 L32.9628244,22.7381918" id="Path"></path>
            <circle id="Oval" cx="22.7958984" cy="42.7581405" r="22.5"></circle>
            <path d="M22.7958984,32.2581405 C28.0426036,32.2581405 32.2958984,36.5114353 32.2958984,41.7581405 L32.2958984,52.2581405 L32.2958984,52.2581405 L13.2958984,52.2581405 L13.2958984,41.7581405 C13.2958984,36.5114353 17.5491933,32.2581405 22.7958984,32.2581405 Z" id="Rectangle"></path>
        </g>
    </g>
</svg>