<svg width="105" height="84" viewBox="0 0 105 84" fill="none" xmlns="http://www.w3.org/2000/svg">
<path d="M77.812 56.996C77.787 49.302 72.347 42.664 64.745 41.052C63.727 33.579 57.284 28.002 49.665 28C42.194 28.01 35.835 33.383 34.652 40.683H31.38C22.28 40.683 14.893 47.963 14.853 56.967H13.648C10.0322 56.9638 6.56136 58.388 3.99 60.93C2.72503 62.1805 1.72096 63.6698 1.03603 65.3114C0.351104 66.953 -0.00104845 68.7142 2.34466e-06 70.493C2.34466e-06 77.953 6.11 84 13.648 84H77.352C84.89 84 91 77.953 91 70.493C90.999 63.212 85.166 57.242 77.812 56.996V56.996Z" fill="url(#paint0_linear)"/>
<path d="M77.812 56.996C77.787 49.302 72.347 42.664 64.745 41.052C63.727 33.579 57.284 28.002 49.665 28C42.194 28.01 35.835 33.383 34.652 40.683H31.38C22.28 40.683 14.893 47.963 14.853 56.967H13.648C10.0322 56.9638 6.56136 58.388 3.99 60.93C2.72503 62.1805 1.72096 63.6698 1.03603 65.3114C0.351104 66.953 -0.00104845 68.7142 2.34466e-06 70.493C2.34466e-06 77.953 6.11 84 13.648 84H77.352C84.89 84 91 77.953 91 70.493C90.999 63.212 85.166 57.242 77.812 56.996V56.996Z" fill="url(#paint1_linear)"/>
<path d="M37 65.946C43.798 57.497 61.702 56.221 61.702 46.375C58.728 43.335 55.39 39.385 54.116 34.219C51.809 32.943 51.081 30.572 51.081 28.141C51.081 26.196 52.295 24.494 54.116 23.947C54.298 10.454 55.936 0 70.806 0C85.737 0 87.315 10.454 87.497 23.947C89.317 24.616 90.592 26.378 90.532 28.323C90.532 30.754 89.803 33.003 87.497 34.28C86.223 39.446 82.884 43.336 79.91 46.375C79.91 56.221 97.876 57.497 104.613 66.007C104.613 66.007 97.573 75.731 70.806 75.731C44.04 75.731 37 65.946 37 65.946Z" fill="#EFBC3F"/>
<defs>
<linearGradient id="paint0_linear" x1="-63.012" y1="129.161" x2="26.3389" y2="-7.50075" gradientUnits="userSpaceOnUse">
<stop stop-color="#8D8D9B"/>
<stop offset="0.26" stop-color="#9495A3"/>
<stop offset="0.67" stop-color="#A9ACB9"/>
<stop offset="1" stop-color="#BDC3CE"/>
</linearGradient>
<linearGradient id="paint1_linear" x1="-128.585" y1="37.3542" x2="202.227" y2="138.968" gradientUnits="userSpaceOnUse">
<stop stop-color="white" stop-opacity="0"/>
<stop offset="0.18" stop-color="white" stop-opacity="0.23"/>
<stop offset="0.4" stop-color="white" stop-opacity="0.5"/>
<stop offset="0.6" stop-color="white" stop-opacity="0.72"/>
<stop offset="0.78" stop-color="white" stop-opacity="0.87"/>
<stop offset="0.92" stop-color="white" stop-opacity="0.97"/>
<stop offset="1" stop-color="white"/>
</linearGradient>
</defs>
</svg>
