<svg width="107" height="83" viewBox="0 0 107 83" fill="none" xmlns="http://www.w3.org/2000/svg">
<path d="M79.192 82.3572C94.2406 82.3572 106.44 70.1408 106.44 55.0712C106.44 40.0015 94.2406 27.7852 79.192 27.7852C64.1433 27.7852 51.944 40.0015 51.944 55.0712C51.944 70.1408 64.1433 82.3572 79.192 82.3572Z" fill="url(#paint0_linear)"/>
<path opacity="0.9" d="M79.192 82.3572C94.2406 82.3572 106.44 70.1408 106.44 55.0712C106.44 40.0015 94.2406 27.7852 79.192 27.7852C64.1433 27.7852 51.944 40.0015 51.944 55.0712C51.944 70.1408 64.1433 82.3572 79.192 82.3572Z" fill="url(#paint1_linear)"/>
<path d="M2.488 0H71.603C72.2628 0.00237691 72.8949 0.265816 73.3611 0.732757C73.8273 1.1997 74.0897 1.83218 74.091 2.492V49.589C74.091 50.959 72.971 52.081 71.603 52.081H2.488C1.82818 52.0786 1.19612 51.8152 0.729932 51.3482C0.263741 50.8813 0.00131695 50.2488 0 49.589L0 2.492C0 1.122 1.12 0 2.488 0Z" fill="#EFBC3F"/>
<path d="M67.1859 57.8122L74.6509 65.2882L91.2609 48.6542M17.2939 24.8572H7.96294C6.78094 24.8572 5.78494 23.8602 5.78494 22.6772V15.8242L17.2939 24.8572ZM5.03894 30.8372H17.2939H5.03894ZM21.8979 30.8372H34.1529H21.8979ZM38.8189 30.8372H51.0739H38.8189ZM55.6769 30.8372H67.9329H55.6769ZM62.8939 37.3782C62.2791 37.3818 61.6722 37.5172 61.1141 37.7753C60.5561 38.0333 60.0599 38.4081 59.6589 38.8742C58.1029 37.0672 55.3659 36.8802 53.5619 38.4372C51.7579 39.9952 51.5719 42.7362 53.1269 44.5432C54.6819 46.3492 57.4189 46.5362 59.2229 44.9792C59.4099 44.8542 59.5339 44.6672 59.6589 44.5432C61.2139 46.3492 63.9509 46.5362 65.7549 44.9792C67.5589 43.4212 67.7449 40.6802 66.1909 38.8742C65.3199 37.9392 64.1379 37.3782 62.8939 37.3782V37.3782Z" stroke="white" stroke-width="1.8" stroke-linejoin="round"/>
<defs>
<linearGradient id="paint0_linear" x1="143.876" y1="119.837" x2="47.1041" y2="23.1935" gradientUnits="userSpaceOnUse">
<stop stop-color="#8D8D9B"/>
<stop offset="0.26" stop-color="#9495A3"/>
<stop offset="0.67" stop-color="#A9ACB9"/>
<stop offset="1" stop-color="#BDC3CE"/>
</linearGradient>
<linearGradient id="paint1_linear" x1="168.432" y1="144.424" x2="-13.7484" y2="-37.5036" gradientUnits="userSpaceOnUse">
<stop stop-color="white" stop-opacity="0"/>
<stop offset="0.19" stop-color="white" stop-opacity="0.25"/>
<stop offset="0.25" stop-color="white" stop-opacity="0.38"/>
<stop offset="0.34" stop-color="white" stop-opacity="0.57"/>
<stop offset="0.52" stop-color="white" stop-opacity="0.72"/>
<stop offset="0.73" stop-color="white" stop-opacity="0.87"/>
<stop offset="0.9" stop-color="white" stop-opacity="0.97"/>
<stop offset="1" stop-color="white"/>
</linearGradient>
</defs>
</svg>
