<?xml version="1.0" encoding="UTF-8"?>
<svg width="200px" height="133px" viewBox="0 0 200 133" version="1.1" xmlns="http://www.w3.org/2000/svg" xmlns:xlink="http://www.w3.org/1999/xlink">
    <!-- Generator: Sketch 61.2 (89653) - https://sketch.com -->
    <title>Group 5</title>
    <desc>Created with Sketch.</desc>
    <defs>
        <circle id="path-1" cx="36.7385833" cy="36.7385833" r="36.7385833"></circle>
        <filter x="-8.2%" y="-8.2%" width="116.3%" height="116.3%" filterUnits="objectBoundingBox" id="filter-2">
            <feGaussianBlur stdDeviation="6" in="SourceAlpha" result="shadowBlurInner1"></feGaussianBlur>
            <feOffset dx="0" dy="0" in="shadowBlurInner1" result="shadowOffsetInner1"></feOffset>
            <feComposite in="shadowOffsetInner1" in2="SourceAlpha" operator="arithmetic" k2="-1" k3="1" result="shadowInnerInner1"></feComposite>
            <feColorMatrix values="0 0 0 0 0   0 0 0 0 0   0 0 0 0 0  0 0 0 0.509096372 0" type="matrix" in="shadowInnerInner1"></feColorMatrix>
        </filter>
        <linearGradient x1="50%" y1="0%" x2="50%" y2="100%" id="linearGradient-3">
            <stop stop-color="#FFFFFF" offset="0%"></stop>
            <stop stop-color="#FFFFFF" stop-opacity="0" offset="100%"></stop>
        </linearGradient>
    </defs>
    <g id="Page-1" stroke="none" stroke-width="1" fill="none" fill-rule="evenodd">
        <g id="Group-5">
            <g id="Group-4-Copy" transform="translate(63.216414, 0.000000)">
                <g id="Oval">
                    <use fill="#EFBC3F" fill-rule="evenodd" xlink:href="#path-1"></use>
                    <use fill="black" fill-opacity="1" filter="url(#filter-2)" xlink:href="#path-1"></use>
                </g>
                <ellipse id="Oval" fill="url(#linearGradient-3)" cx="36.4526799" cy="23.4022607" rx="28.7332889" ry="21.305636"></ellipse>
                <path d="M64.9031265,21.6545337 L64.9031265,28.0084384 L44.4349766,28.0084384 L44.4349766,33.0943913 L64.9031265,33.0943913 L64.9031265,39.3786815 L44.4349766,39.3786815 L44.4349766,51.7976092 L35.6051041,51.7976092 L35.6051041,39.3786815 L17.9818415,39.3786815 L17.9818415,51.7976092 L8.63004646,51.7976092 L8.63004646,21.6545337 L17.9818415,21.6545337 L17.9818415,33.0943913 L35.6051041,33.0943913 L35.6051041,25.4665787 C35.6051041,23.3612444 37.3118147,21.6545337 39.417149,21.6545337 L64.9031265,21.6545337 L64.9031265,21.6545337 Z" id="Path-21" fill="#000000"></path>
            </g>
            <g id="Group-3-Copy" transform="translate(0.423561, 83.812046)" fill="#E9BA25">
                <polygon id="Path-22" points="-4.41965963e-16 0 -4.41965963e-16 21.5190697 6.28342186 21.5190697 6.28342186 13.229774 25.3309907 13.229774 25.3309907 21.5190697 31.6747203 21.5190697 31.6747203 0 25.3309907 0 25.3309907 8.89179401 6.28342186 8.89179401 6.28342186 0"></polygon>
                <polygon id="Path-23" points="36.8709484 0 36.8709484 11.6160657 39.3423236 13.4666618 51.9878007 13.4666618 51.9878007 21.5190697 57.619295 21.5190697 57.619295 13.4666618 70.3191192 13.4666618 72.567633 11.6133771 72.567633 0 66.2142244 0 66.2142244 8.8094396 43.3146118 8.8094396 43.3146118 0"></polygon>
                <path d="M108.214558,0 L109.975023,1.38335547 L109.975023,9.14704716 L108.214558,10.7595348 L109.975023,12.1959388 L109.975023,19.8509276 L108.214558,21.5190697 L77.3686343,21.5190697 L77.3686343,9.01675264 L103.632327,9.01675264 L103.632327,4.9793599 L77.3686343,4.9793599 L77.3686343,0 L108.214558,0 Z M103.923979,13.662807 L83.7519073,13.662807 L83.7519073,17.5277971 L103.923979,17.5277971 L103.923979,13.662807 Z" id="Combined-Shape"></path>
                <path d="M145.720847,0 L147.481312,1.38335547 L147.481312,9.14704716 L145.720847,10.7595348 L147.481312,12.1959388 L147.481312,21.5190697 L141.217924,21.519 L141.218488,13.2604246 L121.364087,13.2604246 L121.363924,21.519 L114.874924,21.5190697 L114.874924,9.01675264 L141.191561,9.01675264 L141.191561,4.9793599 L114.874924,4.9793599 L114.874924,0 L145.720847,0 Z" id="Combined-Shape-Copy-3"></path>
                <polygon id="Combined-Shape-Copy-4" points="164.299149 0 164.299149 4.9793599 192.733589 4.9793599 192.733589 17.0591092 170.022511 17.0959639 170.022511 9.05360738 164.299149 9.01675264 164.299149 21.5190697 192.403303 21.5190697 197.31582 21.5380554 199.076285 20.2265481 199.076285 1.38335547 197.31582 0"></polygon>
                <rect id="Rectangle" x="152.375912" y="0" width="6.24751829" height="21.5486436"></rect>
            </g>
            <path d="M2.51212467,132.11628 L2.51212467,126.070149 L9.22531657,126.070149 L9.22531657,124.068965 L2.51212467,124.068965 L2.51212467,119.158258 L14.2779515,119.158258 L14.2779515,117.114496 L1.50478938e-14,117.114496 L1.50478938e-14,132.11628 L2.51212467,132.11628 Z M32.9435907,132.11628 L32.9435907,117.114496 L30.431466,117.114496 L30.431466,132.11628 L32.9435907,132.11628 Z M58.450157,132.11628 L58.450157,119.158258 L65.3336624,119.158258 L65.3336624,117.114496 L49.0971052,117.114496 L49.0971052,119.158258 L55.9522251,119.158258 L55.9522251,132.11628 L58.450157,132.11628 Z M83.7580241,132.11628 L83.7579798,123.206697 C83.7570937,122.534866 83.7429156,121.949431 83.7154457,121.450394 C83.6870601,120.934723 83.6444817,120.449802 83.5877106,119.995633 C83.8621046,120.459264 84.2831575,120.94655 84.8508693,121.457491 C84.9644117,121.561571 85.0495684,121.637266 85.1063396,121.684575 L85.1063396,121.684575 L96.6308889,132.11628 L98.0359756,132.11628 L98.0359756,117.114496 L95.7367428,117.114496 L95.7367428,125.346317 C95.7367428,126.273579 95.7556666,126.999777 95.793514,127.524911 C95.8313615,128.050044 95.8881327,128.553888 95.9638276,129.036443 C95.6610479,128.648507 95.3653647,128.293687 95.0767779,127.971984 C94.7881911,127.65028 94.5161625,127.375886 94.2606922,127.148801 L94.2606922,127.148801 L83.0341916,117.114496 L81.4587914,117.114496 L81.4587914,132.11628 L83.7580241,132.11628 Z M132.285303,132.11628 L132.285303,130.058324 L120.235621,130.058324 L120.235621,125.289545 L127.530717,125.289545 L127.530717,123.302554 L120.235621,123.302554 L120.235621,119.129872 L132.171761,119.129872 L132.171761,117.114496 L117.723496,117.114496 L117.723496,132.11628 L132.285303,132.11628 Z M161.794238,132.11628 C163.147284,132.11628 164.065085,131.870271 164.54764,131.378254 C165.030195,130.886237 165.271472,129.949513 165.271472,128.568081 L165.271472,128.568081 L165.271472,126.879138 C165.271472,125.507168 165.025464,124.575175 164.533447,124.083158 C164.04143,123.591141 163.12836,123.345132 161.794238,123.345132 L161.794238,123.345132 L152.341837,123.345132 L152.341837,119.158258 L162.958047,119.158258 L162.958047,121.329756 L165.101159,120.719465 L165.101159,120.407224 C165.101159,119.186644 164.848054,118.33271 164.341844,117.845425 C163.835635,117.358139 162.915469,117.114496 161.581346,117.114496 L161.581346,117.114496 L153.590802,117.114496 C152.228294,117.114496 151.305762,117.362869 150.823207,117.859617 C150.340652,118.356365 150.099375,119.290724 150.099375,120.662694 L150.099375,120.662694 L150.099375,121.968431 C150.099375,123.340402 150.340652,124.274761 150.823207,124.771508 C151.305762,125.268256 152.228294,125.51663 153.590802,125.51663 L153.590802,125.51663 L163.014818,125.51663 L163.014818,130.029939 L151.845089,130.029939 L151.845089,127.617164 L149.51747,128.15649 L149.51747,128.568081 C149.51747,129.940051 149.763479,130.87441 150.255496,131.371158 C150.747513,131.867906 151.674775,132.11628 153.037283,132.11628 L153.037283,132.11628 L161.794238,132.11628 Z M196.398385,132.11628 C197.751432,132.11628 198.669233,131.870271 199.151788,131.378254 C199.634343,130.886237 199.87562,129.949513 199.87562,128.568081 L199.87562,128.568081 L199.87562,126.879138 C199.87562,125.507168 199.629612,124.575175 199.137595,124.083158 C198.645578,123.591141 197.732508,123.345132 196.398385,123.345132 L196.398385,123.345132 L186.945984,123.345132 L186.945984,119.158258 L197.562195,119.158258 L197.562195,121.329756 L199.705307,120.719465 L199.705307,120.407224 C199.705307,119.186644 199.452202,118.33271 198.945992,117.845425 C198.439782,117.358139 197.519616,117.114496 196.185494,117.114496 L196.185494,117.114496 L188.19495,117.114496 C186.832442,117.114496 185.90991,117.362869 185.427355,117.859617 C184.9448,118.356365 184.703523,119.290724 184.703523,120.662694 L184.703523,120.662694 L184.703523,121.968431 C184.703523,123.340402 184.9448,124.274761 185.427355,124.771508 C185.90991,125.268256 186.832442,125.51663 188.19495,125.51663 L188.19495,125.51663 L197.618966,125.51663 L197.618966,130.029939 L186.449236,130.029939 L186.449236,127.617164 L184.121618,128.15649 L184.121618,128.568081 C184.121618,129.940051 184.367626,130.87441 184.859643,131.371158 C185.35166,131.867906 186.278923,132.11628 187.641431,132.11628 L187.641431,132.11628 L196.398385,132.11628 Z" id="FITNESS" fill="#000000" fill-rule="nonzero"></path>
        </g>
    </g>
</svg>