<?xml version="1.0" encoding="UTF-8"?>
<svg width="250px" height="66px" viewBox="0 0 250 66" version="1.1" xmlns="http://www.w3.org/2000/svg" xmlns:xlink="http://www.w3.org/1999/xlink">
    <!-- Generator: Sketch 61.2 (89653) - https://sketch.com -->
    <title>Group 5 Copy</title>
    <desc>Created with Sketch.</desc>
    <defs>
        <circle id="path-1" cx="32.6694911" cy="32.6694911" r="32.6694911"></circle>
        <filter x="-9.2%" y="-9.2%" width="118.4%" height="118.4%" filterUnits="objectBoundingBox" id="filter-2">
            <feGaussianBlur stdDeviation="6" in="SourceAlpha" result="shadowBlurInner1"></feGaussianBlur>
            <feOffset dx="0" dy="0" in="shadowBlurInner1" result="shadowOffsetInner1"></feOffset>
            <feComposite in="shadowOffsetInner1" in2="SourceAlpha" operator="arithmetic" k2="-1" k3="1" result="shadowInnerInner1"></feComposite>
            <feColorMatrix values="0 0 0 0 0   0 0 0 0 0   0 0 0 0 0  0 0 0 0.509096372 0" type="matrix" in="shadowInnerInner1"></feColorMatrix>
        </filter>
        <linearGradient x1="50%" y1="0%" x2="50%" y2="100%" id="linearGradient-3">
            <stop stop-color="#FFFFFF" offset="0%"></stop>
            <stop stop-color="#FFFFFF" stop-opacity="0" offset="100%"></stop>
        </linearGradient>
    </defs>
    <g id="Page-1" stroke="none" stroke-width="1" fill="none" fill-rule="evenodd">
        <g id="Group-5-Copy">
            <g id="Group-4-Copy-2">
                <g id="Oval">
                    <use fill="#EFBC3F" fill-rule="evenodd" xlink:href="#path-1"></use>
                    <use fill="black" fill-opacity="1" filter="url(#filter-2)" xlink:href="#path-1"></use>
                </g>
                <ellipse id="Oval" fill="url(#linearGradient-3)" cx="32.4152539" cy="20.810273" rx="25.5508472" ry="18.9458663"></ellipse>
                <path d="M57.7145858,19.2561208 L57.7145858,24.9062796 L39.5134473,24.9062796 L39.5134473,29.4289226 L57.7145858,29.4289226 L57.7145858,35.0171773 L39.5134473,35.0171773 L39.5134473,46.0606094 L31.6615538,46.0606094 L31.6615538,35.0171773 L15.9902086,35.0171773 L15.9902086,46.0606094 L7.67419974,46.0606094 L7.67419974,19.2561208 L15.9902086,19.2561208 L15.9902086,29.4289226 L31.6615538,29.4289226 L31.6615538,22.6459513 C31.6615538,20.7737996 33.1792326,19.2561208 35.0513843,19.2561208 L57.7145858,19.2561208 L57.7145858,19.2561208 Z" id="Path-21" fill="#000000"></path>
            </g>
            <g id="Group-3-Copy" transform="translate(72.528249, 10.381357)" fill="#E9BA25">
                <polygon id="Path-22" points="-3.93014695e-16 0 -3.93014695e-16 19.1356605 5.58748259 19.1356605 5.58748259 11.7644707 22.5253808 11.7644707 22.5253808 19.1356605 28.1664915 19.1356605 28.1664915 0 22.5253808 0 22.5253808 7.90695665 5.58748259 7.90695665 5.58748259 0"></polygon>
                <polygon id="Path-23" points="32.7871958 0 32.7871958 10.3294934 34.9848463 11.9751213 46.2297357 11.9751213 46.2297357 19.1356605 51.2374969 19.1356605 51.2374969 11.9751213 62.5307139 11.9751213 64.5301869 10.3271026 64.5301869 0 58.8804691 0 58.8804691 7.83372366 38.5171719 7.83372366 38.5171719 0"></polygon>
                <path d="M96.2289292,0 L97.7944086,1.23013778 L97.7944086,8.13393847 L96.2289292,9.56783024 L97.7944086,10.845141 L97.7944086,17.6522785 L96.2289292,19.1356605 L68.7994388,19.1356605 L68.7994388,8.01807512 L92.1542174,8.01807512 L92.1542174,4.42785594 L68.7994388,4.42785594 L68.7994388,0 L96.2289292,0 Z M92.4135666,12.1495418 L74.4757132,12.1495418 L74.4757132,15.5864533 L92.4135666,15.5864533 L92.4135666,12.1495418 Z" id="Combined-Shape"></path>
                <path d="M129.581097,0 L131.146576,1.23013778 L131.146576,8.13393847 L129.581097,9.56783024 L131.146576,10.845141 L131.146576,19.1356605 L125.576606,19.135 L125.57741,11.7917265 L107.922043,11.7917265 L107.921606,19.135 L102.151606,19.1356605 L102.151606,8.01807512 L125.553466,8.01807512 L125.553466,4.42785594 L102.151606,4.42785594 L102.151606,0 L129.581097,0 Z" id="Combined-Shape-Copy-3"></path>
                <polygon id="Combined-Shape-Copy-4" points="146.101703 0 146.101703 4.42785594 171.386802 4.42785594 171.386802 15.1696763 151.191157 15.2024491 151.191157 8.0508479 146.101703 8.01807512 146.101703 19.1356605 171.093097 19.1356605 175.461514 19.1525434 177.026993 17.986296 177.026993 1.23013778 175.461514 0"></polygon>
                <rect id="Rectangle" x="135.49906" y="0" width="5.55555564" height="19.1619589"></rect>
            </g>
            <path d="M74.3854875,53.3355099 L74.3854875,47.9590367 L80.3551397,47.9590367 L80.3551397,46.1794998 L74.3854875,46.1794998 L74.3854875,41.812693 L84.8481548,41.812693 L84.8481548,39.9952936 L72.1516008,39.9952936 L72.1516008,53.3355099 L74.3854875,53.3355099 Z M101.446425,53.3355099 L101.446425,39.9952936 L99.2125384,39.9952936 L99.2125384,53.3355099 L101.446425,53.3355099 Z M124.127935,53.3355099 L124.127935,41.812693 L130.249037,41.812693 L130.249037,39.9952936 L115.810809,39.9952936 L115.810809,41.812693 L121.906669,41.812693 L121.906669,53.3355099 L124.127935,53.3355099 Z M146.632753,53.3355099 L146.632714,45.4127352 C146.631926,44.8153143 146.619318,44.2947215 146.594891,43.8509569 C146.569649,43.3924001 146.531787,42.9611884 146.481303,42.5573219 C146.725306,42.9696023 147.099724,43.4029174 147.604557,43.8572673 C147.705524,43.94982 147.781249,44.0171311 147.831732,44.0592005 L147.831732,44.0592005 L158.079845,53.3355099 L159.329307,53.3355099 L159.329307,39.9952936 L157.284733,39.9952936 L157.284733,47.3153744 C157.284733,48.1399353 157.301561,48.785701 157.335216,49.2526717 C157.368872,49.7196424 157.419355,50.1676818 157.486666,50.59679 C157.217422,50.2518207 156.954488,49.9363 156.697865,49.6502278 C156.441241,49.3641557 156.199342,49.120153 155.972167,48.9182197 L155.972167,48.9182197 L145.989091,39.9952936 L144.588179,39.9952936 L144.588179,53.3355099 L146.632753,53.3355099 Z M189.785248,53.3355099 L189.785248,51.5054897 L179.070164,51.5054897 L179.070164,47.2648911 L185.55727,47.2648911 L185.55727,45.4979751 L179.070164,45.4979751 L179.070164,41.7874513 L189.684281,41.7874513 L189.684281,39.9952936 L176.836277,39.9952936 L176.836277,53.3355099 L189.785248,53.3355099 Z M216.025832,53.3355099 C217.229017,53.3355099 218.045164,53.1167489 218.474273,52.6792268 C218.903381,52.2417047 219.117935,51.40873 219.117935,50.1803026 L219.117935,50.1803026 L219.117935,48.678424 C219.117935,47.4584105 218.899174,46.6296427 218.461652,46.1921207 C218.02413,45.7545986 217.21219,45.5358375 216.025832,45.5358375 L216.025832,45.5358375 L207.62036,45.5358375 L207.62036,41.812693 L217.06074,41.812693 L217.06074,43.7436798 L218.966485,43.2009842 L218.966485,42.9233259 C218.966485,41.8379346 218.741413,41.0785814 218.291271,40.6452663 C217.841128,40.2119511 217.022877,39.9952936 215.836519,39.9952936 L215.836519,39.9952936 L208.730993,39.9952936 C207.519393,39.9952936 206.699039,40.2161581 206.269931,40.6578871 C205.840823,41.0996161 205.626269,41.9304874 205.626269,43.1505008 L205.626269,43.1505008 L205.626269,44.3116171 C205.626269,45.5316306 205.840823,46.3625018 206.269931,46.8042309 C206.699039,47.2459599 207.519393,47.4668244 208.730993,47.4668244 L208.730993,47.4668244 L217.111223,47.4668244 L217.111223,51.480248 L207.178631,51.480248 L207.178631,49.3347071 L205.108815,49.8142986 L205.108815,50.1803026 C205.108815,51.4003161 205.327576,52.2311874 205.765098,52.6729164 C206.20262,53.1146454 207.027181,53.3355099 208.23878,53.3355099 L208.23878,53.3355099 L216.025832,53.3355099 Z M246.797293,53.3355099 C248.000479,53.3355099 248.816626,53.1167489 249.245734,52.6792268 C249.674842,52.2417047 249.889396,51.40873 249.889396,50.1803026 L249.889396,50.1803026 L249.889396,48.678424 C249.889396,47.4584105 249.670635,46.6296427 249.233113,46.1921207 C248.795591,45.7545986 247.983651,45.5358375 246.797293,45.5358375 L246.797293,45.5358375 L238.391821,45.5358375 L238.391821,41.812693 L247.832201,41.812693 L247.832201,43.7436798 L249.737946,43.2009842 L249.737946,42.9233259 C249.737946,41.8379346 249.512875,41.0785814 249.062732,40.6452663 C248.612589,40.2119511 247.794339,39.9952936 246.607981,39.9952936 L246.607981,39.9952936 L239.502454,39.9952936 C238.290854,39.9952936 237.4705,40.2161581 237.041392,40.6578871 C236.612284,41.0996161 236.39773,41.9304874 236.39773,43.1505008 L236.39773,43.1505008 L236.39773,44.3116171 C236.39773,45.5316306 236.612284,46.3625018 237.041392,46.8042309 C237.4705,47.2459599 238.290854,47.4668244 239.502454,47.4668244 L239.502454,47.4668244 L247.882684,47.4668244 L247.882684,51.480248 L237.950092,51.480248 L237.950092,49.3347071 L235.880276,49.8142986 L235.880276,50.1803026 C235.880276,51.4003161 236.099037,52.2311874 236.536559,52.6729164 C236.974081,53.1146454 237.798642,53.3355099 239.010242,53.3355099 L239.010242,53.3355099 L246.797293,53.3355099 Z" id="FITNESS" fill="#000000" fill-rule="nonzero"></path>
        </g>
    </g>
</svg>