<?xml version="1.0"?>
<svg xmlns="http://www.w3.org/2000/svg" id="Layer_1" enable-background="new 0 0 511.895 511.895" height="512px" viewBox="0 0 511.895 511.895" width="512px" class=""><g><g><path d="m420.938 217.298 17.992-91.073c6.155-31.151-1.878-63.089-22.039-87.622-20.159-24.533-49.933-38.603-81.687-38.603h-158.513c-31.754 0-61.528 14.07-81.688 38.603-20.161 24.533-28.194 56.471-22.039 87.622l18.033 91.277c-29.043 36.374-45.107 80.961-45.723 128.046-.395 30.135 5.443 59.311 17.352 86.715 11.489 26.438 28.011 49.892 49.11 69.707 0 .001.001.001.001.001 6.816 6.4 15.71 9.925 25.045 9.925h238.332c9.332 0 18.21-3.511 24.999-9.884 20.777-19.501 37.132-42.55 48.611-68.507 11.888-26.879 17.915-55.524 17.915-85.14 0-48.151-16.088-93.92-45.701-131.067zm-302.757-159.649c14.44-17.571 35.766-27.649 58.51-27.649h158.513c22.744 0 44.07 10.078 58.51 27.649 14.44 17.572 20.194 40.448 15.785 62.761l-13.87 70.208c-9.333-8.286-19.293-15.665-29.769-22.091l10.789-54.607c3.367-17.043-4.073-29.251-8.806-35.009-4.733-5.762-15.269-15.426-32.64-15.426h-158.512c-17.371 0-27.906 9.664-32.639 15.424-4.734 5.76-12.173 17.968-8.807 35.011l10.821 54.767c-10.453 6.441-20.408 13.839-29.758 22.149l-13.914-70.426c-4.407-22.312 1.346-45.188 15.787-62.761zm55.628 96.681-9.132-46.225c-.745-3.768.114-7.182 2.553-10.149 2.438-2.967 5.621-4.471 9.461-4.471h158.513c3.84 0 7.023 1.504 9.462 4.473 2.438 2.966 3.296 6.38 2.552 10.147l-9.114 46.134c-24.7-10.454-51.421-16.136-78.993-16.542-29.743-.453-58.662 5.289-85.302 16.633zm247.478 267.04c-9.844 22.26-23.876 42.032-41.707 58.769-1.207 1.132-2.793 1.756-4.467 1.756h-238.331c-1.675 0-3.276-.637-4.508-1.793-36.888-34.646-57.665-83.546-57.002-134.162.63-48.107 20.091-93.191 54.799-126.946 34.746-33.791 80.417-51.984 128.598-51.3 47.689.703 92.415 19.809 125.936 53.798 33.555 34.023 52.034 79.081 52.034 126.873 0 25.409-5.165 49.972-15.352 73.005z" data-original="#000000" class="active-path" data-old_color="#000000" fill="#FFFFFF"/><path d="m332.67 293.011h-153.445c-8.284 0-15 6.716-15 15s6.716 15 15 15h153.445c8.284 0 15-6.716 15-15s-6.716-15-15-15z" data-original="#000000" class="active-path" data-old_color="#000000" fill="#FFFFFF"/><path d="m302.67 348.89h-93.445c-8.284 0-15 6.716-15 15s6.716 15 15 15h93.445c8.284 0 15-6.716 15-15s-6.716-15-15-15z" data-original="#000000" class="active-path" data-old_color="#000000" fill="#FFFFFF"/></g></g> </svg>
